<?xml version="1.0" standalone="no"?>
<!DOCTYPE svg PUBLIC "-//W3C//DTD SVG 1.1//EN" "http://www.w3.org/Graphics/SVG/1.1/DTD/svg11.dtd" >
<svg>
<metadata>
Created by FontForge 20090622 at Wed Feb  8 18:58:54 2017
 By deploy user
2007 Erik Spiekermann, Christian Schwartz, Kris Sowersby published by FSI FontShop International GmbH
</metadata>
<defs>
<font id="MetaSerifOT-Bold" horiz-adv-x="1" >
  <font-face 
    font-family="MetaSerifOT-Bold"
    font-weight="700"
    font-stretch="normal"
    units-per-em="1000"
    panose-1="2 1 8 4 5 1 1 2 1 2"
    ascent="763"
    descent="-237"
    x-height="509"
    cap-height="695"
    bbox="-758 -286 1600 983"
    underline-thickness="73"
    underline-position="-16"
    unicode-range="U+000D-U+FEFF"
  />
<missing-glyph horiz-adv-x="553" 
d="M71 0v689h411v-689h-411zM121 50h311v589h-311v-589z" />
    <glyph glyph-name="f_b" unicode="fb" horiz-adv-x="937" 
d="M744 247q0 97 -23.5 136t-70.5 39q-54 0 -92 -40v-271q34 -37 87 -37q50 0 74.5 36.5t24.5 136.5zM558 734v-291q43 78 146 78q93 0 145.5 -66t52.5 -196q0 -137 -62 -204t-168 -67t-147 72q-11 -43 -31 -60h-98q13 35 13 117v464q0 93 -86 93q-42 0 -64 -26.5t-22 -91.5
v-47h116l-16 -76h-99v-318q0 -42 11 -55.5t48 -14.5v-45h-269v45q38 1 49.5 14t11.5 56v318h-61v51l61 25v37q0 99 61.5 147t164.5 48q89 0 145 -36l27 29h71z" />
    <glyph glyph-name="f_f" unicode="ff" horiz-adv-x="673" 
d="M734 719v-105h-86q-3 60 -41 60q-47 0 -47 -70v-95h121l-16 -76h-104v-318q0 -43 15 -56t66 -14v-45h-289v45q37 1 48.5 14t11.5 56v318h-175v-318q0 -42 11 -55.5t48 -14.5v-45h-269v45q38 1 49.5 14t11.5 56v318h-61v51l61 25v28q0 94 65 143.5t171 49.5q79 0 139 -34
q50 45 137 45q84 0 133 -22zM237 549v-40h176v65q0 88 -84 88q-42 0 -67 -27.5t-25 -85.5z" />
    <glyph glyph-name="f_f_b" unicode="ffb" horiz-adv-x="1260" 
d="M881 734v-291q44 78 147 78q93 0 145 -66t52 -196q0 -137 -62 -204t-167 -67q-106 0 -147 72q-14 -44 -31 -60h-98q13 35 13 117v464q0 93 -86 93q-42 0 -64.5 -26.5t-22.5 -91.5v-47h116l-16 -76h-99v-318q0 -42 11.5 -55.5t48.5 -14.5v-45h-268v45q37 1 48.5 14
t11.5 56v318h-175v-318q0 -42 11 -55.5t48 -14.5v-45h-269v45q38 1 49.5 14t11.5 56v318h-61v51l61 25v28q0 94 65 143.5t171 49.5q79 0 146 -39q59 50 167 50q89 0 145 -36l28 29h70zM237 549v-40h176v66q0 45 -20.5 66t-62.5 21q-93 0 -93 -113zM1067 247q0 97 -23 136
t-70 39q-55 0 -93 -40v-271q36 -37 87 -37q50 0 74.5 36.5t24.5 136.5z" />
    <glyph glyph-name="f_f_h" unicode="ffh" horiz-adv-x="1271" 
d="M881 734v-297q38 41 77.5 62.5t93.5 21.5q65 0 105 -38.5t40 -112.5v-255q0 -43 11 -56t48 -14v-45h-269v45q38 1 49.5 14t11.5 54v222q0 81 -66 81q-52 0 -101 -38v-265q0 -41 11.5 -54t49.5 -14v-45h-270v45q38 1 49.5 14t11.5 56v466q0 93 -86 93q-42 0 -64.5 -26.5
t-22.5 -91.5v-47h116l-16 -76h-99v-318q0 -42 11.5 -55.5t48.5 -14.5v-45h-268v45q37 1 48.5 14t11.5 56v318h-175v-318q0 -42 11 -55.5t48 -14.5v-45h-269v45q38 1 49.5 14t11.5 56v318h-61v51l61 25v28q0 94 65 143.5t171 49.5q79 0 146 -39q59 50 167 50q89 0 145 -36
l28 29h70zM237 549v-40h176v66q0 45 -20.5 66t-62.5 21q-93 0 -93 -113z" />
    <glyph glyph-name="f_f_i" unicode="ffi" horiz-adv-x="958" 
d="M879 115q0 -43 11 -56t50 -14v-45h-269v45q36 1 47.5 14t11.5 56v233q0 54 -11 69.5t-47 15.5h-111v-318q0 -42 11 -55.5t48 -14.5v-45h-267v45q37 1 48.5 14t11.5 56v318h-175v-318q0 -42 11 -55.5t48 -14.5v-45h-269v45q38 1 49.5 14t11.5 56v318h-61v51l61 25v28
q0 94 65 143.5t171 49.5q83 0 144 -39q58 50 167 50q110 0 169 -31v-108h-118q-2 37 -15 54.5t-42 17.5q-37 0 -53.5 -22.5t-16.5 -75.5v-67h239l58 10h22v-404zM237 549v-40h176v66q0 87 -84 87q-42 0 -67 -27.5t-25 -85.5z" />
    <glyph glyph-name="f_f_j" unicode="ffj" horiz-adv-x="948" 
d="M413 509v66q0 45 -20.5 66t-62.5 21q-93 0 -93 -113v-40h176zM673 433h-112v-318q0 -42 11.5 -55.5t48.5 -14.5v-45h-268v45q37 1 48.5 14t11.5 56v318h-175v-318q0 -42 11 -55.5t48 -14.5v-45h-269v45q38 1 49.5 14t11.5 56v318h-61v51l61 25v28q0 94 65 143.5t171 49.5
q83 0 144 -39q59 50 168 50t168 -31v-108h-118q-1 72 -57 72q-37 0 -53.5 -22.5t-16.5 -75.5v-67h237l57 10h22v-503q0 -174 -199 -222l-29 44q45 21 62.5 60.5t17.5 117.5v332q0 52 -10.5 68.5t-44.5 16.5z" />
    <glyph glyph-name="f_f_k" unicode="ffk" horiz-adv-x="1241" 
d="M1113 399l-89 -94l134 -205q20 -31 37 -41.5t45 -13.5v-45h-186l-163 260l129 141q16 17 16 33q0 27 -47 29v46h228v-46q-29 -4 -51.5 -18t-52.5 -46zM471 691q59 50 167 50q89 0 145 -36l28 29h70v-618q0 -43 11.5 -56.5t50.5 -14.5v-45h-272v45q38 1 50 14t12 56v466
q0 93 -86 93q-42 0 -64.5 -26.5t-22.5 -91.5v-47h116l-16 -76h-99v-318q0 -42 11.5 -55.5t48.5 -14.5v-45h-268v45q37 1 48.5 14t11.5 56v318h-175v-318q0 -42 11 -55.5t48 -14.5v-45h-269v45q38 1 49.5 14t11.5 56v318h-61v51l61 25v28q0 94 65 143.5t171 49.5
q79 0 146 -39zM237 549v-40h176v66q0 45 -20.5 66t-62.5 21q-93 0 -93 -113z" />
    <glyph glyph-name="f_f_l" unicode="ffl" horiz-adv-x="962" 
d="M325 730q79 0 146 -39q59 50 167 50q89 0 145 -36l27 29h71v-618q0 -43 11.5 -56.5t50.5 -14.5v-45h-273v45q38 1 50 14t12 56v466q0 93 -86 93q-41 0 -63.5 -26.5t-22.5 -91.5v-47h116l-16 -76h-99v-318q0 -42 11 -55.5t48 -14.5v-45h-267v45q37 1 48.5 14t11.5 56v318
h-175v-318q0 -42 11 -55.5t48 -14.5v-45h-269v45q38 1 49.5 14t11.5 56v318h-61v51l61 25v28q0 94 65 143.5t171 49.5zM237 549v-40h176v66q0 87 -84 87q-42 0 -67 -27.5t-25 -85.5z" />
    <glyph glyph-name="f_f_t" unicode="fft" horiz-adv-x="1024" 
d="M596 741q84 0 133 -22v-105h-87q-1 60 -39 60q-43 0 -43 -69v-96h187q10 77 48 134l104 13q-9 -65 -9 -147h120l-16 -76h-104v-269q0 -59 10.5 -80t46.5 -21q28 0 57 12l16 -52q-58 -36 -136 -36q-72 0 -107 32.5t-35 111.5v302h-181v-318q0 -43 15 -56t66 -14v-45h-289
v45q37 1 48.5 14t11.5 56v318h-175v-318q0 -42 11 -55.5t48 -14.5v-45h-269v45q38 1 49.5 14t11.5 56v318h-61v51l61 25v28q0 94 65 143.5t171 49.5q79 0 139 -34q50 45 132 45zM237 549v-40h176v66q0 87 -83 87q-93 0 -93 -113z" />
    <glyph glyph-name="f_h" unicode="fh" horiz-adv-x="947" 
d="M558 734v-297q75 84 170 84q65 0 105 -38.5t40 -112.5v-255q0 -43 11.5 -56t48.5 -14v-45h-269v45q38 1 49.5 14t11.5 54v222q0 81 -66 81q-52 0 -101 -38v-265q0 -41 11.5 -54t49.5 -14v-45h-271v45q38 1 49.5 14t11.5 56v466q0 93 -86 93q-42 0 -64 -26.5t-22 -91.5
v-47h116l-16 -76h-99v-318q0 -42 11 -55.5t48 -14.5v-45h-269v45q38 1 49.5 14t11.5 56v318h-61v51l61 25v37q0 99 61.5 147t164.5 48q89 0 145 -36l27 29h71z" />
    <glyph glyph-name="f_i" unicode="fi" horiz-adv-x="635" 
d="M555 115q0 -43 11 -56t50 -14v-45h-269v45q37 1 48.5 14t11.5 56v233q0 52 -10.5 68.5t-44.5 16.5h-114v-318q0 -42 11 -55.5t48 -14.5v-45h-269v45q38 1 49.5 14t11.5 56v318h-61v51l61 25v52q0 90 58.5 135t165.5 45q109 0 168 -31v-108h-117q-3 72 -58 72
q-36 0 -52.5 -23t-16.5 -75v-67h239l57 10h22v-404z" />
    <glyph glyph-name="f_j" unicode="fj" horiz-adv-x="625" 
d="M404 16v332q0 52 -10.5 68.5t-44.5 16.5h-111v-318q0 -42 11 -55.5t48 -14.5v-45h-269v45q38 1 49.5 14t11.5 56v318h-61v51l61 25v52q0 90 58.5 135t165.5 45q110 0 169 -31v-108h-118q-3 72 -58 72q-36 0 -52.5 -23t-16.5 -75v-67h236l58 10h22v-503q0 -174 -200 -222
l-29 44q45 21 62.5 60.5t17.5 117.5z" />
    <glyph glyph-name="f_k" unicode="fk" horiz-adv-x="917" 
d="M790 399l-90 -94l134 -205q20 -31 37 -41.5t45 -13.5v-45h-186l-163 260l129 141q16 17 16 33q0 27 -47 29v46h228v-46q-50 -6 -103 -64zM409 115v466q0 93 -86 93q-42 0 -64 -26.5t-22 -91.5v-47h116l-16 -76h-99v-318q0 -42 11 -55.5t48 -14.5v-45h-269v45
q38 1 49.5 14t11.5 56v318h-61v51l61 25v37q0 99 61.5 147t164.5 48q89 0 145 -36l27 29h71v-618q0 -43 11.5 -56.5t50.5 -14.5v-45h-273v45q38 1 50 14t12 56z" />
    <glyph glyph-name="f_l" unicode="fl" horiz-adv-x="638" 
d="M315 741q89 0 144 -36l28 29h70v-618q0 -43 12 -56.5t51 -14.5v-45h-273v45q38 1 50 14t12 56v466q0 93 -86 93q-42 0 -64 -26.5t-22 -91.5v-47h116l-16 -76h-99v-318q0 -42 11 -55.5t48 -14.5v-45h-269v45q38 1 49.5 14t11.5 56v318h-61v51l61 25v37q0 99 61.5 147
t164.5 48z" />
    <glyph glyph-name="f_t" unicode="ft" horiz-adv-x="701" 
d="M237 509h187q10 78 47 134l104 13q-9 -65 -9 -147h121l-16 -76h-104v-269q0 -59 10.5 -80t46.5 -21q26 0 57 12l15 -52q-57 -36 -136 -36q-72 0 -107 32.5t-35 111.5v302h-180v-318q0 -43 15 -56t65 -14v-45h-290v45q38 1 49.5 14t11.5 56v318h-61v51l61 25v73
q0 78 48 118.5t135 40.5q84 0 133 -22v-105h-86q-1 33 -10.5 46.5t-28.5 13.5q-43 0 -43 -69v-96z" />
    <glyph glyph-name=".notdef" horiz-adv-x="553" 
d="M71 0v689h411v-689h-411zM121 50h311v589h-311v-589z" />
    <glyph glyph-name=".null" horiz-adv-x="0" 
 />
    <glyph glyph-name=".null" horiz-adv-x="0" 
 />
    <glyph glyph-name="nonmarkingreturn" horiz-adv-x="333" 
 />
    <glyph glyph-name="CR" unicode="&#xd;" horiz-adv-x="225" 
 />
    <glyph glyph-name="space" unicode=" " horiz-adv-x="225" 
 />
    <glyph glyph-name="exclam" unicode="!" horiz-adv-x="315" 
d="M111 223l-47 464l186 17l-46 -481h-93zM157 -12q-37 0 -64 27.5t-27 65.5q0 37 27 63.5t64 26.5q38 0 65 -26.5t27 -63.5q0 -38 -27 -65.5t-65 -27.5z" />
    <glyph glyph-name="quotedbl" unicode="&#x22;" horiz-adv-x="448" 
d="M363 453h-99v256h99v-256zM184 453h-99v256h99v-256z" />
    <glyph glyph-name="numbersign" unicode="#" horiz-adv-x="573" 
d="M61 422v84h105l28 203h76l-28 -203h125l28 203h76l-28 -203h98v-84h-109l-18 -128h97v-83h-108l-30 -211h-76l29 211h-125l-29 -211h-76l29 211h-94v83h106l18 128h-94zM231 422l-18 -128h125l18 128h-125z" />
    <glyph glyph-name="dollar" unicode="$" horiz-adv-x="577" 
d="M308 -101h-55v89q-129 2 -224 56v133h111q7 -63 34 -94t79 -36v236l-44 11q-88 22 -131.5 67.5t-43.5 129.5q0 96 58 151t161 63v87h55v-86q111 -3 198 -48v-138h-107q-7 53 -27 82.5t-64 37.5v-210l41 -11q95 -24 144.5 -72t49.5 -135q0 -99 -60.5 -156t-174.5 -66v-91z
M400 158q0 43 -21 69t-71 42v-220q92 14 92 109zM166 547q0 -39 20 -63.5t67 -39.5v198q-41 -5 -64 -30t-23 -65z" />
    <glyph glyph-name="percent" unicode="%" horiz-adv-x="1001" 
d="M396 453q0 -105 -52.5 -158.5t-133.5 -53.5q-85 0 -132.5 52.5t-47.5 155.5q0 105 50.5 158.5t135.5 53.5q78 0 129 -54.5t51 -153.5zM272 453q0 161 -62 161q-61 0 -61 -159q0 -91 14 -131t48 -40q61 0 61 169zM768 730l-488 -853h-69l487 853h70zM971 203
q0 -105 -52.5 -158.5t-132.5 -53.5q-85 0 -133 52.5t-48 155.5q0 105 50.5 158.5t136.5 53.5q77 0 128 -54.5t51 -153.5zM847 203q0 161 -62 161q-60 0 -60 -159q0 -91 14 -131t48 -40q60 0 60 169z" />
    <glyph glyph-name="ampersand" unicode="&#x26;" horiz-adv-x="716" 
d="M504 548q0 -58 -40.5 -99t-111.5 -74l173 -182q18 56 18 90q0 31 -14 42.5t-58 14.5v43h221v-43q-39 -2 -53 -13t-20 -45q-13 -75 -50 -137l61 -63q35 -38 86 -38v-44h-205l-45 46q-84 -58 -205 -58q-108 0 -173.5 43.5t-65.5 127.5q0 69 41.5 111.5t121.5 70.5l-34 34
q-39 39 -58.5 75t-19.5 82q0 72 59.5 120.5t161.5 48.5q99 0 154.5 -39t55.5 -114zM318 52q67 0 111 34l-205 213q-50 -47 -50 -117q0 -58 39.5 -94t104.5 -36zM217 561q0 -31 18.5 -58t63.5 -72l18 -18q36 32 49.5 62t13.5 78q0 42 -22 65t-62 23q-37 0 -58 -20.5
t-21 -59.5z" />
    <glyph glyph-name="quotesingle" unicode="'" horiz-adv-x="269" 
d="M184 453h-99v256h99v-256z" />
    <glyph glyph-name="parenleft" unicode="(" horiz-adv-x="341" 
d="M181 317q0 -76 5 -132.5t18.5 -115.5t43 -103t73.5 -71l-24 -46q-145 52 -201.5 163.5t-56.5 303.5q0 190 56.5 296.5t201.5 162.5l24 -46q-84 -54 -112 -154.5t-28 -257.5z" />
    <glyph glyph-name="parenright" unicode=")" horiz-adv-x="341" 
d="M160 317q0 157 -28 258t-112 154l24 46q145 -56 202 -162.5t57 -296.5q0 -192 -57 -303.5t-202 -163.5l-24 46q84 51 112 155t28 267z" />
    <glyph glyph-name="asterisk" unicode="*" horiz-adv-x="461" 
d="M421 561l-115 -65l58 -124l-37 -29l-98 98l-95 -95l-36 27l56 123l-114 67l13 41l132 -18l25 130h42l25 -130l130 17z" />
    <glyph glyph-name="plus" unicode="+" horiz-adv-x="576" 
d="M249 507h77v-201h195v-70h-195v-203h-77v203h-194v70h194v201z" />
    <glyph glyph-name="comma" unicode="," horiz-adv-x="291" 
d="M236 45q0 -76 -46 -126t-133 -68l-30 41q104 30 104 78q0 16 -8 24.5t-29 16.5q-49 21 -49 69q0 34 25.5 58.5t63.5 24.5q44 0 73 -33.5t29 -84.5z" />
    <glyph glyph-name="hyphen" unicode="-" horiz-adv-x="348" 
d="M300 222h-252v115h252v-115z" />
    <glyph glyph-name="period" unicode="." horiz-adv-x="288" 
d="M237 81q0 -39 -27.5 -66.5t-65.5 -27.5q-39 0 -66 27.5t-27 66.5q0 38 27 65.5t66 27.5q38 0 65.5 -27.5t27.5 -65.5z" />
    <glyph glyph-name="slash" unicode="/" horiz-adv-x="423" 
d="M23 -149l260 917h96l-260 -917h-96z" />
    <glyph glyph-name="zero" unicode="0" horiz-adv-x="584" 
d="M544 264q0 -137 -70.5 -207t-185.5 -70q-112 0 -180 71.5t-68 196.5q0 120 71 195t183 75q108 0 179 -67.5t71 -193.5zM380 267q0 105 -22 149.5t-67 44.5q-46 0 -67 -47t-21 -162q0 -109 20 -157t70 -48q44 0 65.5 50t21.5 170z" />
    <glyph glyph-name="one" unicode="1" horiz-adv-x="420" 
d="M307 515v-391q0 -47 15.5 -62t74.5 -17v-45h-338v45q64 3 81.5 18t17.5 62v278q-53 -28 -110 -43l-20 48l183 107h96z" />
    <glyph glyph-name="two" unicode="2" horiz-adv-x="479" 
d="M238 525q97 0 149 -41.5t52 -120.5q0 -78 -58 -129t-192 -114l-36 -17h303l-17 -103h-421v77l104 77q41 30 60.5 46t43.5 41t33.5 49.5t9.5 54.5q0 39 -26 62.5t-68 23.5q-61 0 -115 -33l-28 57q85 70 206 70z" />
    <glyph glyph-name="three" unicode="3" horiz-adv-x="480" 
d="M180 437q-68 0 -132 -40l-31 55q97 73 215 73q91 0 143.5 -42t52.5 -119q0 -120 -132 -157q69 -11 109.5 -56t40.5 -104q0 -57 -28 -99.5t-75 -66t-100.5 -35t-112.5 -11.5q-70 0 -123 13l-11 59q58 -8 104 -8q186 0 186 144q0 61 -35 92t-96 31q-30 0 -47 -2v71
q38 -2 57 -2q54 0 81.5 25.5t27.5 86.5q0 92 -94 92z" />
    <glyph glyph-name="four" unicode="4" horiz-adv-x="566" 
d="M322 -179v187h-304v67l226 442h149l-261 -443h190q0 88 10.5 146t39.5 114l99 18v-278h84v-66h-84v-168z" />
    <glyph glyph-name="five" unicode="5" horiz-adv-x="483" 
d="M446 67q0 -77 -46 -131t-114 -77t-150 -23q-72 0 -124 18l-13 57q51 -13 111 -13q72 0 124.5 35t52.5 113q0 64 -33 98t-91 34q-59 0 -106 -20l34 354h347l-15 -122h-268l-16 -147q42 13 90 13q98 0 157.5 -50t59.5 -139z" />
    <glyph glyph-name="six" unicode="6" horiz-adv-x="562" 
d="M472 642q-115 -44 -178 -103.5t-85 -155.5q54 35 119 35q90 0 146 -52.5t56 -152.5q0 -106 -65 -166.5t-180 -60.5q-117 0 -180.5 71.5t-63.5 201.5q0 75 23.5 139.5t63 111.5t94 84.5t111.5 61.5t121 39zM288 347q-48 0 -89 -23q-4 -35 -4 -72q0 -103 27 -155.5
t75 -52.5q45 0 65 37.5t20 116.5t-22 114t-72 35z" />
    <glyph glyph-name="seven" unicode="7" horiz-adv-x="459" 
d="M448 512l-17 -113q-164 -220 -217 -542l-158 -27q60 255 288 558h-332l17 124h419z" />
    <glyph glyph-name="eight" unicode="8" horiz-adv-x="572" 
d="M36 160q0 103 142 154q-57 32 -87 72.5t-30 105.5q0 93 65.5 140t159.5 47q100 0 159.5 -43t59.5 -115q0 -54 -32.5 -86.5t-93.5 -55.5q82 -37 119.5 -76.5t37.5 -116.5q0 -93 -67 -146t-185 -53q-126 0 -187 45.5t-61 127.5zM398 148q0 13 -1.5 24t-7.5 21l-10 17
t-15.5 15.5l-18 13t-24.5 12.5l-27 12t-33.5 14l-36.5 15q-55 -57 -55 -129q0 -117 115 -117q54 0 84 26.5t30 75.5zM196 524q0 -40 26 -66.5t100 -55.5q53 45 53 118q0 100 -89 100q-42 0 -66 -26t-24 -70z" />
    <glyph glyph-name="nine" unicode="9" horiz-adv-x="566" 
d="M45 -143q156 54 235 138q54 59 73 132q-53 -32 -116 -32q-90 0 -146 52.5t-56 152.5q0 106 65.5 166t177.5 60q113 0 180 -70t67 -201q0 -75 -25.5 -140.5t-67 -114t-99 -87t-118.5 -62.5t-127 -39zM277 166q51 0 88 21q6 36 6 77q0 102 -27 153.5t-75 51.5
q-85 0 -85 -155q0 -75 22 -111.5t71 -36.5z" />
    <glyph glyph-name="colon" unicode=":" horiz-adv-x="314" 
d="M250 373q0 -39 -27.5 -66.5t-65.5 -27.5q-39 0 -66 27.5t-27 66.5q0 38 27 65.5t66 27.5q38 0 65.5 -27.5t27.5 -65.5zM250 81q0 -39 -27.5 -66.5t-65.5 -27.5q-39 0 -66 27.5t-27 66.5q0 38 27 65.5t66 27.5q38 0 65.5 -27.5t27.5 -65.5z" />
    <glyph glyph-name="semicolon" unicode=";" horiz-adv-x="314" 
d="M252 45q0 -76 -46 -126t-133 -68l-30 41q105 30 105 78q0 17 -8 24.5t-29 16.5q-49 21 -49 69q0 35 25 59t64 24q44 0 72.5 -33.5t28.5 -84.5zM243 373q0 -39 -27.5 -66.5t-65.5 -27.5q-39 0 -66 27.5t-27 66.5q0 38 27 65.5t66 27.5q38 0 65.5 -27.5t27.5 -65.5z" />
    <glyph glyph-name="less" unicode="&#x3c;" horiz-adv-x="483" 
d="M428 47l-373 201v82l373 235v-90l-294 -182l294 -161v-85z" />
    <glyph glyph-name="equal" unicode="=" horiz-adv-x="576" 
d="M55 159v71h466v-71h-466zM55 315v72h466v-72h-466z" />
    <glyph glyph-name="greater" unicode="&#x3e;" horiz-adv-x="483" 
d="M428 248l-373 -201v85l294 161l-294 182v90l373 -235v-82z" />
    <glyph glyph-name="question" unicode="?" horiz-adv-x="470" 
d="M309 81q0 -39 -28 -66.5t-66 -27.5t-65 27.5t-27 66.5q0 38 27 64.5t65 26.5t66 -27t28 -64zM217 636q-35 0 -56 -24.5t-24 -70.5h-99v116q34 21 86.5 35t104.5 14q93 0 150 -39.5t57 -119.5q0 -32 -10 -59.5t-30 -48t-33.5 -31t-35.5 -25.5q-50 -34 -67.5 -55t-17.5 -58
q0 -23 5 -48h-65q-33 38 -33 91q0 61 68 123q24 22 35.5 34.5t23 37.5t11.5 54q0 33 -19 53.5t-51 20.5z" />
    <glyph glyph-name="at" unicode="@" horiz-adv-x="907" 
d="M601 7q-70 0 -100.5 21.5t-30.5 68.5q-26 -46 -59 -69t-84 -23t-79 32.5t-28 93.5q0 130 84 225t207 95q102 0 156 -33q-19 -58 -27 -92l-44 -201q-4 -17 -4 -32q0 -36 47 -36q57 0 96 58t39 168q0 148 -79.5 221.5t-217.5 73.5q-155 0 -250.5 -103.5t-95.5 -281.5
q0 -145 81.5 -233.5t222.5 -88.5q89 0 161 24l15 -36q-88 -35 -188 -35q-170 0 -276 97.5t-106 272.5q0 189 124.5 310t313.5 121q175 0 281 -94t106 -249q0 -138 -76 -206.5t-189 -68.5zM484 181l47 199q-14 15 -38 15q-62 0 -104.5 -81t-42.5 -174q0 -56 35 -56
q41 0 103 97z" />
    <glyph glyph-name="A" unicode="A" horiz-adv-x="671" 
d="M435 101l-27 86h-214l-25 -86q-4 -15 -4 -25q0 -18 14 -23t50 -7v-46h-221v46q33 4 47.5 16t26.5 51l189 582h126l199 -582q13 -37 25.5 -50t41.5 -17v-46h-284v46q34 1 47.5 8t13.5 22q0 10 -5 25zM264 428l-49 -167h169l-54 169q-20 61 -30 113h-5q-16 -65 -31 -115z
" />
    <glyph glyph-name="B" unicode="B" horiz-adv-x="634" 
d="M29 0v46q40 0 54 14.5t14 56.5v458q0 42 -14 56.5t-54 15.5v48h321q110 0 173.5 -46.5t63.5 -137.5q0 -128 -148 -154v-4q175 -19 175 -172q0 -181 -237 -181h-348zM254 67h79q64 0 90 27t26 99q0 68 -26.5 96.5t-89.5 28.5h-79v-251zM254 387h62q59 0 82 24.5t23 92.5
q0 66 -25 93t-84 27h-58v-237z" />
    <glyph glyph-name="C" unicode="C" horiz-adv-x="620" 
d="M356 -12q-153 0 -234 90.5t-81 259.5q0 184 86.5 276.5t236.5 92.5q137 0 214 -50v-136h-108q-13 61 -36 88t-72 27q-75 0 -110.5 -64t-35.5 -228q0 -88 10 -146.5t31 -88.5t45.5 -41.5t59.5 -11.5q57 0 82.5 27.5t35.5 91.5h103v-132q-32 -24 -93.5 -39.5t-133.5 -15.5z
" />
    <glyph glyph-name="D" unicode="D" horiz-adv-x="691" 
d="M29 0v46q40 0 54 14.5t14 56.5v458q0 42 -14 56.5t-54 15.5v48h290q331 0 331 -351q0 -169 -84 -256.5t-251 -87.5h-286zM255 67h49q66 0 102.5 20.5t55.5 79.5t19 170q0 167 -39.5 227t-134.5 60h-52v-557z" />
    <glyph glyph-name="E" unicode="E" horiz-adv-x="593" 
d="M29 0v46q40 0 54 14.5t14 56.5v458q0 42 -14 56.5t-54 15.5v48h501l11 -169h-74q-17 60 -35.5 79t-68.5 19h-109v-238h62q46 0 62.5 14t19.5 57h66v-210h-66q-3 41 -19 56t-62 15h-63v-251h124q51 0 72 24t27 92h76v-183h-524z" />
    <glyph glyph-name="F" unicode="F" horiz-adv-x="577" 
d="M29 0v46q40 0 54 14.5t14 56.5v458q0 42 -14 56.5t-54 15.5v48h501l12 -171h-74q-19 63 -37 81.5t-70 18.5h-107v-243h62q46 0 62.5 14t19.5 57h66v-210h-66q-3 42 -19.5 57t-61.5 15h-63v-196q0 -43 17 -57.5t68 -14.5v-46h-310z" />
    <glyph glyph-name="G" unicode="G" horiz-adv-x="695" 
d="M453 77v153q0 43 -16 57.5t-65 14.5v48h302v-48q-37 0 -51 -15t-14 -57v-177q-85 -65 -249 -65q-151 0 -235 91t-84 259q0 184 88.5 276.5t240.5 92.5q140 0 221 -51v-136h-110q-12 62 -36 89t-79 27q-78 0 -114 -68t-36 -226q0 -161 36 -224t113 -63q58 0 88 22z" />
    <glyph glyph-name="H" unicode="H" horiz-adv-x="746" 
d="M492 117v202h-238v-202q0 -42 14.5 -56.5t54.5 -14.5v-46h-294v46q40 0 54 14.5t14 56.5v458q0 42 -14 56.5t-54 15.5v48h294v-48q-40 -1 -54.5 -15.5t-14.5 -56.5v-181h238v181q0 42 -14.5 56.5t-54.5 15.5v48h294v-48q-40 -1 -54 -15.5t-14 -56.5v-458q0 -42 14 -56.5
t54 -14.5v-46h-294v46q40 0 54.5 14.5t14.5 56.5z" />
    <glyph glyph-name="I" unicode="I" horiz-adv-x="352" 
d="M97 117v458q0 42 -14 56.5t-54 15.5v48h294v-48q-40 -1 -54.5 -15.5t-14.5 -56.5v-458q0 -42 14.5 -56.5t54.5 -14.5v-46h-294v46q40 0 54 14.5t14 56.5z" />
    <glyph glyph-name="J" unicode="J" horiz-adv-x="354" 
d="M99 100v475q0 42 -15 56.5t-55 15.5v48h297v-48q-41 -1 -55.5 -15.5t-14.5 -56.5v-468q0 -116 -61 -172.5t-190 -81.5l-26 45q77 37 98.5 76t21.5 126z" />
    <glyph glyph-name="K" unicode="K" horiz-adv-x="685" 
d="M97 117v458q0 42 -14 56.5t-54 15.5v48h294v-48q-40 -1 -54.5 -15.5t-14.5 -56.5v-458q0 -42 14.5 -56.5t54.5 -14.5v-46h-294v46q40 0 54 14.5t14 56.5zM546 577l-139 -171l181 -311q17 -28 33.5 -37.5t50.5 -11.5v-46h-206l-196 346l190 246q13 17 13 29q0 27 -43 27
v47h224v-47q-32 -4 -54.5 -19t-53.5 -52z" />
    <glyph glyph-name="L" unicode="L" horiz-adv-x="562" 
d="M254 575v-508h94q50 0 76.5 27.5t40.5 97.5h77l-14 -192h-499v46q40 0 54 14.5t14 56.5v458q0 42 -14 56.5t-54 15.5v48h295v-48q-41 -1 -55.5 -15.5t-14.5 -56.5z" />
    <glyph glyph-name="M" unicode="M" horiz-adv-x="879" 
d="M824 695v-47q-50 -3 -63 -18.5t-9 -57.5l40 -450q4 -45 16.5 -60.5t52.5 -16.5v-45h-291v45q47 1 59 15.5t8 56.5l-27 323q-3 40 -3 102v22h-5q-11 -71 -24 -115l-124 -449h-93l-131 423q-16 50 -31 142h-5q-4 -109 -6 -138l-18 -309q-2 -44 9 -58.5t55 -14.5v-45h-216
v45q41 1 54 17t16 62l31 448q3 42 -9 58t-63 18v47h259l107 -349q17 -52 27 -135h4q20 109 27 135l95 349h258z" />
    <glyph glyph-name="N" unicode="N" horiz-adv-x="704" 
d="M534 381v194q0 42 -14.5 56.5t-54.5 15.5v48h220v-48q-39 -1 -53 -15.5t-14 -56.5v-575h-112l-245 380q-52 81 -83 149h-4q9 -69 9 -153v-259q0 -42 14.5 -56.5t54.5 -14.5v-46h-223v46q40 0 54 14.5t14 56.5v458q0 42 -14 56.5t-54 15.5v48h231l212 -333q42 -66 66 -130
h5q-9 69 -9 149z" />
    <glyph glyph-name="O" unicode="O" horiz-adv-x="706" 
d="M354 -12q-150 0 -231.5 92.5t-81.5 259.5q0 183 84.5 275t227.5 92q147 0 229.5 -95t82.5 -274q0 -167 -82 -258.5t-229 -91.5zM353 636q-73 0 -105.5 -64t-32.5 -223q0 -165 33 -230.5t106 -65.5q69 0 103 62t34 228q0 161 -32.5 227t-105.5 66z" />
    <glyph glyph-name="P" unicode="P" horiz-adv-x="605" 
d="M254 267v-149q0 -43 17 -57.5t68 -14.5v-46h-310v46q40 0 54 14.5t14 56.5v458q0 42 -14 56.5t-54 15.5v48h318q249 0 249 -212q0 -94 -57 -155t-190 -61h-95zM429 481q0 79 -25.5 111t-90.5 32h-59v-283h67q60 0 84 30t24 110z" />
    <glyph glyph-name="Q" unicode="Q" horiz-adv-x="707" 
d="M607 -141q-41 0 -81.5 19t-68.5 42t-67.5 45t-77.5 26q-131 14 -201 102t-70 247q0 183 84.5 275t227.5 92q147 0 229.5 -95t82.5 -274q0 -128 -53.5 -216t-142.5 -106q11 -2 75 -20.5t93 -18.5q33 0 63 7l-27 -110q-21 -15 -66 -15zM353 636q-73 0 -105.5 -64
t-32.5 -223q0 -165 33 -230.5t106 -65.5q69 0 103 62t34 228q0 161 -32.5 227t-105.5 66z" />
    <glyph glyph-name="R" unicode="R" horiz-adv-x="662" 
d="M399 313v-4q71 -19 109 -71q34 -48 76 -134q16 -33 29.5 -45t46.5 -13v-46h-202q-54 127 -97 207q-26 47 -47.5 64t-59.5 21v-175q0 -41 14.5 -56t53.5 -15v-46h-293v46q40 0 54 14.5t14 56.5v458q0 42 -14 56.5t-54 15.5v48h317q115 0 180.5 -48t65.5 -152
q0 -88 -53 -132.5t-140 -49.5zM425 494q0 71 -25.5 100.5t-83.5 29.5h-62v-262h60q59 0 85 28t26 104z" />
    <glyph glyph-name="S" unicode="S" horiz-adv-x="551" 
d="M251 -13q-125 0 -222 56v133h105q7 -69 37.5 -99.5t88.5 -30.5q118 0 118 111q0 47 -23.5 73t-83.5 42l-71 19q-83 22 -124.5 68t-41.5 132q0 105 64.5 160.5t176.5 55.5q121 0 206 -49v-138h-102q-7 61 -33 92t-83 31q-48 0 -73 -25.5t-25 -70.5q0 -42 21.5 -66.5
t74.5 -37.5l68 -17q187 -48 187 -215q0 -108 -68.5 -166t-196.5 -58z" />
    <glyph glyph-name="T" unicode="T" horiz-adv-x="609" 
d="M27 695h554l11 -186h-75q-17 72 -31.5 93.5t-59.5 21.5h-43v-507q0 -43 16.5 -57t62.5 -14v-46h-315v46q46 0 62.5 14t16.5 57v507h-43q-20 0 -33 -4.5t-21 -10t-15 -23.5t-10.5 -31t-11.5 -46h-76z" />
    <glyph glyph-name="U" unicode="U" horiz-adv-x="690" 
d="M518 227v348q0 42 -14 56.5t-56 15.5v48h219v-48q-39 -1 -52.5 -15.5t-13.5 -56.5v-350q0 -237 -253 -237q-134 0 -196 55.5t-62 177.5v354q0 42 -14 56.5t-53 15.5v48h294v-48q-41 -1 -55.5 -15.5t-14.5 -56.5v-351q0 -85 31.5 -120t101.5 -35q69 0 103.5 36.5
t34.5 121.5z" />
    <glyph glyph-name="V" unicode="V" horiz-adv-x="698" 
d="M413 0h-128l-200 584q-13 37 -25 48.5t-41 15.5v47h288v-47q-58 0 -58 -37q0 -10 5 -23l98 -323q19 -65 29 -129h6q7 53 30 131l97 321q4 11 4 23q0 37 -61 37v47h222v-47q-33 -4 -47.5 -16t-26.5 -50z" />
    <glyph glyph-name="W" unicode="W" horiz-adv-x="955" 
d="M585 0l-84 328q-17 68 -25 148h-5q-15 -99 -27 -149l-80 -327h-148l-133 579q-9 38 -22.5 51.5t-43.5 17.5v47h282v-47q-58 -1 -58 -40q0 -11 2 -18l59 -290q16 -79 20 -162h5q24 138 30 162l94 395h106l100 -393q27 -107 34 -163h6q4 67 23 162l58 282q3 15 3 24
q0 22 -15 31t-46 10v47h218v-47q-32 -4 -47 -17.5t-24 -51.5l-135 -579h-147z" />
    <glyph glyph-name="X" unicode="X" horiz-adv-x="689" 
d="M558 584l-138 -206l167 -267q22 -35 38 -48t43 -17v-46h-304v46q53 2 53 33q0 12 -10 28l-103 174h-5l-102 -176q-9 -13 -9 -26q0 -30 53 -33v-46h-220v46q30 4 49 18t41 51l145 234l-147 237q-22 35 -35.5 46.5t-38.5 15.5v47h293v-47q-53 0 -53 -32q0 -10 9 -28
l88 -148h5l89 146q10 20 10 30q0 32 -51 32v47h215v-47q-28 -4 -43.5 -16.5t-38.5 -47.5z" />
    <glyph glyph-name="Y" unicode="Y" horiz-adv-x="655" 
d="M365 360h5l98 224q9 25 9 34q0 30 -51 30v47h213v-47q-31 -4 -46.5 -16.5t-34.5 -51.5l-151 -313v-150q0 -42 16 -56.5t62 -14.5v-46h-312v46q46 0 61.5 14t15.5 57v148l-159 318q-18 36 -33 48.5t-43 16.5v47h285v-47q-48 0 -48 -32q0 -14 9 -33z" />
    <glyph glyph-name="Z" unicode="Z" horiz-adv-x="567" 
d="M534 639l-334 -572h136q56 0 82 27t41 96h75l-12 -190h-496v56l337 573h-125q-48 0 -70.5 -25.5t-38.5 -87.5h-77l9 179h473v-56z" />
    <glyph glyph-name="bracketleft" unicode="[" horiz-adv-x="360" 
d="M331 -155h-241v928h241v-56h-106v-816h106v-56z" />
    <glyph glyph-name="backslash" unicode="\" horiz-adv-x="423" 
d="M142 768l260 -917h-96l-260 917h96z" />
    <glyph glyph-name="bracketright" unicode="]" horiz-adv-x="360" 
d="M270 -155h-241v56h106v816h-106v56h241v-928z" />
    <glyph glyph-name="asciicircum" unicode="^" horiz-adv-x="604" 
d="M539 310h-103l-136 291l-133 -291h-102l189 398h96z" />
    <glyph glyph-name="underscore" unicode="_" horiz-adv-x="496" 
d="M498 -125h-500v73h500v-73z" />
    <glyph glyph-name="grave" unicode="`" horiz-adv-x="426" 
d="M346 593l-26 -35l-240 96l78 125z" />
    <glyph glyph-name="a" unicode="a" horiz-adv-x="540" 
d="M464 150q0 -56 12 -71.5t52 -17.5v-43q-39 -24 -102 -24q-90 0 -103 70q-15 -32 -50 -55t-89 -23q-71 0 -115 37t-44 111q0 167 246 167q22 0 48 -2v46q0 59 -16.5 84.5t-55.5 25.5q-40 0 -57 -23t-23 -68h-110v102q96 56 216 56q90 0 142.5 -41.5t52.5 -126.5
q0 -7 -2 -79t-2 -125zM317 243h-35q-104 0 -104 -90q0 -41 15 -57.5t45 -16.5q47 0 76 37z" />
    <glyph glyph-name="b" unicode="b" horiz-adv-x="599" 
d="M406 247q0 97 -23.5 136t-70.5 39q-55 0 -92 -40v-271q34 -37 87 -37q49 0 74 37t25 136zM187 60q-11 -43 -31 -60h-98q13 35 13 117v461q0 53 -12.5 68t-51.5 17v44l179 27h15q19 -32 19 -99v-192q43 78 146 78q93 0 145 -66t52 -196q0 -137 -62 -204t-167 -67
q-106 0 -147 72z" />
    <glyph glyph-name="c" unicode="c" horiz-adv-x="491" 
d="M456 481v-110h-111q-3 50 -13.5 69t-39.5 19q-43 0 -73 -43t-30 -147q0 -198 135 -198q58 0 118 36l27 -38q-69 -81 -190 -81q-106 0 -175 66t-69 192q0 130 73.5 202.5t183.5 72.5q103 0 164 -40z" />
    <glyph glyph-name="d" unicode="d" horiz-adv-x="611" 
d="M391 68q-21 -36 -63 -58t-92 -22q-92 0 -146.5 65.5t-54.5 197.5q0 135 62.5 202.5t166.5 67.5q79 0 119 -49v106q0 53 -13 68t-51 17v44l186 27h26v-585q0 -53 11.5 -67.5t52.5 -17.5v-41l-162 -36h-15q-23 26 -27 81zM197 262q0 -101 23 -141.5t71 -40.5q50 0 92 42
v278q-32 37 -86 37q-49 0 -74.5 -38t-25.5 -137z" />
    <glyph glyph-name="e" unicode="e" horiz-adv-x="529" 
d="M333 74q68 0 133 35l24 -41q-82 -80 -209 -80q-116 0 -181 70.5t-65 197.5q0 125 66.5 195.5t176.5 70.5q221 0 221 -246v-43h-304q3 -85 34.5 -122t103.5 -37zM279 460q-39 0 -58.5 -35t-24.5 -124h155q0 90 -16 124.5t-56 34.5z" />
    <glyph glyph-name="f" unicode="f" horiz-adv-x="350" 
d="M238 433v-318q0 -43 14.5 -56t65.5 -14v-45h-290v45q38 1 49.5 14t11.5 56v318h-61v51l61 25v73q0 78 50.5 118.5t138.5 40.5q87 0 136 -22l-3 -105h-86q-3 60 -41 60q-47 0 -47 -70v-95h121l-16 -76h-104z" />
    <glyph glyph-name="g" unicode="g" horiz-adv-x="548" 
d="M257 -198q-109 0 -173 27.5t-64 78.5q0 24 15 42.5t37 27.5l99 1q-12 -22 -12 -48q0 -36 24 -52t79 -16q117 0 117 77q0 37 -29 51t-108 16q-77 2 -110 7q-38 4 -56.5 28t-18.5 59q0 37 29.5 64.5t81.5 41.5q-62 13 -96.5 51.5t-34.5 95.5q0 79 58 123.5t157 44.5
q40 0 104 -17q36 -9 57 -9q46 0 102 48l51 -95q-42 -29 -82 -29q-32 0 -66 14q46 -32 46 -89q0 -28 -9.5 -52.5t-32.5 -47.5t-69.5 -36.5t-111.5 -14.5h-12q-35 -17 -35 -37q0 -22 28 -23l96 -4q101 -5 148 -37.5t47 -110.5q0 -91 -69.5 -135.5t-186.5 -44.5zM251 253
q35 0 51.5 23.5t16.5 76.5q0 59 -16 83t-52 24q-33 0 -49.5 -24.5t-16.5 -79.5q0 -103 66 -103z" />
    <glyph glyph-name="h" unicode="h" horiz-adv-x="620" 
d="M230 635v-198q75 84 171 84q65 0 104.5 -38.5t39.5 -112.5v-255q0 -43 11.5 -56t48.5 -14v-45h-269v45q38 1 49.5 14t11.5 54v222q0 81 -66 81q-52 0 -101 -38v-265q0 -41 11.5 -54t49.5 -14v-45h-270v45q37 1 48.5 14t11.5 56v463q0 53 -12.5 68t-51.5 17v44l180 27h15
q18 -30 18 -99z" />
    <glyph glyph-name="i" unicode="i" horiz-adv-x="315" 
d="M297 0h-271v45q38 1 49.5 14t11.5 56v238q0 54 -11 68.5t-49 16.5v44l187 35h22v-402q0 -43 11 -56t50 -14v-45zM244 650q0 -37 -26 -62.5t-63 -25.5q-36 0 -62 25.5t-26 62.5q0 36 26.5 61.5t63.5 25.5t62 -25.5t25 -61.5z" />
    <glyph glyph-name="j" unicode="j" horiz-adv-x="306" 
d="M86 16v337q0 54 -11.5 68.5t-49.5 16.5v44l187 35h22v-501q0 -174 -199 -222l-29 44q45 21 62.5 60.5t17.5 117.5zM243 650q0 -37 -26 -62.5t-64 -25.5q-36 0 -62 25.5t-26 62.5q0 36 26.5 61.5t64.5 25.5q37 0 62 -25.5t25 -61.5z" />
    <glyph glyph-name="k" unicode="k" horiz-adv-x="588" 
d="M21 0v45q37 1 48.5 14t11.5 56v463q0 53 -12.5 68t-51.5 17v44l180 27h15q18 -40 18 -99v-522q0 -41 11.5 -54t49.5 -14v-45h-270zM401 0l-163 260l129 141q24 26 14.5 43.5t-45.5 18.5v46h229v-46q-29 -4 -51.5 -18t-52.5 -46l-89 -94l133 -205q20 -31 37 -41.5
t45 -13.5v-45h-186z" />
    <glyph glyph-name="l" unicode="l" horiz-adv-x="312" 
d="M231 635v-519q0 -43 11.5 -56.5t50.5 -14.5v-45h-272v45q38 1 50 14t12 56v463q0 53 -13 68t-53 17v44l181 27h15q18 -36 18 -99z" />
    <glyph glyph-name="m" unicode="m" horiz-adv-x="911" 
d="M525 433q71 88 169 88q63 0 102.5 -38.5t39.5 -112.5v-255q0 -43 11.5 -56t48.5 -14v-45h-264v45q36 0 46 12.5t10 54.5v223q0 81 -60 81q-43 0 -90 -33v-271q0 -41 9.5 -53.5t44.5 -13.5v-45h-259v45q36 0 46 12.5t10 54.5v223q0 81 -60 81q-41 0 -93 -36v-268
q0 -42 9.5 -54.5t46.5 -12.5v-45h-266v45q38 1 49.5 14t11.5 56v238q0 54 -11 68.5t-49 16.5v44l161 40h15q24 -48 27 -87q71 86 165 86q44 0 79 -23.5t51 -64.5z" />
    <glyph glyph-name="n" unicode="n" horiz-adv-x="625" 
d="M551 370v-255q0 -43 11.5 -56t47.5 -14v-45h-268v45q38 1 49 14t11 54v222q0 81 -66 81q-51 0 -100 -38v-265q0 -41 11.5 -54t49.5 -14v-45h-271v45q38 1 49.5 14t11.5 56v238q0 54 -11 68.5t-49 16.5v44l161 40h15q25 -40 29 -90q78 89 174 89q65 0 105 -38.5t40 -112.5
z" />
    <glyph glyph-name="o" unicode="o" horiz-adv-x="578" 
d="M543 262q0 -135 -72.5 -205t-184.5 -70q-118 0 -184.5 70t-66.5 196q0 122 70 195.5t189 73.5q113 0 181 -66.5t68 -193.5zM380 266q0 105 -22 148.5t-69 43.5q-49 0 -70 -45.5t-21 -161.5q0 -108 20 -155t73 -47q45 0 67 51.5t22 165.5z" />
    <glyph glyph-name="p" unicode="p" horiz-adv-x="615" 
d="M422 241q0 101 -23 141t-71 40q-53 0 -92 -40v-278q30 -37 84 -37q51 0 76.5 38t25.5 136zM230 437q22 37 61.5 60.5t88.5 23.5q93 0 146.5 -65.5t53.5 -196.5q0 -135 -62.5 -202.5t-169.5 -67.5q-74 0 -112 45v-115q0 -42 12 -55.5t51 -14.5v-45h-273v45q38 1 49.5 14
t11.5 56v434q0 54 -11 68.5t-49 16.5v44l161 40h15q24 -43 27 -85z" />
    <glyph glyph-name="q" unicode="q" horiz-adv-x="600" 
d="M197 262q0 -101 23 -141.5t71 -40.5q50 0 92 42v278q-32 37 -86 37q-49 0 -74.5 -38t-25.5 -137zM408 461q12 41 41 58h95q-12 -45 -12 -140v-460q0 -43 11.5 -56t48.5 -14v-45h-272v45q39 1 51 14.5t12 55.5v147q-49 -78 -147 -78q-92 0 -146.5 65.5t-54.5 197.5
q0 134 65.5 202t170.5 68q90 0 137 -60z" />
    <glyph glyph-name="r" unicode="r" horiz-adv-x="412" 
d="M234 394q18 61 59 94.5t85 33.5q21 0 37 -6l-28 -151q-29 8 -55 8q-56 0 -76 -21.5t-20 -80.5v-156q0 -43 14.5 -56t64.5 -14v-45h-289v45q38 1 49.5 14t11.5 56v238q0 54 -11 68.5t-49 16.5v44l161 40h15q29 -53 31 -128z" />
    <glyph glyph-name="s" unicode="s" horiz-adv-x="467" 
d="M218 -13q-106 0 -186 43v108h99q5 -50 29.5 -69.5t69.5 -19.5q83 0 83 63q0 30 -17 45.5t-53 23.5l-77 16q-132 29 -132 156q0 81 57 125t144 44q92 0 173 -36v-106h-92q-11 77 -93 77q-72 0 -72 -59q0 -24 14 -37.5t45 -20.5l73 -17q155 -34 155 -166
q0 -81 -57.5 -125.5t-162.5 -44.5z" />
    <glyph glyph-name="t" unicode="t" horiz-adv-x="358" 
d="M344 509l-16 -76h-104v-269q0 -59 10.5 -80t46.5 -21q26 0 57 12l15 -52q-57 -36 -136 -36q-72 0 -107 32.5t-35 111.5v302h-60v51l67 27q10 78 46 132l104 13q-9 -65 -9 -147h121z" />
    <glyph glyph-name="u" unicode="u" horiz-adv-x="607" 
d="M527 517v-368q0 -53 11 -67.5t51 -17.5v-41l-160 -36h-15q-23 40 -27 81q-66 -81 -169 -81q-66 0 -104 35t-38 107v224q0 54 -11 68.5t-48 16.5v44l184 35h24v-353q0 -81 64 -81q46 0 90 37v233q0 54 -11 68.5t-49 16.5v44l184 35h24z" />
    <glyph glyph-name="v" unicode="v" horiz-adv-x="552" 
d="M335 -5h-115l-156 406q-14 36 -26 47t-38 15v46h271v-46q-57 -1 -57 -34q0 -10 6 -25l68 -197q15 -44 19 -77h6q2 19 20 77l64 197q5 17 5 24q0 34 -59 35v46h209v-46q-30 -4 -43.5 -15.5t-26.5 -46.5z" />
    <glyph glyph-name="w" unicode="w" horiz-adv-x="814" 
d="M379 233l-67 -238h-125l-121 399q-12 40 -24.5 52.5t-40.5 16.5v46h266v-46q-55 -1 -55 -36q0 -9 3 -23l49 -185q12 -48 16 -85h6q7 55 15 85l75 290h108l93 -290q8 -24 18 -85h5q13 71 15 80l44 191q3 11 3 23q0 34 -56 35v46h207v-46q-32 -4 -46 -16.5t-24 -48.5
l-112 -403h-123l-80 238q-15 45 -22 105h-5q-6 -46 -22 -105z" />
    <glyph glyph-name="x" unicode="x" horiz-adv-x="560" 
d="M246 200l-68 -101q-10 -14 -10 -27q0 -26 43 -27v-45h-196v45q28 3 42 14t45 54l104 144l-100 141q-30 41 -42 51t-40 14v46h264v-46q-35 -1 -35 -21q0 -12 12 -30l53 -80h4l53 80q9 15 9 27q0 23 -38 24v46h194v-46q-30 -3 -44.5 -15.5t-42.5 -49.5l-92 -127l109 -158
q27 -40 42 -52.5t45 -15.5v-45h-264v45q38 2 38 23q0 14 -11 29l-70 103h-4z" />
    <glyph glyph-name="y" unicode="y" horiz-adv-x="552" 
d="M113 -207l-50 96q77 14 124 39t71 80l-58 -5q-20 79 -59 184l-77 212q-13 36 -25 48t-39 16v46h271v-46q-34 -1 -47 -7.5t-13 -19.5q0 -9 6 -24l69 -213q10 -30 20 -86h5q7 36 21 81l68 218q4 12 4 22q0 16 -12.5 21.5t-48.5 7.5v46h209v-46q-30 -4 -43.5 -15.5
t-26.5 -46.5l-145 -398q-34 -94 -86.5 -146t-137.5 -64z" />
    <glyph glyph-name="z" unicode="z" horiz-adv-x="499" 
d="M478 153l-20 -153h-417v60l259 386h-89q-51 0 -68.5 -17t-25.5 -74h-60v154h414v-58l-262 -389h80q65 0 87 14.5t43 76.5h59z" />
    <glyph glyph-name="braceleft" unicode="{" horiz-adv-x="390" 
d="M259 627v-185q0 -36 -9.5 -62t-25 -40t-29 -20.5t-27.5 -8.5v-4q14 -2 27.5 -8.5t29 -20t25 -39.5t9.5 -61v-187q0 -95 75 -95h31v-51h-95q-139 0 -139 140v208q0 49 -26 70t-80 21v49q54 0 80 21t26 70v209q0 140 139 140h95v-51h-31q-75 0 -75 -95z" />
    <glyph glyph-name="bar" unicode="|" horiz-adv-x="269" 
d="M179 -149h-89v917h89v-917z" />
    <glyph glyph-name="braceright" unicode="}" horiz-adv-x="390" 
d="M131 442v185q0 95 -75 95h-31v51h95q139 0 139 -140v-209q0 -49 26 -70t80 -21v-49q-54 0 -80 -21t-26 -70v-208q0 -140 -139 -140h-95v50h31q75 0 75 95v188q0 65 29 94t62 35v4q-14 2 -27.5 8.5t-29 20.5t-25 40t-9.5 62z" />
    <glyph glyph-name="asciitilde" unicode="~" horiz-adv-x="577" 
d="M377 343q66 0 91 51l38 -18q-15 -62 -50 -102.5t-81 -40.5q-34 0 -97 17.5t-84 17.5q-61 0 -87 -54l-36 17q9 62 44 105t82 43q33 0 94 -18t86 -18z" />
    <glyph glyph-name="uni00A0" unicode="&#xa0;" horiz-adv-x="225" 
 />
    <glyph glyph-name="exclamdown" unicode="&#xa1;" horiz-adv-x="315" 
d="M65 -188l46 481h93l47 -464zM66 435q0 38 27 65t65 27t64.5 -27t26.5 -65q0 -37 -26.5 -64t-64.5 -27t-65 27t-27 64z" />
    <glyph glyph-name="cent" unicode="&#xa2;" horiz-adv-x="520" 
d="M320 -101h-55v89q-102 5 -166 71t-64 187t65 193t165 81v85h55v-84q105 -6 157 -40v-110h-100q-4 75 -57 89v-395q76 2 143 50l27 -35q-63 -79 -170 -90v-91zM183 269q0 -165 82 -196v384q-82 -23 -82 -188z" />
    <glyph glyph-name="sterling" unicode="&#xa3;" horiz-adv-x="618" 
d="M273 67h103q50 0 77 27.5t41 97.5h77l-15 -192h-523v46q46 0 64.5 14.5t18.5 56.5v190h-80v60h80v90q0 113 71 168t175 55q58 0 105 -14t69 -33v-116h-112q-3 53 -18 76.5t-49 23.5q-44 0 -64 -31t-20 -96v-123h191v-60h-191v-240z" />
    <glyph glyph-name="currency" unicode="&#xa4;" horiz-adv-x="480" 
d="M240 101q-42 0 -72 11l-52 -81l-58 39l49 76q-57 52 -57 139t56 140l-48 74l58 39l51 -78q33 12 73 12q36 0 69 -11l50 77l59 -39l-47 -72q59 -53 59 -142q0 -90 -61 -141l49 -74l-59 -39l-52 79q-30 -9 -67 -9zM239 410q-46 0 -64.5 -30t-18.5 -88q0 -68 19 -99t64 -31
q46 0 65 31t19 99q0 58 -19 88t-65 30z" />
    <glyph glyph-name="yen" unicode="&#xa5;" horiz-adv-x="647" 
d="M579 196h-175v-80q0 -43 15.5 -57t61.5 -15v-44h-311v44q46 1 61.5 15t15.5 57v80h-175v56h175v13l-28 54h-147v56h119l-104 208q-18 36 -33 48.5t-42 16.5v47h285v-47q-49 0 -49 -32q0 -14 9 -33l104 -223h6l97 224q9 21 9 34q0 30 -50 30v47h213v-47
q-31 -4 -46.5 -16.5t-34.5 -51.5l-99 -205h123v-56h-151l-24 -52v-15h175v-56z" />
    <glyph glyph-name="brokenbar" unicode="&#xa6;" horiz-adv-x="274" 
d="M179 -149h-89v400h89v-400zM179 364h-89v400h89v-400z" />
    <glyph glyph-name="section" unicode="&#xa7;" horiz-adv-x="544" 
d="M508 341q0 -119 -130 -160q89 -51 89 -148q0 -80 -56 -123t-160 -43q-107 0 -184 41v108h99q5 -50 29.5 -70t67.5 -20q81 0 81 63q0 28 -16.5 44.5t-52.5 29.5l-107 38q-66 24 -100 61t-34 102q0 123 129 158q-91 44 -91 145q0 82 56.5 127t141.5 45q92 0 171 -35v-106
h-93q-11 76 -90 76q-33 0 -52 -16.5t-19 -46.5q0 -24 15 -38t46 -25l103 -35q77 -27 117 -66.5t40 -105.5zM317 369l-92 29q-32 -8 -52 -30.5t-20 -52.5q0 -50 59 -72l90 -33q82 16 82 81q0 58 -67 78z" />
    <glyph glyph-name="dieresis" unicode="&#xa8;" horiz-adv-x="547" 
d="M244 646q0 -33 -24 -56.5t-58 -23.5t-58 23.5t-24 56.5q0 34 24 58t59 24q34 0 57.5 -23.5t23.5 -58.5zM467 646q0 -33 -24 -56.5t-58 -23.5t-58 23.5t-24 56.5q0 34 24 58t59 24q34 0 57.5 -23.5t23.5 -58.5z" />
    <glyph glyph-name="copyright" unicode="&#xa9;" horiz-adv-x="801" 
d="M325 355q0 -79 19 -121t67 -42q32 0 47 15t20 51h74v-83q-58 -32 -140 -32q-213 0 -213 203q0 101 52.5 154.5t157.5 53.5q86 0 140 -33v-82h-79q-5 38 -17 55t-44 17q-49 0 -66.5 -38.5t-17.5 -117.5zM401 31q129 0 215 86t86 226q0 142 -86 228t-215 86t-215 -86
t-86 -228q0 -140 86 -226t215 -86zM401 -12q-154 0 -255 98t-101 258q0 157 103 257t253 100t253 -100t103 -257q0 -160 -101 -258t-255 -98z" />
    <glyph glyph-name="ordfeminine" unicode="&#xaa;" horiz-adv-x="429" 
d="M362 462q0 -42 8 -53t37 -12v-35q-30 -18 -85 -18q-64 0 -76 53q-26 -59 -104 -59q-53 0 -87.5 28.5t-34.5 83.5q0 126 180 126q23 0 43 -2v34q0 43 -12 62.5t-41 19.5t-40.5 -16.5t-13.5 -50.5h-92v77q68 42 164 42q69 0 113 -31.5t44 -94.5q0 -6 -1.5 -60t-1.5 -94z
M242 531q-18 2 -26 2q-71 0 -71 -66q0 -57 42 -57q32 0 52 28z" />
    <glyph glyph-name="guillemotleft" unicode="&#xab;" horiz-adv-x="609" 
d="M194 248l113 -179l-52 -46l-211 228l211 229l52 -46zM434 248l113 -179l-53 -46l-210 228l210 229l53 -46z" />
    <glyph glyph-name="logicalnot" unicode="&#xac;" horiz-adv-x="506" 
d="M55 228v73h396v-232h-77v159h-319z" />
    <glyph glyph-name="uni00AD" unicode="&#xad;" horiz-adv-x="348" 
d="M300 222h-252v115h252v-115z" />
    <glyph glyph-name="registered" unicode="&#xae;" horiz-adv-x="801" 
d="M409 185v-35h-188v35q30 0 36.5 10.5t6.5 45.5v214q0 35 -6.5 45.5t-36.5 10.5v37h182q75 0 114 -24t39 -84q0 -57 -28.5 -79.5t-84.5 -25.5v-3q47 -8 69 -47q14 -22 35 -66q11 -23 19 -28.5t31 -5.5v-35h-132q-6 16 -14 34l-16.5 37.5l-12.5 28.5q-22 49 -30.5 61
t-27.5 13v-83q0 -35 7.5 -45.5t37.5 -10.5zM452 436q0 38 -15 52t-57 14h-16v-139h27q34 0 47.5 15.5t13.5 57.5zM401 31q129 0 215 86t86 226q0 142 -86 228t-215 86t-215 -86t-86 -228q0 -140 86 -226t215 -86zM401 -12q-154 0 -255 98t-101 258q0 157 103 257t253 100
t253 -100t103 -257q0 -160 -101 -258t-255 -98z" />
    <glyph glyph-name="macron" unicode="&#xaf;" horiz-adv-x="462" 
d="M382 601h-302v78h302v-78z" />
    <glyph glyph-name="degree" unicode="&#xb0;" horiz-adv-x="418" 
d="M373 525q0 -77 -45.5 -122.5t-118.5 -45.5q-77 0 -120.5 45.5t-43.5 124.5q0 77 44.5 123t117.5 46q78 0 122 -45.5t44 -125.5zM289 523q0 58 -19.5 82t-60.5 24q-79 0 -79 -97q0 -57 19.5 -81t61.5 -24q78 0 78 96z" />
    <glyph glyph-name="plusminus" unicode="&#xb1;" horiz-adv-x="506" 
d="M216 507h77v-142h158v-73h-158v-151h-77v151h-161v73h161v142zM55 24v74h396v-74h-396z" />
    <glyph glyph-name="twosuperior" unicode="&#xb2;" horiz-adv-x="384" 
d="M180 661q70 0 111 -31t41 -90q0 -61 -39.5 -99t-127.5 -85l-43 -23h232l-11 -83h-323v60l69 61q67 59 88 87t21 70q0 29 -18 44t-44 15q-48 0 -85 -26l-23 36q62 64 152 64z" />
    <glyph glyph-name="threesuperior" unicode="&#xb3;" horiz-adv-x="353" 
d="M128 598q-41 0 -82 -25l-21 38q62 50 148 50q61 0 99 -26t38 -73q0 -37 -29 -62.5t-77 -35.5q54 -3 86 -31t32 -69q0 -66 -63.5 -100t-152.5 -34q-49 0 -86 10l-8 48q32 -7 70 -7q50 0 78.5 23t28.5 63q0 67 -73 67q-18 0 -30 -1v54q13 -1 35 -1q34 0 50.5 13.5
t16.5 47.5q0 25 -16.5 38t-43.5 13z" />
    <glyph glyph-name="acute" unicode="&#xb4;" horiz-adv-x="426" 
d="M106 558l-26 35l188 186l78 -125z" />
    <glyph glyph-name="mu" unicode="&#xb5;" horiz-adv-x="598" 
d="M48 -205l-5 30q14 69 14 186v155q-1 213 -5 336l114 19h39l-1 -165v-186q0 -90 58 -90q53 0 96 46v376l111 19h38v-398q0 -32 11 -45.5t36 -13.5q20 0 36 4v-52q-48 -28 -112 -28q-83 0 -108 74q-46 -74 -121 -74q-39 0 -59 14l-4 -3q18 -49 18 -124v-59z" />
    <glyph glyph-name="paragraph" unicode="&#xb6;" horiz-adv-x="662" 
d="M552 574v-693h-73v753h-81v-753h-73v403h-90q-105 0 -160 48.5t-55 159.5q0 108 50 155.5t166 47.5h396v-45q-49 -1 -64.5 -16.5t-15.5 -59.5zM208 492q0 -80 16.5 -112.5t64.5 -32.5h36v287h-36q-50 0 -65.5 -27.5t-15.5 -114.5z" />
    <glyph glyph-name="periodcentered" unicode="&#xb7;" horiz-adv-x="301" 
d="M243 282q0 -40 -27.5 -67.5t-65.5 -27.5t-65.5 27.5t-27.5 67.5q0 38 27.5 65.5t65.5 27.5t65.5 -27.5t27.5 -65.5z" />
    <glyph glyph-name="cedilla" unicode="&#xb8;" horiz-adv-x="288" 
d="M256 -119q0 -85 -118 -85q-61 0 -98 25l16 39q28 -18 67 -18q35 0 35 28q0 30 -59 32l1 21l27 94l48 -6l-15 -52q96 -6 96 -78z" />
    <glyph glyph-name="onesuperior" unicode="&#xb9;" horiz-adv-x="350" 
d="M250 653v-297q0 -41 14.5 -54.5t65.5 -14.5v-37h-283v37q54 2 70 15t16 55v204q-36 -23 -84 -38l-19 39l148 91h72z" />
    <glyph glyph-name="ordmasculine" unicode="&#xba;" horiz-adv-x="441" 
d="M414 545q0 -102 -55.5 -154.5t-140.5 -52.5q-90 0 -140.5 52.5t-50.5 147.5q0 92 53.5 147.5t143.5 55.5q87 0 138.5 -50t51.5 -146zM287 548q0 78 -16 111t-49 33q-35 0 -50 -34t-15 -120q0 -81 14.5 -116.5t51.5 -35.5q64 0 64 162z" />
    <glyph glyph-name="guillemotright" unicode="&#xbb;" horiz-adv-x="609" 
d="M302 69l113 179l-113 186l53 46l210 -229l-210 -228zM63 69l113 179l-113 186l52 46l210 -229l-210 -228z" />
    <glyph glyph-name="onequarter" unicode="&#xbc;" horiz-adv-x="973" 
d="M250 653v-297q0 -41 14.5 -54.5t65.5 -14.5v-37h-283v37q54 2 70 15t16 55v204q-36 -23 -84 -38l-19 39l148 91h72zM759 730l-487 -853h-69l487 853h69zM779 -12v102h-183v50l139 262h101l-159 -258h102q0 99 38 150l78 11v-161h52v-54h-52v-93z" />
    <glyph glyph-name="onehalf" unicode="&#xbd;" horiz-adv-x="997" 
d="M250 653v-297q0 -41 14.5 -54.5t65.5 -14.5v-37h-283v37q54 2 70 15t16 55v204q-36 -23 -84 -38l-19 39l148 91h72zM759 730l-487 -853h-69l487 853h69zM797 411q69 0 110.5 -31t41.5 -90q0 -62 -41 -100.5t-131 -85.5l-39 -21h233l-12 -83h-322v60l69 61q67 59 88 87
t21 70q0 29 -18 44t-44 15q-49 0 -86 -26l-22 36q60 64 152 64z" />
    <glyph glyph-name="threequarters" unicode="&#xbe;" horiz-adv-x="955" 
d="M128 598q-41 0 -82 -25l-21 38q62 50 148 50q61 0 99 -26t38 -73q0 -37 -29 -62.5t-77 -35.5q54 -3 86 -31t32 -69q0 -66 -63.5 -100t-152.5 -34q-49 0 -86 10l-8 48q32 -7 70 -7q50 0 78.5 23t28.5 63q0 67 -73 67q-18 0 -30 -1v54q13 -1 35 -1q34 0 50.5 13.5
t16.5 47.5q0 25 -16.5 38t-43.5 13zM741 730l-487 -853h-70l487 853h70zM760 -12v102h-182v50l139 262h100l-158 -258h101q0 97 38 150l79 11v-161h52v-54h-52v-93z" />
    <glyph glyph-name="questiondown" unicode="&#xbf;" horiz-adv-x="469" 
d="M164 433q0 39 28 66.5t66 27.5t65 -27.5t27 -66.5q0 -38 -27 -64.5t-65 -26.5t-66 27t-28 64zM256 -122q35 0 56 24.5t24 70.5h99v-116q-34 -21 -86.5 -35t-104.5 -14q-93 0 -150 39.5t-57 119.5q0 32 10 59.5t30 48t33.5 31t35.5 25.5q50 34 67.5 55t17.5 58q0 23 -5 48
h65q33 -38 33 -91q0 -61 -68 -123q-24 -22 -35.5 -34.5t-23 -37.5t-11.5 -54q0 -33 19 -53.5t51 -20.5z" />
    <glyph glyph-name="Agrave" unicode="&#xc0;" horiz-adv-x="671" 
d="M435 101l-27 86h-214l-25 -86q-4 -15 -4 -25q0 -18 14 -23t50 -7v-46h-221v46q33 4 47.5 16t26.5 51l189 582h126l199 -582q13 -37 25.5 -50t41.5 -17v-46h-284v46q34 1 47.5 8t13.5 22q0 10 -5 25zM264 428l-49 -167h169l-54 169q-20 61 -30 113h-5q-16 -65 -31 -115z
M440 765l-24 -38l-246 72l64 130z" />
    <glyph glyph-name="Aacute" unicode="&#xc1;" horiz-adv-x="671" 
d="M435 101l-27 86h-214l-25 -86q-4 -15 -4 -25q0 -18 14 -23t50 -7v-46h-221v46q33 4 47.5 16t26.5 51l189 582h126l199 -582q13 -37 25.5 -50t41.5 -17v-46h-284v46q34 1 47.5 8t13.5 22q0 10 -5 25zM264 428l-49 -167h169l-54 169q-20 61 -30 113h-5q-16 -65 -31 -115z
M243 727l-24 38l205 164l65 -130z" />
    <glyph glyph-name="Acircumflex" unicode="&#xc2;" horiz-adv-x="671" 
d="M435 101l-27 86h-214l-25 -86q-4 -15 -4 -25q0 -18 14 -23t50 -7v-46h-221v46q33 4 47.5 16t26.5 51l189 582h126l199 -582q13 -37 25.5 -50t41.5 -17v-46h-284v46q34 1 47.5 8t13.5 22q0 10 -5 25zM264 428l-49 -167h169l-54 169q-20 61 -30 113h-5q-16 -65 -31 -115z
M485 731l-151 77l-151 -77l-25 37l176 173l176 -173z" />
    <glyph glyph-name="Atilde" unicode="&#xc3;" horiz-adv-x="671" 
d="M435 101l-27 86h-214l-25 -86q-4 -15 -4 -25q0 -18 14 -23t50 -7v-46h-221v46q33 4 47.5 16t26.5 51l189 582h126l199 -582q13 -37 25.5 -50t41.5 -17v-46h-284v46q34 1 47.5 8t13.5 22q0 10 -5 25zM264 428l-49 -167h169l-54 169q-20 61 -30 113h-5q-16 -65 -31 -115z
M404 857q51 0 75 46l37 -16q-14 -56 -44 -92.5t-72 -36.5q-33 0 -76 18t-62 18q-46 0 -73 -49l-35 15q9 57 39 96t73 39q31 0 73 -19t65 -19z" />
    <glyph glyph-name="Adieresis" unicode="&#xc4;" horiz-adv-x="671" 
d="M435 101l-27 86h-214l-25 -86q-4 -15 -4 -25q0 -18 14 -23t50 -7v-46h-221v46q33 4 47.5 16t26.5 51l189 582h126l199 -582q13 -37 25.5 -50t41.5 -17v-46h-284v46q34 1 47.5 8t13.5 22q0 10 -5 25zM264 428l-49 -167h169l-54 169q-20 61 -30 113h-5q-16 -65 -31 -115z
M305 817q0 -33 -24 -56.5t-58 -23.5t-58 23.5t-24 56.5q0 34 24 57.5t59 23.5q34 0 57.5 -23t23.5 -58zM528 817q0 -33 -24 -56.5t-58 -23.5t-58 23.5t-24 56.5q0 34 24 57.5t59 23.5t58 -23t23 -58z" />
    <glyph glyph-name="Aring" unicode="&#xc5;" horiz-adv-x="671" 
d="M435 101l-27 86h-214l-25 -86q-4 -15 -4 -25q0 -18 14 -23t50 -7v-46h-221v46q33 4 47.5 16t26.5 51l189 582h126l199 -582q13 -37 25.5 -50t41.5 -17v-46h-284v46q34 1 47.5 8t13.5 22q0 10 -5 25zM264 428l-49 -167h169l-54 169q-20 61 -30 113h-5q-16 -65 -31 -115z
M335 729q-51 0 -84 33t-33 83t33 83t84 33q52 0 85 -33t33 -83t-33 -83t-85 -33zM335 907q-25 0 -40.5 -17.5t-15.5 -44.5q0 -25 15.5 -42t40.5 -17q26 0 41 17t15 42q0 27 -15 44.5t-41 17.5z" />
    <glyph glyph-name="AE" unicode="&#xc6;" horiz-adv-x="933" 
d="M97 108l235 468q11 22 11 36q0 33 -59 35v48h585l12 -169h-75q-18 61 -35.5 79.5t-67.5 18.5h-109v-238h61q47 0 63.5 14t19.5 57h66v-210h-66q-3 41 -19.5 56t-62.5 15h-62v-251h124q51 0 72 24t27 92h76v-183h-519v46q40 0 54.5 14.5t14.5 56.5v108h-195l-65 -126
q-9 -18 -9 -27q0 -23 60 -26v-46h-226v46q34 4 53 16t36 46zM446 624l-160 -325h157v131q0 120 9 194h-6z" />
    <glyph glyph-name="Ccedilla" unicode="&#xc7;" horiz-adv-x="620" 
d="M445 -119q0 -85 -118 -85q-61 0 -98 25l17 39q28 -18 66 -18q36 0 36 28q0 30 -60 32l1 21l19 67q-130 14 -198.5 103.5t-68.5 244.5q0 184 86.5 276.5t236.5 92.5q137 0 214 -50v-136h-108q-13 61 -36 88t-72 27q-75 0 -110.5 -64t-35.5 -228q0 -88 10 -146.5t31 -88.5
t45.5 -41.5t59.5 -11.5q57 0 82.5 27.5t35.5 91.5h103v-132q-32 -24 -93 -39.5t-133 -15.5l-8 -29q96 -6 96 -78z" />
    <glyph glyph-name="Egrave" unicode="&#xc8;" horiz-adv-x="593" 
d="M418 765l-24 -38l-246 72l64 130zM29 0v46q40 0 54 14.5t14 56.5v458q0 42 -14 56.5t-54 15.5v48h501l11 -169h-74q-17 60 -35.5 79t-68.5 19h-109v-238h62q46 0 62.5 14t19.5 57h66v-210h-66q-3 41 -19 56t-62 15h-63v-251h124q51 0 72 24t27 92h76v-183h-524z" />
    <glyph glyph-name="Eacute" unicode="&#xc9;" horiz-adv-x="593" 
d="M196 727l-24 38l205 164l65 -130zM29 0v46q40 0 54 14.5t14 56.5v458q0 42 -14 56.5t-54 15.5v48h501l11 -169h-74q-17 60 -35.5 79t-68.5 19h-109v-238h62q46 0 62.5 14t19.5 57h66v-210h-66q-3 41 -19 56t-62 15h-63v-251h124q51 0 72 24t27 92h76v-183h-524z" />
    <glyph glyph-name="Ecircumflex" unicode="&#xca;" horiz-adv-x="593" 
d="M453 731l-151 77l-151 -77l-25 37l176 173l176 -173zM29 0v46q40 0 54 14.5t14 56.5v458q0 42 -14 56.5t-54 15.5v48h501l11 -169h-74q-17 60 -35.5 79t-68.5 19h-109v-238h62q46 0 62.5 14t19.5 57h66v-210h-66q-3 41 -19 56t-62 15h-63v-251h124q51 0 72 24t27 92h76
v-183h-524z" />
    <glyph glyph-name="Edieresis" unicode="&#xcb;" horiz-adv-x="593" 
d="M29 0v46q40 0 54 14.5t14 56.5v458q0 42 -14 56.5t-54 15.5v48h501l11 -169h-74q-17 60 -35.5 79t-68.5 19h-109v-238h62q46 0 62.5 14t19.5 57h66v-210h-66q-3 41 -19 56t-62 15h-63v-251h124q51 0 72 24t27 92h76v-183h-524zM273 817q0 -33 -24 -56.5t-58 -23.5
t-58 23.5t-24 56.5q0 34 24 57.5t59 23.5q34 0 57.5 -23t23.5 -58zM496 817q0 -33 -24 -56.5t-58 -23.5t-58 23.5t-24 56.5q0 34 24 57.5t59 23.5t58 -23t23 -58z" />
    <glyph glyph-name="Igrave" unicode="&#xcc;" horiz-adv-x="352" 
d="M97 117v458q0 42 -14 56.5t-54 15.5v48h294v-48q-40 -1 -54.5 -15.5t-14.5 -56.5v-458q0 -42 14.5 -56.5t54.5 -14.5v-46h-294v46q40 0 54 14.5t14 56.5zM291 765l-24 -38l-246 72l64 130z" />
    <glyph glyph-name="Iacute" unicode="&#xcd;" horiz-adv-x="352" 
d="M97 117v458q0 42 -14 56.5t-54 15.5v48h294v-48q-40 -1 -54.5 -15.5t-14.5 -56.5v-458q0 -42 14.5 -56.5t54.5 -14.5v-46h-294v46q40 0 54 14.5t14 56.5zM68 727l-24 38l205 164l65 -130z" />
    <glyph glyph-name="Icircumflex" unicode="&#xce;" horiz-adv-x="352" 
d="M97 117v458q0 42 -14 56.5t-54 15.5v48h294v-48q-40 -1 -54.5 -15.5t-14.5 -56.5v-458q0 -42 14.5 -56.5t54.5 -14.5v-46h-294v46q40 0 54 14.5t14 56.5zM326 731l-151 77l-151 -77l-25 37l176 173l176 -173z" />
    <glyph glyph-name="Idieresis" unicode="&#xcf;" horiz-adv-x="352" 
d="M97 117v458q0 42 -14 56.5t-54 15.5v48h294v-48q-40 -1 -54.5 -15.5t-14.5 -56.5v-458q0 -42 14.5 -56.5t54.5 -14.5v-46h-294v46q40 0 54 14.5t14 56.5zM146 817q0 -33 -24 -56.5t-58 -23.5t-58 23.5t-24 56.5q0 34 24 57.5t59 23.5t58 -23t23 -58zM369 817
q0 -33 -24 -56.5t-58 -23.5t-58 23.5t-24 56.5q0 34 24 57.5t59 23.5q34 0 57.5 -23t23.5 -58z" />
    <glyph glyph-name="Eth" unicode="&#xd0;" horiz-adv-x="691" 
d="M28 321v71h69v183q0 42 -14 56.5t-54 15.5v48h290q331 0 331 -351q0 -169 -84 -256.5t-251 -87.5h-286v46q40 0 54 14.5t14 56.5v204h-69zM481 337q0 167 -39.5 227t-134.5 60h-52v-232h116v-71h-116v-254h49q66 0 102.5 20.5t55.5 79.5t19 170z" />
    <glyph glyph-name="Ntilde" unicode="&#xd1;" horiz-adv-x="704" 
d="M426 857q51 0 75 46l37 -16q-14 -56 -44 -92.5t-72 -36.5q-33 0 -76 18t-62 18q-46 0 -73 -49l-35 15q9 57 39 96t73 39q31 0 73 -19t65 -19zM534 381v194q0 42 -14.5 56.5t-54.5 15.5v48h220v-48q-39 -1 -53 -15.5t-14 -56.5v-575h-112l-245 380q-52 81 -83 149h-4
q9 -69 9 -153v-259q0 -42 14.5 -56.5t54.5 -14.5v-46h-223v46q40 0 54 14.5t14 56.5v458q0 42 -14 56.5t-54 15.5v48h231l212 -333q42 -66 66 -130h5q-9 69 -9 149z" />
    <glyph glyph-name="Ograve" unicode="&#xd2;" horiz-adv-x="706" 
d="M468 765l-24 -38l-246 72l64 130zM354 -12q-150 0 -231.5 92.5t-81.5 259.5q0 183 84.5 275t227.5 92q147 0 229.5 -95t82.5 -274q0 -167 -82 -258.5t-229 -91.5zM353 636q-73 0 -105.5 -64t-32.5 -223q0 -165 33 -230.5t106 -65.5q69 0 103 62t34 228q0 161 -32.5 227
t-105.5 66z" />
    <glyph glyph-name="Oacute" unicode="&#xd3;" horiz-adv-x="706" 
d="M245 727l-24 38l205 164l65 -130zM354 -12q-150 0 -231.5 92.5t-81.5 259.5q0 183 84.5 275t227.5 92q147 0 229.5 -95t82.5 -274q0 -167 -82 -258.5t-229 -91.5zM353 636q-73 0 -105.5 -64t-32.5 -223q0 -165 33 -230.5t106 -65.5q69 0 103 62t34 228q0 161 -32.5 227
t-105.5 66z" />
    <glyph glyph-name="Ocircumflex" unicode="&#xd4;" horiz-adv-x="706" 
d="M503 731l-151 77l-151 -77l-25 37l176 173l176 -173zM354 -12q-150 0 -231.5 92.5t-81.5 259.5q0 183 84.5 275t227.5 92q147 0 229.5 -95t82.5 -274q0 -167 -82 -258.5t-229 -91.5zM353 636q-73 0 -105.5 -64t-32.5 -223q0 -165 33 -230.5t106 -65.5q69 0 103 62t34 228
q0 161 -32.5 227t-105.5 66z" />
    <glyph glyph-name="Otilde" unicode="&#xd5;" horiz-adv-x="706" 
d="M422 857q51 0 75 46l37 -16q-14 -56 -44 -92.5t-72 -36.5q-33 0 -76 18t-62 18q-46 0 -73 -49l-35 15q9 57 39 96t73 39q31 0 73 -19t65 -19zM354 -12q-150 0 -231.5 92.5t-81.5 259.5q0 183 84.5 275t227.5 92q147 0 229.5 -95t82.5 -274q0 -167 -82 -258.5t-229 -91.5z
M353 636q-73 0 -105.5 -64t-32.5 -223q0 -165 33 -230.5t106 -65.5q69 0 103 62t34 228q0 161 -32.5 227t-105.5 66z" />
    <glyph glyph-name="Odieresis" unicode="&#xd6;" horiz-adv-x="706" 
d="M323 817q0 -33 -24 -56.5t-58 -23.5t-58 23.5t-24 56.5q0 34 24 57.5t59 23.5q34 0 57.5 -23t23.5 -58zM546 817q0 -33 -24 -56.5t-58 -23.5t-58 23.5t-24 56.5q0 34 24 57.5t59 23.5t58 -23t23 -58zM354 -12q-150 0 -231.5 92.5t-81.5 259.5q0 183 84.5 275t227.5 92
q147 0 229.5 -95t82.5 -274q0 -167 -82 -258.5t-229 -91.5zM353 636q-73 0 -105.5 -64t-32.5 -223q0 -165 33 -230.5t106 -65.5q69 0 103 62t34 228q0 161 -32.5 227t-105.5 66z" />
    <glyph glyph-name="multiply" unicode="&#xd7;" horiz-adv-x="519" 
d="M56 424l49 51l154 -153l154 153l51 -51l-154 -154l154 -152l-51 -52l-154 155l-154 -155l-50 52l153 152z" />
    <glyph glyph-name="Oslash" unicode="&#xd8;" horiz-adv-x="706" 
d="M613 725l-54 -89q106 -95 106 -298q0 -167 -82 -258.5t-229 -91.5q-98 0 -168 41l-53 -87l-47 27l56 92q-101 90 -101 279q0 183 84.5 275t227.5 92q92 0 160 -38l52 83zM494 343q0 96 -17 161l-231 -379q31 -72 108 -72q45 0 74 22.5t47.5 88.5t18.5 179zM353 636
q-73 0 -107 -64.5t-34 -222.5q0 -89 14 -151l229 376q-32 62 -102 62z" />
    <glyph glyph-name="Ugrave" unicode="&#xd9;" horiz-adv-x="690" 
d="M490 765l-24 -38l-246 72l64 130zM518 227v348q0 42 -14 56.5t-56 15.5v48h219v-48q-39 -1 -52.5 -15.5t-13.5 -56.5v-350q0 -237 -253 -237q-134 0 -196 55.5t-62 177.5v354q0 42 -14 56.5t-53 15.5v48h294v-48q-41 -1 -55.5 -15.5t-14.5 -56.5v-351q0 -85 31.5 -120
t101.5 -35q69 0 103.5 36.5t34.5 121.5z" />
    <glyph glyph-name="Uacute" unicode="&#xda;" horiz-adv-x="690" 
d="M267 727l-24 38l205 164l65 -130zM518 227v348q0 42 -14 56.5t-56 15.5v48h219v-48q-39 -1 -52.5 -15.5t-13.5 -56.5v-350q0 -237 -253 -237q-134 0 -196 55.5t-62 177.5v354q0 42 -14 56.5t-53 15.5v48h294v-48q-41 -1 -55.5 -15.5t-14.5 -56.5v-351q0 -85 31.5 -120
t101.5 -35q69 0 103.5 36.5t34.5 121.5z" />
    <glyph glyph-name="Ucircumflex" unicode="&#xdb;" horiz-adv-x="690" 
d="M525 731l-151 77l-151 -77l-25 37l176 173l176 -173zM518 227v348q0 42 -14 56.5t-56 15.5v48h219v-48q-39 -1 -52.5 -15.5t-13.5 -56.5v-350q0 -237 -253 -237q-134 0 -196 55.5t-62 177.5v354q0 42 -14 56.5t-53 15.5v48h294v-48q-41 -1 -55.5 -15.5t-14.5 -56.5v-351
q0 -85 31.5 -120t101.5 -35q69 0 103.5 36.5t34.5 121.5z" />
    <glyph glyph-name="Udieresis" unicode="&#xdc;" horiz-adv-x="690" 
d="M518 227v348q0 42 -14 56.5t-56 15.5v48h219v-48q-39 -1 -52.5 -15.5t-13.5 -56.5v-350q0 -237 -253 -237q-134 0 -196 55.5t-62 177.5v354q0 42 -14 56.5t-53 15.5v48h294v-48q-41 -1 -55.5 -15.5t-14.5 -56.5v-351q0 -85 31.5 -120t101.5 -35q69 0 103.5 36.5
t34.5 121.5zM345 817q0 -33 -24 -56.5t-58 -23.5t-58 23.5t-24 56.5q0 34 24 57.5t59 23.5q34 0 57.5 -23t23.5 -58zM568 817q0 -33 -24 -56.5t-58 -23.5t-58 23.5t-24 56.5q0 34 24 57.5t59 23.5t58 -23t23 -58z" />
    <glyph glyph-name="Yacute" unicode="&#xdd;" horiz-adv-x="655" 
d="M365 360h5l98 224q9 25 9 34q0 30 -51 30v47h213v-47q-31 -4 -46.5 -16.5t-34.5 -51.5l-151 -313v-150q0 -42 16 -56.5t62 -14.5v-46h-312v46q46 0 61.5 14t15.5 57v148l-159 318q-18 36 -33 48.5t-43 16.5v47h285v-47q-48 0 -48 -32q0 -14 9 -33zM238 727l-24 38
l205 164l65 -130z" />
    <glyph glyph-name="Thorn" unicode="&#xde;" horiz-adv-x="605" 
d="M429 358q0 70 -25.5 98t-90.5 28h-59v-250h67q60 0 84 26.5t24 97.5zM254 574v-19h96q123 0 185 -45t62 -150q0 -200 -247 -200h-96v-42q0 -43 17 -57.5t68 -14.5v-46h-310v46q40 0 54 14.5t14 56.5v458q0 42 -14 56.5t-54 15.5v48h294v-48q-69 -1 -69 -73z" />
    <glyph glyph-name="germandbls" unicode="&#xdf;" horiz-adv-x="637" 
d="M89 509v29q0 101 65.5 152t172.5 51q105 0 162 -38.5t57 -105.5q0 -53 -28.5 -88t-86.5 -66q-30 -15 -30 -29t24 -24q100 -47 145 -94.5t45 -132.5q0 -79 -53 -127t-142 -48q-86 0 -142 43l21 52q41 -27 88 -27q37 0 57 26.5t20 70.5q0 56 -24.5 96.5t-75.5 82.5l-16 13
t-15 12t-11.5 9.5t-9.5 10t-6 9t-5 11t-1 11.5q0 16 11 28t45 38q29 23 42 47t13 61q0 92 -82 92q-91 0 -91 -134v-540h-210v45q38 1 49.5 14t11.5 56v318h-61v51z" />
    <glyph glyph-name="agrave" unicode="&#xe0;" horiz-adv-x="540" 
d="M464 150q0 -56 12 -71.5t52 -17.5v-43q-39 -24 -102 -24q-90 0 -103 70q-15 -32 -50 -55t-89 -23q-71 0 -115 37t-44 111q0 167 246 167q22 0 48 -2v46q0 59 -16.5 84.5t-55.5 25.5q-40 0 -57 -23t-23 -68h-110v102q96 56 216 56q90 0 142.5 -41.5t52.5 -126.5
q0 -7 -2 -79t-2 -125zM317 243h-35q-104 0 -104 -90q0 -41 15 -57.5t45 -16.5q47 0 76 37zM378 593l-26 -35l-240 96l78 125z" />
    <glyph glyph-name="aacute" unicode="&#xe1;" horiz-adv-x="540" 
d="M464 150q0 -56 12 -71.5t52 -17.5v-43q-39 -24 -102 -24q-90 0 -103 70q-15 -32 -50 -55t-89 -23q-71 0 -115 37t-44 111q0 167 246 167q22 0 48 -2v46q0 59 -16.5 84.5t-55.5 25.5q-40 0 -57 -23t-23 -68h-110v102q96 56 216 56q90 0 142.5 -41.5t52.5 -126.5
q0 -7 -2 -79t-2 -125zM317 243h-35q-104 0 -104 -90q0 -41 15 -57.5t45 -16.5q47 0 76 37zM160 558l-26 35l188 186l78 -125z" />
    <glyph glyph-name="acircumflex" unicode="&#xe2;" horiz-adv-x="540" 
d="M464 150q0 -56 12 -71.5t52 -17.5v-43q-39 -24 -102 -24q-90 0 -103 70q-15 -32 -50 -55t-89 -23q-71 0 -115 37t-44 111q0 167 246 167q22 0 48 -2v46q0 59 -16.5 84.5t-55.5 25.5q-40 0 -57 -23t-23 -68h-110v102q96 56 216 56q90 0 142.5 -41.5t52.5 -126.5
q0 -7 -2 -79t-2 -125zM317 243h-35q-104 0 -104 -90q0 -41 15 -57.5t45 -16.5q47 0 76 37zM418 556l-151 78l-151 -78l-25 37l176 174l176 -174z" />
    <glyph glyph-name="atilde" unicode="&#xe3;" horiz-adv-x="540" 
d="M464 150q0 -56 12 -71.5t52 -17.5v-43q-39 -24 -102 -24q-90 0 -103 70q-15 -32 -50 -55t-89 -23q-71 0 -115 37t-44 111q0 167 246 167q22 0 48 -2v46q0 59 -16.5 84.5t-55.5 25.5q-40 0 -57 -23t-23 -68h-110v102q96 56 216 56q90 0 142.5 -41.5t52.5 -126.5
q0 -7 -2 -79t-2 -125zM317 243h-35q-104 0 -104 -90q0 -41 15 -57.5t45 -16.5q47 0 76 37zM326 686q49 0 73 45l37 -16q-14 -57 -44 -94t-70 -37q-30 0 -73 16t-62 16q-45 0 -70 -48l-35 15q9 57 38.5 97t71.5 40q29 0 70.5 -17t63.5 -17z" />
    <glyph glyph-name="adieresis" unicode="&#xe4;" horiz-adv-x="540" 
d="M464 150q0 -56 12 -71.5t52 -17.5v-43q-39 -24 -102 -24q-90 0 -103 70q-15 -32 -50 -55t-89 -23q-71 0 -115 37t-44 111q0 167 246 167q22 0 48 -2v46q0 59 -16.5 84.5t-55.5 25.5q-40 0 -57 -23t-23 -68h-110v102q96 56 216 56q90 0 142.5 -41.5t52.5 -126.5
q0 -7 -2 -79t-2 -125zM317 243h-35q-104 0 -104 -90q0 -41 15 -57.5t45 -16.5q47 0 76 37zM234 646q0 -33 -24 -56.5t-58 -23.5t-58 23.5t-24 56.5q0 34 24 58t59 24q34 0 57.5 -23.5t23.5 -58.5zM457 646q0 -33 -24 -56.5t-58 -23.5t-58 23.5t-24 56.5q0 34 24 58t59 24
q34 0 57.5 -23.5t23.5 -58.5z" />
    <glyph glyph-name="aring" unicode="&#xe5;" horiz-adv-x="540" 
d="M464 150q0 -56 12 -71.5t52 -17.5v-43q-39 -24 -102 -24q-90 0 -103 70q-15 -32 -50 -55t-89 -23q-71 0 -115 37t-44 111q0 167 246 167q22 0 48 -2v46q0 59 -16.5 84.5t-55.5 25.5q-40 0 -57 -23t-23 -68h-110v102q96 56 216 56q90 0 142.5 -41.5t52.5 -126.5
q0 -7 -2 -79t-2 -125zM317 243h-35q-104 0 -104 -90q0 -41 15 -57.5t45 -16.5q47 0 76 37zM259 562q-51 0 -84 33t-33 83t33 83t84 33q52 0 85 -32.5t33 -83.5q0 -50 -33 -83t-85 -33zM259 740q-25 0 -40 -17.5t-15 -44.5q0 -25 15 -42t40 -17q26 0 41.5 17t15.5 42
q0 27 -15.5 44.5t-41.5 17.5z" />
    <glyph glyph-name="ae" unicode="&#xe6;" horiz-adv-x="812" 
d="M415 471q63 51 147 51q220 0 220 -246v-40h-304q3 -86 34.5 -124t102.5 -38q69 0 133 35l25 -41q-82 -80 -209 -80q-131 0 -194 81q-23 -34 -69 -57.5t-113 -23.5q-74 0 -118.5 36t-44.5 110q0 166 246 166h49v47q0 57 -17 82.5t-56 25.5q-40 0 -57 -23t-23 -68h-110v102
q96 56 208 56q104 0 150 -51zM561 460q-39 0 -58 -35t-24 -124h155q0 90 -16.5 124.5t-56.5 34.5zM248 81q55 0 93 36q-20 50 -22 119h-29q-58 0 -85 -19t-27 -64q0 -72 70 -72z" />
    <glyph glyph-name="ccedilla" unicode="&#xe7;" horiz-adv-x="491" 
d="M249 -204q-62 0 -99 25l17 39q28 -18 66 -18q36 0 36 28q0 30 -60 32l1 21l20 69q-88 14 -141.5 79t-53.5 175q0 130 73.5 202.5t183.5 72.5q103 0 164 -40v-110h-111q-3 50 -13.5 69t-39.5 19q-43 0 -73 -43t-30 -147q0 -198 135 -198q58 0 118 36l27 -38
q-67 -78 -179 -81h-12l-8 -29q97 -6 97 -78q0 -85 -118 -85z" />
    <glyph glyph-name="egrave" unicode="&#xe8;" horiz-adv-x="529" 
d="M333 74q68 0 133 35l24 -41q-82 -80 -209 -80q-116 0 -181 70.5t-65 197.5q0 125 66.5 195.5t176.5 70.5q221 0 221 -246v-43h-304q3 -85 34.5 -122t103.5 -37zM279 460q-39 0 -58.5 -35t-24.5 -124h155q0 90 -16 124.5t-56 34.5zM398 593l-26 -35l-240 96l78 125z" />
    <glyph glyph-name="eacute" unicode="&#xe9;" horiz-adv-x="529" 
d="M173 558l-26 35l188 186l78 -125zM333 74q68 0 133 35l24 -41q-82 -80 -209 -80q-116 0 -181 70.5t-65 197.5q0 125 66.5 195.5t176.5 70.5q221 0 221 -246v-43h-304q3 -85 34.5 -122t103.5 -37zM279 460q-39 0 -58.5 -35t-24.5 -124h155q0 90 -16 124.5t-56 34.5z" />
    <glyph glyph-name="ecircumflex" unicode="&#xea;" horiz-adv-x="529" 
d="M428 556l-151 78l-151 -78l-25 37l176 174l176 -174zM333 74q68 0 133 35l24 -41q-82 -80 -209 -80q-116 0 -181 70.5t-65 197.5q0 125 66.5 195.5t176.5 70.5q221 0 221 -246v-43h-304q3 -85 34.5 -122t103.5 -37zM279 460q-39 0 -58.5 -35t-24.5 -124h155
q0 90 -16 124.5t-56 34.5z" />
    <glyph glyph-name="edieresis" unicode="&#xeb;" horiz-adv-x="529" 
d="M244 646q0 -33 -24 -56.5t-58 -23.5t-58 23.5t-24 56.5q0 34 24 58t59 24q34 0 57.5 -23.5t23.5 -58.5zM467 646q0 -33 -24 -56.5t-58 -23.5t-58 23.5t-24 56.5q0 34 24 58t59 24q34 0 57.5 -23.5t23.5 -58.5zM333 74q68 0 133 35l24 -41q-82 -80 -209 -80
q-116 0 -181 70.5t-65 197.5q0 125 66.5 195.5t176.5 70.5q221 0 221 -246v-43h-304q3 -85 34.5 -122t103.5 -37zM279 460q-39 0 -58.5 -35t-24.5 -124h155q0 90 -16 124.5t-56 34.5z" />
    <glyph glyph-name="igrave" unicode="&#xec;" horiz-adv-x="315" 
d="M297 0h-271v45q38 1 49.5 14t11.5 56v238q0 54 -11 68.5t-49 16.5v44l187 35h22v-402q0 -43 11 -56t50 -14v-45zM273 593l-26 -35l-240 96l78 125z" />
    <glyph glyph-name="iacute" unicode="&#xed;" horiz-adv-x="315" 
d="M54 558l-26 35l188 186l78 -125zM297 0h-271v45q38 1 49.5 14t11.5 56v238q0 54 -11 68.5t-49 16.5v44l187 35h22v-402q0 -43 11 -56t50 -14v-45z" />
    <glyph glyph-name="icircumflex" unicode="&#xee;" horiz-adv-x="315" 
d="M312 556l-151 78l-151 -78l-25 37l176 174l176 -174zM297 0h-271v45q38 1 49.5 14t11.5 56v238q0 54 -11 68.5t-49 16.5v44l187 35h22v-402q0 -43 11 -56t50 -14v-45z" />
    <glyph glyph-name="idieresis" unicode="&#xef;" horiz-adv-x="315" 
d="M132 646q0 -33 -24 -56.5t-58 -23.5t-58 23.5t-24 56.5q0 34 24 58t59 24q34 0 57.5 -23.5t23.5 -58.5zM355 646q0 -33 -24 -56.5t-58 -23.5t-58 23.5t-24 56.5q0 34 24 58t59 24q34 0 57.5 -23.5t23.5 -58.5zM297 0h-271v45q38 1 49.5 14t11.5 56v238q0 54 -11 68.5
t-49 16.5v44l187 35h22v-402q0 -43 11 -56t50 -14v-45z" />
    <glyph glyph-name="eth" unicode="&#xf0;" horiz-adv-x="571" 
d="M114 530l-20 49l135 48q-54 34 -138 58l22 44q135 -24 211 -65l132 48l20 -48l-96 -35q155 -115 155 -351q0 -141 -69.5 -216t-179.5 -75q-113 0 -182 67t-69 198q0 121 67 190t168 69q48 0 84 -19q-25 54 -75 98zM380 273q0 93 -16 154q-28 21 -68 21q-103 0 -103 -195
q0 -109 22.5 -157t72.5 -48q45 0 68.5 52.5t23.5 172.5z" />
    <glyph glyph-name="ntilde" unicode="&#xf1;" horiz-adv-x="625" 
d="M551 370v-255q0 -43 11.5 -56t47.5 -14v-45h-268v45q38 1 49 14t11 54v222q0 81 -66 81q-51 0 -100 -38v-265q0 -41 11.5 -54t49.5 -14v-45h-271v45q38 1 49.5 14t11.5 56v238q0 54 -11 68.5t-49 16.5v44l161 40h15q25 -40 29 -90q78 89 174 89q65 0 105 -38.5t40 -112.5
zM385 686q49 0 73 45l37 -16q-14 -57 -44 -94t-70 -37q-30 0 -73 16t-62 16q-45 0 -70 -48l-35 15q9 57 38.5 97t71.5 40q29 0 70.5 -17t63.5 -17z" />
    <glyph glyph-name="ograve" unicode="&#xf2;" horiz-adv-x="578" 
d="M543 262q0 -135 -72.5 -205t-184.5 -70q-118 0 -184.5 70t-66.5 196q0 122 70 195.5t189 73.5q113 0 181 -66.5t68 -193.5zM380 266q0 105 -22 148.5t-69 43.5q-49 0 -70 -45.5t-21 -161.5q0 -108 20 -155t73 -47q45 0 67 51.5t22 165.5zM400 593l-26 -35l-240 96l78 125
z" />
    <glyph glyph-name="oacute" unicode="&#xf3;" horiz-adv-x="578" 
d="M182 558l-26 35l188 186l78 -125zM543 262q0 -135 -72.5 -205t-184.5 -70q-118 0 -184.5 70t-66.5 196q0 122 70 195.5t189 73.5q113 0 181 -66.5t68 -193.5zM380 266q0 105 -22 148.5t-69 43.5q-49 0 -70 -45.5t-21 -161.5q0 -108 20 -155t73 -47q45 0 67 51.5t22 165.5
z" />
    <glyph glyph-name="ocircumflex" unicode="&#xf4;" horiz-adv-x="578" 
d="M439 556l-151 78l-151 -78l-25 37l176 174l176 -174zM543 262q0 -135 -72.5 -205t-184.5 -70q-118 0 -184.5 70t-66.5 196q0 122 70 195.5t189 73.5q113 0 181 -66.5t68 -193.5zM380 266q0 105 -22 148.5t-69 43.5q-49 0 -70 -45.5t-21 -161.5q0 -108 20 -155t73 -47
q45 0 67 51.5t22 165.5z" />
    <glyph glyph-name="otilde" unicode="&#xf5;" horiz-adv-x="578" 
d="M543 262q0 -135 -72.5 -205t-184.5 -70q-118 0 -184.5 70t-66.5 196q0 122 70 195.5t189 73.5q113 0 181 -66.5t68 -193.5zM380 266q0 105 -22 148.5t-69 43.5q-49 0 -70 -45.5t-21 -161.5q0 -108 20 -155t73 -47q45 0 67 51.5t22 165.5zM357 686q49 0 73 45l37 -16
q-14 -57 -44 -94t-70 -37q-30 0 -73 16t-62 16q-45 0 -70 -48l-35 15q9 57 38.5 97t71.5 40q29 0 70.5 -17t63.5 -17z" />
    <glyph glyph-name="odieresis" unicode="&#xf6;" horiz-adv-x="578" 
d="M259 646q0 -33 -24 -56.5t-58 -23.5t-58 23.5t-24 56.5q0 34 24 58t59 24q34 0 57.5 -23.5t23.5 -58.5zM482 646q0 -33 -24 -56.5t-58 -23.5t-58 23.5t-24 56.5q0 34 24 58t59 24q34 0 57.5 -23.5t23.5 -58.5zM543 262q0 -135 -72.5 -205t-184.5 -70q-118 0 -184.5 70
t-66.5 196q0 122 70 195.5t189 73.5q113 0 181 -66.5t68 -193.5zM380 266q0 105 -22 148.5t-69 43.5q-49 0 -70 -45.5t-21 -161.5q0 -108 20 -155t73 -47q45 0 67 51.5t22 165.5z" />
    <glyph glyph-name="divide" unicode="&#xf7;" horiz-adv-x="616" 
d="M380 474q0 -32 -21 -53.5t-50 -21.5q-31 0 -51.5 21t-20.5 52q0 30 21 51.5t51 21.5q29 0 50 -21.5t21 -49.5zM55 236v70h506v-70h-506zM380 64q0 -31 -21 -52.5t-50 -21.5q-31 0 -51.5 20.5t-20.5 51.5q0 30 21 51.5t51 21.5q29 0 50 -21t21 -50z" />
    <glyph glyph-name="oslash" unicode="&#xf8;" horiz-adv-x="578" 
d="M500 540l-43 -69q86 -67 86 -209q0 -135 -72.5 -205t-184.5 -70q-62 0 -118 23l-45 -73l-44 26l46 73q-90 68 -90 217q0 122 70 195.5t189 73.5q66 0 120 -24l42 68zM192 251q0 -66 8 -96l160 258q-22 45 -71 45q-51 0 -74 -46t-23 -161zM387 266q0 48 -9 81l-159 -256
q22 -42 72 -42q96 0 96 217z" />
    <glyph glyph-name="ugrave" unicode="&#xf9;" horiz-adv-x="607" 
d="M527 517v-368q0 -53 11 -67.5t51 -17.5v-41l-160 -36h-15q-23 40 -27 81q-66 -81 -169 -81q-66 0 -104 35t-38 107v224q0 54 -11 68.5t-48 16.5v44l184 35h24v-353q0 -81 64 -81q46 0 90 37v233q0 54 -11 68.5t-49 16.5v44l184 35h24zM414 593l-26 -35l-240 96l78 125z
" />
    <glyph glyph-name="uacute" unicode="&#xfa;" horiz-adv-x="607" 
d="M195 558l-26 35l188 186l78 -125zM527 517v-368q0 -53 11 -67.5t51 -17.5v-41l-160 -36h-15q-23 40 -27 81q-66 -81 -169 -81q-66 0 -104 35t-38 107v224q0 54 -11 68.5t-48 16.5v44l184 35h24v-353q0 -81 64 -81q46 0 90 37v233q0 54 -11 68.5t-49 16.5v44l184 35h24z
" />
    <glyph glyph-name="ucircumflex" unicode="&#xfb;" horiz-adv-x="607" 
d="M453 556l-151 78l-151 -78l-25 37l176 174l176 -174zM527 517v-368q0 -53 11 -67.5t51 -17.5v-41l-160 -36h-15q-23 40 -27 81q-66 -81 -169 -81q-66 0 -104 35t-38 107v224q0 54 -11 68.5t-48 16.5v44l184 35h24v-353q0 -81 64 -81q46 0 90 37v233q0 54 -11 68.5
t-49 16.5v44l184 35h24z" />
    <glyph glyph-name="udieresis" unicode="&#xfc;" horiz-adv-x="607" 
d="M273 646q0 -33 -24 -56.5t-58 -23.5t-58 23.5t-24 56.5q0 34 24 58t59 24q34 0 57.5 -23.5t23.5 -58.5zM496 646q0 -33 -24 -56.5t-58 -23.5t-58 23.5t-24 56.5q0 34 24 58t59 24q34 0 57.5 -23.5t23.5 -58.5zM527 517v-368q0 -53 11 -67.5t51 -17.5v-41l-160 -36h-15
q-23 40 -27 81q-66 -81 -169 -81q-66 0 -104 35t-38 107v224q0 54 -11 68.5t-48 16.5v44l184 35h24v-353q0 -81 64 -81q46 0 90 37v233q0 54 -11 68.5t-49 16.5v44l184 35h24z" />
    <glyph glyph-name="yacute" unicode="&#xfd;" horiz-adv-x="552" 
d="M113 -207l-50 96q77 14 124 39t71 80l-58 -5q-20 79 -59 184l-77 212q-13 36 -25 48t-39 16v46h271v-46q-34 -1 -47 -7.5t-13 -19.5q0 -9 6 -24l69 -213q10 -30 20 -86h5q7 36 21 81l68 218q4 12 4 22q0 16 -12.5 21.5t-48.5 7.5v46h209v-46q-30 -4 -43.5 -15.5
t-26.5 -46.5l-145 -398q-34 -94 -86.5 -146t-137.5 -64zM194 558l-26 35l188 186l78 -125z" />
    <glyph glyph-name="thorn" unicode="&#xfe;" horiz-adv-x="599" 
d="M406 241q0 101 -23 141t-71 40q-53 0 -92 -40v-278q30 -37 84 -37q51 0 76.5 38t25.5 136zM6 707l180 27h15q19 -34 19 -99v-197q49 83 145 83q92 0 145.5 -65.5t53.5 -196.5q0 -135 -62.5 -202.5t-169.5 -67.5q-74 0 -112 45v-115q0 -42 12 -55.5t51 -14.5v-45h-273v45
q38 1 49.5 14t11.5 56v659q0 53 -12.5 68t-52.5 17v44z" />
    <glyph glyph-name="ydieresis" unicode="&#xff;" horiz-adv-x="552" 
d="M113 -207l-50 96q77 14 124 39t71 80l-58 -5q-20 79 -59 184l-77 212q-13 36 -25 48t-39 16v46h271v-46q-34 -1 -47 -7.5t-13 -19.5q0 -9 6 -24l69 -213q10 -30 20 -86h5q7 36 21 81l68 218q4 12 4 22q0 16 -12.5 21.5t-48.5 7.5v46h209v-46q-30 -4 -43.5 -15.5
t-26.5 -46.5l-145 -398q-34 -94 -86.5 -146t-137.5 -64zM271 646q0 -33 -24 -56.5t-58 -23.5t-58 23.5t-24 56.5q0 34 24 58t59 24q34 0 57.5 -23.5t23.5 -58.5zM494 646q0 -33 -24 -56.5t-58 -23.5t-58 23.5t-24 56.5q0 34 24 58t59 24q34 0 57.5 -23.5t23.5 -58.5z" />
    <glyph glyph-name="dotlessi" unicode="&#x131;" horiz-adv-x="315" 
d="M297 0h-271v45q38 1 49.5 14t11.5 56v238q0 54 -11 68.5t-49 16.5v44l187 35h22v-402q0 -43 11 -56t50 -14v-45z" />
    <glyph glyph-name="IJ" unicode="&#x132;" horiz-adv-x="706" 
d="M97 117v458q0 42 -14 56.5t-54 15.5v48h294v-48q-40 -1 -54.5 -15.5t-14.5 -56.5v-458q0 -42 14.5 -56.5t54.5 -14.5v-46h-294v46q40 0 54 14.5t14 56.5zM450 100v475q0 42 -15 56.5t-55 15.5v48h297v-48q-41 -1 -55.5 -15.5t-14.5 -56.5v-468q0 -116 -61 -172.5
t-190 -81.5l-26 45q77 37 98.5 76t21.5 126z" />
    <glyph glyph-name="ij" unicode="&#x133;" horiz-adv-x="612" 
d="M297 0h-271v45q38 1 49.5 14t11.5 56v238q0 54 -11 68.5t-49 16.5v44l187 35h22v-402q0 -43 11 -56t50 -14v-45zM244 650q0 -37 -26 -62.5t-63 -25.5q-36 0 -62 25.5t-26 62.5q0 36 26.5 61.5t63.5 25.5t62 -25.5t25 -61.5zM391 16v337q0 54 -11.5 68.5t-49.5 16.5v44
l187 35h22v-501q0 -174 -199 -222l-29 44q45 21 62.5 60.5t17.5 117.5zM548 650q0 -37 -26 -62.5t-64 -25.5q-36 0 -62 25.5t-26 62.5q0 36 26.5 61.5t64.5 25.5q37 0 62 -25.5t25 -61.5z" />
    <glyph glyph-name="Lslash" unicode="&#x141;" horiz-adv-x="562" 
d="M254 575v-198l190 69v-59l-190 -69v-251h94q50 0 76.5 27.5t40.5 97.5h77l-14 -192h-499v46q40 0 54 14.5t14 56.5v146l-68 -25v58l68 25v254q0 42 -14 56.5t-54 15.5v48h295v-48q-41 -1 -55.5 -15.5t-14.5 -56.5z" />
    <glyph glyph-name="lslash" unicode="&#x142;" horiz-adv-x="324" 
d="M17 345l73 32v201q0 53 -13 68t-53 17v44l181 27h15q18 -29 18 -99v-193l77 34v-57l-77 -34v-269q0 -43 11.5 -56.5t50.5 -14.5v-45h-272v45q38 1 50 14t12 56v205l-73 -32v57z" />
    <glyph glyph-name="OE" unicode="&#x152;" horiz-adv-x="980" 
d="M420 67h60v557h-64q-100 0 -153 -62.5t-53 -224.5q0 -82 14.5 -136.5t44 -83t65 -39.5t86.5 -11zM404 695h513l11 -169h-74q-18 61 -35.5 79.5t-68.5 18.5h-109v-238h62q46 0 62.5 14t19.5 57h66v-210h-66q-3 41 -19 56t-62 15h-63v-251h124q51 0 72 24t27 92h76v-183
h-532q-171 0 -269 89.5t-98 254.5q0 179 99.5 265t263.5 86z" />
    <glyph glyph-name="oe" unicode="&#x153;" horiz-adv-x="877" 
d="M680 74q68 0 133 35l24 -41q-82 -80 -209 -80q-54 0 -100 19t-70 51q-62 -71 -172 -71q-118 0 -184.5 70t-66.5 196q0 122 70 195.5t189 73.5q51 0 96.5 -19t73.5 -51q56 70 161 70q221 0 221 -246v-43h-304q2 -85 34 -122t104 -37zM380 266q0 105 -22 148.5t-69 43.5
q-49 0 -70 -45.5t-21 -161.5q0 -108 20 -155t73 -47q45 0 67 51.5t22 165.5zM626 460q-39 0 -58.5 -35t-24.5 -124h155q0 90 -16 124.5t-56 34.5z" />
    <glyph glyph-name="Scaron" unicode="&#x160;" horiz-adv-x="551" 
d="M282 864l151 77l25 -37l-176 -173l-176 173l25 37zM251 -13q-125 0 -222 56v133h105q7 -69 37.5 -99.5t88.5 -30.5q118 0 118 111q0 47 -23.5 73t-83.5 42l-71 19q-83 22 -124.5 68t-41.5 132q0 105 64.5 160.5t176.5 55.5q121 0 206 -49v-138h-102q-7 61 -33 92t-83 31
q-48 0 -73 -25.5t-25 -70.5q0 -42 21.5 -66.5t74.5 -37.5l68 -17q187 -48 187 -215q0 -108 -68.5 -166t-196.5 -58z" />
    <glyph glyph-name="scaron" unicode="&#x161;" horiz-adv-x="467" 
d="M240 684l151 78l25 -37l-176 -174l-176 174l25 37zM218 -13q-106 0 -186 43v108h99q5 -50 29.5 -69.5t69.5 -19.5q83 0 83 63q0 30 -17 45.5t-53 23.5l-77 16q-132 29 -132 156q0 81 57 125t144 44q92 0 173 -36v-106h-92q-11 77 -93 77q-72 0 -72 -59q0 -24 14 -37.5
t45 -20.5l73 -17q155 -34 155 -166q0 -81 -57.5 -125.5t-162.5 -44.5z" />
    <glyph glyph-name="Ydieresis" unicode="&#x178;" horiz-adv-x="655" 
d="M365 360h5l98 224q9 25 9 34q0 30 -51 30v47h213v-47q-31 -4 -46.5 -16.5t-34.5 -51.5l-151 -313v-150q0 -42 16 -56.5t62 -14.5v-46h-312v46q46 0 61.5 14t15.5 57v148l-159 318q-18 36 -33 48.5t-43 16.5v47h285v-47q-48 0 -48 -32q0 -14 9 -33zM316 817
q0 -33 -24 -56.5t-58 -23.5t-58 23.5t-24 56.5q0 34 24 57.5t59 23.5t58 -23t23 -58zM539 817q0 -33 -24 -56.5t-58 -23.5t-58 23.5t-24 56.5q0 34 24 57.5t59 23.5q34 0 57.5 -23t23.5 -58z" />
    <glyph glyph-name="Zcaron" unicode="&#x17d;" horiz-adv-x="567" 
d="M303 864l151 77l25 -37l-176 -173l-176 173l25 37zM534 639l-334 -572h136q56 0 82 27t41 96h75l-12 -190h-496v56l337 573h-125q-48 0 -70.5 -25.5t-38.5 -87.5h-77l9 179h473v-56z" />
    <glyph glyph-name="zcaron" unicode="&#x17e;" horiz-adv-x="499" 
d="M478 153l-20 -153h-417v60l259 386h-89q-51 0 -68.5 -17t-25.5 -74h-60v154h414v-58l-262 -389h80q65 0 87 14.5t43 76.5h59zM268 684l151 78l25 -37l-176 -174l-176 174l25 37z" />
    <glyph glyph-name="longs" unicode="&#x17f;" horiz-adv-x="350" 
d="M238 604v-489q0 -43 15 -56t65 -14v-45h-290v45q38 1 49.5 14t11.5 56v318h-61v51l61 25v73q0 78 50.5 118.5t138.5 40.5q84 0 133 -22v-105h-86q-3 60 -41 60q-46 0 -46 -70z" />
    <glyph glyph-name="florin" unicode="&#x192;" horiz-adv-x="355" 
d="M34 368l5 55l73 13l9 100q8 85 64.5 128t148.5 43q81 0 137 -29l-8 -104h-87q-2 41 -9.5 56.5t-30.5 15.5q-57 0 -63 -88l-9 -125h116v-65h-122l-30 -395q-7 -86 -65.5 -126t-169.5 -40l-7 38q47 10 67.5 35.5t24.5 83.5l28 404h-72z" />
    <glyph glyph-name="uni02BB" unicode="&#x2bb;" horiz-adv-x="282" 
d="M49 519q0 75 45 124.5t131 67.5l31 -40q-103 -31 -103 -78q0 -16 8 -24t29 -16q49 -22 49 -69q0 -34 -25.5 -58.5t-63.5 -24.5q-44 0 -72.5 33.5t-28.5 84.5z" />
    <glyph glyph-name="afii57929" unicode="&#x2bc;" horiz-adv-x="282" 
d="M233 593q0 -75 -45 -124.5t-132 -67.5l-30 40q102 30 102 78q0 16 -7.5 24t-27.5 15q-50 23 -50 70q0 34 25.5 58t63.5 24q44 0 72.5 -33t28.5 -84z" />
    <glyph glyph-name="circumflex" unicode="&#x2c6;" horiz-adv-x="512" 
d="M407 556l-151 78l-151 -78l-25 37l176 174l176 -174z" />
    <glyph glyph-name="caron" unicode="&#x2c7;" horiz-adv-x="512" 
d="M256 684l151 78l25 -37l-176 -174l-176 174l25 37z" />
    <glyph glyph-name="breve" unicode="&#x2d8;" horiz-adv-x="491" 
d="M246 565q-66 0 -107 47t-59 115l37 22q54 -81 128 -81q73 0 129 81l37 -22q-17 -67 -58 -114.5t-107 -47.5z" />
    <glyph glyph-name="dotaccent" unicode="&#x2d9;" horiz-adv-x="331" 
d="M251 652q0 -35 -25 -59.5t-61 -24.5q-35 0 -60 24.5t-25 59.5t25.5 60t61.5 25q35 0 59.5 -25t24.5 -60z" />
    <glyph glyph-name="ring" unicode="&#x2da;" horiz-adv-x="395" 
d="M197 562q-51 0 -84 33t-33 83t33 83t84 33q52 0 85 -32.5t33 -83.5q0 -50 -33 -83t-85 -33zM197 740q-25 0 -40 -17.5t-15 -44.5q0 -25 15 -42t40 -17q26 0 41.5 17t15.5 42q0 27 -15.5 44.5t-41.5 17.5z" />
    <glyph glyph-name="ogonek" unicode="&#x2db;" horiz-adv-x="288" 
d="M237 -131l16 -29q-44 -45 -120 -45q-51 0 -84 22.5t-33 67.5q0 47 39.5 78t134.5 67l22 -19q-74 -51 -74 -108q0 -25 12.5 -37t32.5 -12q25 0 54 15z" />
    <glyph glyph-name="tilde" unicode="&#x2dc;" horiz-adv-x="514" 
d="M324 686q49 0 73 45l37 -16q-14 -57 -44 -94t-70 -37q-30 0 -73 16t-62 16q-45 0 -70 -48l-35 15q9 57 38.5 97t71.5 40q29 0 70.5 -17t63.5 -17z" />
    <glyph glyph-name="hungarumlaut" unicode="&#x2dd;" horiz-adv-x="522" 
d="M262 763l-133 -202l-49 20l63 227zM442 730l-157 -178l-43 26l88 219z" />
    <glyph glyph-name="gravecomb" unicode="&#x300;" 
d="M-177 593l-26 -35l-240 96l78 125z" />
    <glyph glyph-name="acutecomb" unicode="&#x301;" 
d="M-395 558l-26 35l188 186l78 -125z" />
    <glyph glyph-name="uni0302" unicode="&#x302;" 
d="M-138 556l-151 78l-151 -78l-25 37l176 174l176 -174z" />
    <glyph glyph-name="tildecomb" unicode="&#x303;" 
d="M-220 686q49 0 73 45l37 -16q-14 -57 -44 -94t-70 -37q-30 0 -73 16t-62 16q-45 0 -70 -48l-35 15q9 57 38.5 97t71.5 40q29 0 70.5 -17t63.5 -17z" />
    <glyph glyph-name="uni0304" unicode="&#x304;" 
d="M-79 610h-302v78h302v-78z" />
    <glyph glyph-name="uni0306" unicode="&#x306;" 
d="M-244 551q-66 0 -107 47t-59 115l37 22q54 -81 128 -81q73 0 129 81l37 -22q-17 -67 -58 -114.5t-107 -47.5z" />
    <glyph glyph-name="uni0307" unicode="&#x307;" 
d="M-70 650q0 -37 -26 -62.5t-63 -25.5q-36 0 -62 25.5t-26 62.5q0 36 26.5 61.5t63.5 25.5t62 -25.5t25 -61.5z" />
    <glyph glyph-name="uni0308" unicode="&#x308;" 
d="M-302 646q0 -33 -24 -56.5t-58 -23.5t-58 23.5t-24 56.5q0 34 24 58t59 24q34 0 57.5 -23.5t23.5 -58.5zM-79 646q0 -33 -24 -56.5t-58 -23.5t-58 23.5t-24 56.5q0 34 24 58t59 24q34 0 57.5 -23.5t23.5 -58.5z" />
    <glyph glyph-name="uni030A" unicode="&#x30a;" 
d="M-197 562q-51 0 -84 33t-33 83t33 83t84 33q52 0 85 -32.5t33 -83.5q0 -50 -33 -83t-85 -33zM-197 740q-25 0 -40 -17.5t-15 -44.5q0 -25 15 -42t40 -17q26 0 41.5 17t15.5 42q0 27 -15.5 44.5t-41.5 17.5z" />
    <glyph glyph-name="uni030B" unicode="&#x30b;" 
d="M-259 769l-133 -202l-49 20l63 227zM-79 736l-157 -178l-43 26l88 219z" />
    <glyph glyph-name="uni030C" unicode="&#x30c;" 
d="M-229 684l151 78l25 -37l-176 -174l-176 174l25 37z" />
    <glyph glyph-name="uni0312" unicode="&#x312;" 
d="M-255 668q0 57 42 93.5t110 50.5l25 -35q-41 -13 -56.5 -24.5t-15.5 -30.5q0 -17 26 -27q37 -15 37 -59q0 -28 -21.5 -47t-56.5 -19q-42 0 -66 27t-24 71z" />
    <glyph glyph-name="uni0313" unicode="&#x313;" 
d="M-100 724l-67 -177l-60 9l13 181z" />
    <glyph glyph-name="dotbelowcomb" unicode="&#x323;" 
d="M244 -133q0 -36 -26 -62t-63 -26q-36 0 -62 26t-26 62t26.5 62t63.5 26q36 0 61.5 -26t25.5 -62z" />
    <glyph glyph-name="uni0326" unicode="&#x326;" 
d="M255 -142q0 -57 -42 -93.5t-110 -50.5l-25 35q41 13 56.5 24.5t15.5 29.5q0 16 -26 28q-37 14 -37 58q0 28 21.5 47.5t56.5 19.5q42 0 66 -27t24 -71z" />
    <glyph glyph-name="uni0327" unicode="&#x327;" 
d="M-31 -119q0 -85 -118 -85q-61 0 -98 25l16 39q28 -18 67 -18q35 0 35 28q0 30 -59 32l1 21l27 94l48 -6l-15 -52q96 -6 96 -78z" />
    <glyph glyph-name="uni0328" unicode="&#x328;" 
d="M-50 -130l16 -29q-44 -45 -120 -45q-51 0 -84 22.5t-33 67.5q0 47 39.5 78t134.5 67l22 -19q-74 -51 -74 -108q0 -25 12.5 -37t32.5 -12q25 0 54 15z" />
    <glyph glyph-name="uni0335" unicode="&#x335;" 
d="M-79 215h-302v78h302v-78z" />
    <glyph glyph-name="uni0336" unicode="&#x336;" 
d="M-47 207h-711v95h711v-95z" />
    <glyph glyph-name="uni037E" unicode="&#x37e;" horiz-adv-x="314" 
d="M252 45q0 -76 -46 -126t-133 -68l-30 41q105 30 105 78q0 17 -8 24.5t-29 16.5q-49 21 -49 69q0 35 25 59t64 24q44 0 72.5 -33.5t28.5 -84.5zM243 373q0 -39 -27.5 -66.5t-65.5 -27.5q-39 0 -66 27.5t-27 66.5q0 38 27 65.5t66 27.5q38 0 65.5 -27.5t27.5 -65.5z" />
    <glyph glyph-name="uni0394" unicode="&#x394;" horiz-adv-x="594" 
d="M581 0h-570v49l219 646h120l231 -646v-49zM104 69h305l-121 362q-28 81 -31 112h-5q-13 -60 -31 -114z" />
    <glyph glyph-name="uni03A9" unicode="&#x3a9;" horiz-adv-x="727" 
d="M363 641q-78 0 -110.5 -57t-32.5 -195q0 -107 25.5 -179t85.5 -125v-85h-285l-14 166h62q11 -52 34.5 -65t79.5 -13h37q-81 47 -138.5 126.5t-57.5 180.5q0 141 88.5 226.5t225.5 85.5t226 -86t89 -226q0 -101 -57.5 -180.5t-138.5 -126.5h37q56 0 79.5 13t34.5 65h61
l-13 -166h-286v85q60 53 85.5 125t25.5 179q0 139 -32 195.5t-111 56.5z" />
    <glyph glyph-name="uni03BC" unicode="&#x3bc;" horiz-adv-x="598" 
d="M48 -205l-5 30q14 69 14 186v155q-1 213 -5 336l114 19h39l-1 -165v-186q0 -90 58 -90q53 0 96 46v376l111 19h38v-398q0 -32 11 -45.5t36 -13.5q20 0 36 4v-52q-48 -28 -112 -28q-83 0 -108 74q-46 -74 -121 -74q-39 0 -59 14l-4 -3q18 -49 18 -124v-59z" />
    <glyph glyph-name="pi" unicode="&#x3c0;" horiz-adv-x="613" 
d="M472 -9q-119 0 -119 145v100q0 65 5 150h-147q-4 -277 -41 -386h-137l-2 22q88 106 108 364q-56 -4 -98 -48l-34 28q20 73 64.5 108.5t129.5 35.5h255q67 0 107 12h27l-15 -118q-30 -17 -76 -18v-258q0 -61 50 -61q21 0 38 4v-52q-49 -28 -115 -28z" />
    <glyph glyph-name="uni2007" unicode="&#x2007;" horiz-adv-x="584" 
 />
    <glyph glyph-name="uni2008" unicode="&#x2008;" horiz-adv-x="288" 
 />
    <glyph glyph-name="uni200B" unicode="&#x200b;" horiz-adv-x="0" 
 />
    <glyph glyph-name="endash" unicode="&#x2013;" horiz-adv-x="582" 
d="M534 233h-486v95h486v-95z" />
    <glyph glyph-name="emdash" unicode="&#x2014;" horiz-adv-x="807" 
d="M759 233h-711v95h711v-95z" />
    <glyph glyph-name="quoteleft" unicode="&#x2018;" horiz-adv-x="282" 
d="M49 519q0 75 45 124.5t131 67.5l31 -40q-103 -31 -103 -78q0 -16 8 -24t29 -16q49 -22 49 -69q0 -34 -25.5 -58.5t-63.5 -24.5q-44 0 -72.5 33.5t-28.5 84.5z" />
    <glyph glyph-name="quoteright" unicode="&#x2019;" horiz-adv-x="282" 
d="M233 593q0 -75 -45 -124.5t-132 -67.5l-30 40q102 30 102 78q0 16 -7.5 24t-27.5 15q-50 23 -50 70q0 34 25.5 58t63.5 24q44 0 72.5 -33t28.5 -84z" />
    <glyph glyph-name="quotesinglbase" unicode="&#x201a;" horiz-adv-x="282" 
d="M233 43q0 -76 -45 -125t-132 -67l-30 39q102 31 102 78q0 16 -7.5 24t-27.5 16q-50 21 -50 70q0 34 25.5 58t63.5 24q43 0 72 -33.5t29 -83.5z" />
    <glyph glyph-name="quotedblleft" unicode="&#x201c;" horiz-adv-x="506" 
d="M49 519q0 75 45 124.5t131 67.5l31 -40q-103 -31 -103 -78q0 -16 8 -24t29 -16q49 -22 49 -69q0 -34 -25.5 -58.5t-63.5 -24.5q-44 0 -72.5 33.5t-28.5 84.5zM273 519q0 75 45 124.5t132 67.5l30 -40q-102 -31 -102 -78q0 -16 7.5 -24t28.5 -16q49 -22 49 -69
q0 -34 -25.5 -58.5t-63.5 -24.5q-44 0 -72.5 33.5t-28.5 84.5z" />
    <glyph glyph-name="quotedblright" unicode="&#x201d;" horiz-adv-x="506" 
d="M457 593q0 -75 -45 -124.5t-131 -67.5l-31 40q103 30 103 78q0 16 -8 24t-27 15q-51 23 -51 70q0 34 25.5 58t63.5 24q44 0 72.5 -33t28.5 -84zM233 593q0 -75 -45 -124.5t-132 -67.5l-30 40q102 30 102 78q0 16 -7.5 24t-27.5 15q-50 23 -50 70q0 34 25.5 58t63.5 24
q44 0 72.5 -33t28.5 -84z" />
    <glyph glyph-name="quotedblbase" unicode="&#x201e;" horiz-adv-x="506" 
d="M457 43q0 -75 -45 -124.5t-131 -67.5l-31 39q103 31 103 78q0 16 -7.5 24t-27.5 16q-51 20 -51 70q0 34 25.5 58t63.5 24q44 0 72.5 -33.5t28.5 -83.5zM233 43q0 -76 -45 -125t-132 -67l-30 39q102 31 102 78q0 16 -7.5 24t-27.5 16q-50 21 -50 70q0 34 25.5 58t63.5 24
q43 0 72 -33.5t29 -83.5z" />
    <glyph glyph-name="dagger" unicode="&#x2020;" horiz-adv-x="459" 
d="M189 432h-26q-64 0 -113 -14h-20v102h20q49 -14 113 -14h26v56q0 64 -14 113v20h109v-20q-13 -45 -13 -113v-56h25q64 0 113 14h20v-102h-20q-49 14 -113 14h-25v-229q0 -133 -25 -203h-33q-24 63 -24 203v229z" />
    <glyph glyph-name="daggerdbl" unicode="&#x2021;" horiz-adv-x="459" 
d="M271 429v-163h25q68 0 113 13h20v-101h-20q-49 14 -113 14h-25v-59q0 -67 13 -113v-20h-109v20q14 49 14 113v59h-26q-64 0 -113 -14h-20v101h20q45 -13 113 -13h26v163h-26q-67 0 -113 -13h-20v101h20q49 -14 113 -14h26v59q0 64 -14 113v20h109v-20q-13 -45 -13 -113
v-59h25q64 0 113 14h20v-101h-20q-45 13 -113 13h-25z" />
    <glyph glyph-name="bullet" unicode="&#x2022;" horiz-adv-x="517" 
d="M432 335q0 -73 -51 -125t-123 -52t-122.5 51.5t-50.5 125.5t50.5 125.5t122.5 51.5t123 -52t51 -125z" />
    <glyph glyph-name="ellipsis" unicode="&#x2026;" horiz-adv-x="850" 
d="M241 82q0 -40 -27.5 -67.5t-66.5 -27.5q-38 0 -65.5 27.5t-27.5 67.5q0 38 27 65.5t65 27.5q39 0 67 -27.5t28 -65.5zM518 82q0 -40 -27.5 -67.5t-65.5 -27.5t-65.5 27.5t-27.5 67.5q0 38 27 65.5t65 27.5q39 0 66.5 -27.5t27.5 -65.5zM796 82q0 -40 -27.5 -67.5
t-65.5 -27.5q-39 0 -66 27.5t-27 67.5q0 38 27 65.5t65 27.5q39 0 66.5 -27.5t27.5 -65.5z" />
    <glyph glyph-name="perthousand" unicode="&#x2030;" horiz-adv-x="1428" 
d="M396 453q0 -105 -52.5 -158.5t-133.5 -53.5q-85 0 -132.5 52.5t-47.5 155.5q0 105 50.5 158.5t135.5 53.5q78 0 129 -54.5t51 -153.5zM272 453q0 161 -62 161q-61 0 -61 -159q0 -91 14 -131t48 -40q61 0 61 169zM768 730l-488 -853h-69l487 853h70zM971 203
q0 -105 -52.5 -158.5t-132.5 -53.5q-85 0 -133 52.5t-48 155.5q0 105 50.5 158.5t136.5 53.5q77 0 128 -54.5t51 -153.5zM847 203q0 161 -62 161q-60 0 -60 -159q0 -91 14 -131t48 -40q60 0 60 169zM1398 203q0 -105 -52.5 -158.5t-132.5 -53.5q-85 0 -133 52.5t-48 155.5
q0 105 50.5 158.5t136.5 53.5q77 0 128 -54.5t51 -153.5zM1274 203q0 161 -62 161q-61 0 -61 -159q0 -92 14 -131.5t49 -39.5q60 0 60 169z" />
    <glyph glyph-name="guilsinglleft" unicode="&#x2039;" horiz-adv-x="370" 
d="M194 248l113 -179l-52 -46l-211 228l211 229l52 -46z" />
    <glyph glyph-name="guilsinglright" unicode="&#x203a;" horiz-adv-x="370" 
d="M63 69l113 179l-113 186l52 46l210 -229l-210 -228z" />
    <glyph glyph-name="fraction" unicode="&#x2044;" horiz-adv-x="270" 
d="M413 730l-487 -853h-70l487 853h70z" />
    <glyph glyph-name="uni2070" unicode="&#x2070;" horiz-adv-x="431" 
d="M400 453q0 -105 -53 -158.5t-135 -53.5q-85 0 -133.5 52.5t-48.5 155.5q0 105 51 158.5t137 53.5q79 0 130.5 -54.5t51.5 -153.5zM275 453q0 161 -63 161q-62 0 -62 -159q0 -91 14.5 -131t48.5 -40q31 0 46.5 39t15.5 130z" />
    <glyph glyph-name="uni2074" unicode="&#x2074;" horiz-adv-x="398" 
d="M199 238v102h-182v50l139 262h100l-158 -258h101q0 97 38 150l79 11v-161h52v-54h-52v-93z" />
    <glyph glyph-name="uni2075" unicode="&#x2075;" horiz-adv-x="335" 
d="M298 380q0 -69 -60.5 -106t-142.5 -37q-42 0 -78 11l-7 46q28 -8 64 -8q39 0 69 19.5t30 64.5q0 64 -64 64q-39 0 -67 -11l21 230h230l-12 -87h-167l-9 -84q31 9 65 9q58 0 93 -29t35 -82z" />
    <glyph glyph-name="uni2076" unicode="&#x2076;" horiz-adv-x="395" 
d="M329 633q-75 -22 -118 -56.5t-55 -91.5q30 21 78 21q57 0 94.5 -32.5t37.5 -92.5q0 -67 -43 -103.5t-125 -36.5q-81 0 -124.5 43t-43.5 122q0 75 43.5 134t106 90.5t135.5 41.5zM200 457q-26 0 -50 -13q-1 -16 -1 -44q0 -57 14.5 -88t40.5 -31q49 0 49 87q0 89 -53 89z
" />
    <glyph glyph-name="uni2077" unicode="&#x2077;" horiz-adv-x="355" 
d="M336 653l-13 -82q-119 -139 -153 -320l-122 -17q24 86 81 173.5t125 158.5h-235l13 87h304z" />
    <glyph glyph-name="uni2078" unicode="&#x2078;" horiz-adv-x="397" 
d="M27 341q0 67 97 96q-79 33 -79 110q0 54 45.5 84t108.5 30q69 0 109 -25.5t40 -69.5q0 -33 -22 -51t-64 -31q108 -38 108 -123q0 -57 -46 -89t-126 -32q-85 0 -128 27t-43 74zM271 339q0 7 -1.5 13.5t-5 11.5t-7 9.5t-10.5 9t-12.5 7.5t-16.5 7.5l-17.5 7l-21 8
l-22.5 8.5q-35 -31 -35 -72q0 -33 19.5 -50t54.5 -17t55 15.5t20 41.5zM145 569q0 -22 15 -35.5t64 -31.5q17 12 25 25.5t8 37.5q0 52 -56 52t-56 -48z" />
    <glyph glyph-name="uni2079" unicode="&#x2079;" horiz-adv-x="393" 
d="M46 264q170 50 190 153q-27 -21 -75 -21q-57 0 -94.5 32.5t-37.5 92.5q0 66 44.5 102.5t123.5 36.5q82 0 124 -42.5t42 -122.5q0 -110 -84.5 -180t-198.5 -85zM192 444q24 0 49 14q2 15 2 43q0 118 -53 118q-51 0 -51 -86q0 -89 53 -89z" />
    <glyph glyph-name="uni2080" unicode="&#x2080;" horiz-adv-x="431" 
d="M400 47q0 -105 -53 -158.5t-135 -53.5q-85 0 -133.5 52.5t-48.5 154.5q0 106 51 159.5t137 53.5q79 0 130.5 -54.5t51.5 -153.5zM275 47q0 161 -63 161q-62 0 -62 -159q0 -92 14.5 -131.5t48.5 -39.5q31 0 46.5 39t15.5 130z" />
    <glyph glyph-name="uni2081" unicode="&#x2081;" horiz-adv-x="350" 
d="M250 247v-297q0 -41 14.5 -54.5t65.5 -15.5v-36h-283v36q54 3 70 16t16 55v204q-40 -26 -84 -38l-19 39l148 91h72z" />
    <glyph glyph-name="uni2082" unicode="&#x2082;" horiz-adv-x="384" 
d="M180 255q70 0 111 -31.5t41 -89.5q0 -62 -38 -98.5t-134 -88.5l-38 -21h232l-11 -82h-323v60l69 61q66 58 87.5 86t21.5 71q0 29 -18 44t-44 15q-48 0 -85 -27l-23 37q62 64 152 64z" />
    <glyph glyph-name="uni2083" unicode="&#x2083;" horiz-adv-x="353" 
d="M128 192q-41 0 -82 -25l-21 37q61 51 148 51q61 0 99 -26t38 -73q0 -37 -29 -62.5t-77 -35.5q54 -3 86 -31t32 -69q0 -66 -63.5 -100t-152.5 -34q-49 0 -86 10l-8 48q37 -8 70 -8q50 0 78.5 23.5t28.5 63.5q0 67 -73 67q-18 0 -30 -1v53q13 -1 35 -1q34 0 50.5 14
t16.5 48q0 25 -16.5 38t-43.5 13z" />
    <glyph glyph-name="uni2084" unicode="&#x2084;" horiz-adv-x="398" 
d="M199 -168v101h-182v51l139 262h100l-158 -258h101q0 97 38 150l79 10v-160h52v-55h-52v-92z" />
    <glyph glyph-name="uni2085" unicode="&#x2085;" horiz-adv-x="335" 
d="M298 -26q0 -69 -61 -106.5t-142 -37.5q-42 0 -78 11l-7 47q28 -8 64 -8q39 0 69 19.5t30 63.5q0 65 -64 65q-39 0 -67 -11l21 230h230l-12 -87h-167l-9 -84q31 9 65 9q58 0 93 -29t35 -82z" />
    <glyph glyph-name="uni2086" unicode="&#x2086;" horiz-adv-x="395" 
d="M329 227q-75 -22 -118 -56.5t-55 -91.5q28 20 78 20q57 0 94.5 -32.5t37.5 -92.5q0 -67 -43 -103t-125 -36q-81 0 -124.5 43t-43.5 122q0 75 43.5 134t106 90.5t135.5 41.5zM200 51q-26 0 -50 -13q-1 -16 -1 -44q0 -57 14.5 -88t40.5 -31q49 0 49 87q0 89 -53 89z" />
    <glyph glyph-name="uni2087" unicode="&#x2087;" horiz-adv-x="355" 
d="M336 247l-13 -83q-119 -139 -153 -319l-122 -17q24 86 81 173.5t125 157.5h-235l13 88h304z" />
    <glyph glyph-name="uni2088" unicode="&#x2088;" horiz-adv-x="397" 
d="M27 -65q0 68 97 95q-79 35 -79 111q0 54 45.5 84t108.5 30q69 0 109 -25.5t40 -69.5q0 -33 -22 -51t-64 -31q51 -19 79.5 -47t28.5 -76q0 -57 -46 -89t-126 -32q-85 0 -128 27t-43 74zM271 -67q0 7 -1.5 13t-5 11.5t-6.5 9.5t-11 9t-12.5 7.5t-16 7.5l-17.5 7.5t-21.5 8
t-22.5 8.5q-35 -31 -35 -72q0 -33 19.5 -50t54.5 -17t55 15.5t20 41.5zM145 162q0 -21 15 -34.5t64 -31.5q17 12 25 25.5t8 37.5q0 52 -56 52q-27 0 -41.5 -13t-14.5 -36z" />
    <glyph glyph-name="uni2089" unicode="&#x2089;" horiz-adv-x="393" 
d="M46 -142q169 48 190 152q-28 -20 -75 -20q-58 0 -95 32.5t-37 92.5q0 66 44.5 102.5t123.5 36.5q82 0 124 -42.5t42 -122.5q0 -110 -84 -180t-199 -86zM192 38q26 0 49 13q2 16 2 44q0 117 -53 117q-51 0 -51 -85q0 -89 53 -89z" />
    <glyph glyph-name="Euro" unicode="&#x20ac;" horiz-adv-x="666" 
d="M506 249h-236q10 -111 44 -152t94 -41q55 0 78 27t33 92h102v-132q-31 -24 -90.5 -39.5t-130.5 -15.5q-127 0 -203 67t-96 194h-81v56h75v33q0 24 1 36h-76v56h81q20 138 100.5 207.5t206.5 69.5q132 0 208 -50v-134h-107q-13 63 -33 89t-68 26q-62 0 -96 -47t-42 -161
h236v-56h-239v-69h239v-56z" />
    <glyph glyph-name="uni20B4" unicode="&#x20b4;" horiz-adv-x="577" 
d="M537 198h-269q-27 -34 -27 -77q0 -31 21 -49.5t55 -18.5q35 0 56 24t33 73h96v-115q-96 -47 -208 -47q-107 0 -162.5 31.5t-55.5 90.5q0 56 38 88h-74v42h141l63 42h-204v42h265q33 30 33 76q0 61 -57 61q-59 0 -78 -88h-101v113q94 39 191 39q114 0 165 -30t51 -78
q0 -56 -51 -93h79v-42h-149l-63 -42h212v-42z" />
    <glyph glyph-name="afii61352" unicode="&#x2116;" horiz-adv-x="1145" 
d="M534 381v194q0 42 -14.5 56.5t-54.5 15.5v48h220v-48q-39 -1 -53 -15.5t-14 -56.5v-575h-112l-245 380q-52 81 -83 149h-4q9 -69 9 -153v-259q0 -42 14.5 -56.5t54.5 -14.5v-46h-223v46q40 0 54 14.5t14 56.5v458q0 42 -14 56.5t-54 15.5v48h231l212 -333q42 -66 66 -130
h5q-9 69 -9 149zM1100 238v-67h-367v67h367zM919 353q64 0 64 162q0 79 -16 111.5t-49 32.5q-34 0 -49.5 -35t-15.5 -120q0 -81 14.5 -116t51.5 -35zM915 305q-90 0 -140.5 52.5t-50.5 146.5q0 92 53 147.5t144 55.5q87 0 138.5 -50t51.5 -145q0 -102 -55.5 -154.5
t-140.5 -52.5z" />
    <glyph glyph-name="uni2117" unicode="&#x2117;" horiz-adv-x="801" 
d="M401 31q129 0 215 86t86 226q0 142 -86 228t-215 86t-215 -86t-86 -228q0 -140 86 -226t215 -86zM245 548h172q84 0 125.5 -26t41.5 -97q0 -133 -136 -133h-61v-53q0 -34 11 -43.5t47 -10.5v-35h-200v35q30 0 36.5 9.5t6.5 44.5v215q0 35 -6.5 46t-36.5 11v37zM480 423
q0 46 -15 62.5t-56 16.5h-22v-166h28q39 0 52 17.5t13 69.5zM401 -12q-154 0 -255 98t-101 258q0 157 103 257t253 100t253 -100t103 -257q0 -160 -101 -258t-255 -98z" />
    <glyph glyph-name="trademark" unicode="&#x2122;" horiz-adv-x="1136" 
d="M191 648h-13q-48 0 -62.5 -20t-20.5 -85h-45v152h385l8 -152h-44q-12 65 -28.5 85t-57.5 20h-8v-241q0 -44 11.5 -58t57.5 -15v-36h-252v36q47 1 58 15t11 58v241zM1050 695v-35q-28 -1 -37.5 -9t-9.5 -27q0 -6 2 -24l15 -193q4 -45 16 -60t43 -17v-32h-219v32
q29 2 39.5 11t10.5 39q0 16 -1 26l-10 126q-1 17 -1 48q0 29 1 39h-5q-9 -43 -24 -88l-76 -233h-79l-76 233q-5 17 -23 88h-6q0 -47 -3 -89l-8 -124q0 -2 -0.5 -9.5t-0.5 -10.5q0 -32 12 -42.5t45 -12.5v-33h-175v33q32 2 45.5 15.5t16.5 58.5l14 196q2 34 -8 46t-45 14v34
h195l66 -201q17 -50 17 -90h5q2 31 19 88l63 203h182z" />
    <glyph glyph-name="Omega" unicode="&#x2126;" horiz-adv-x="727" 
d="M363 641q-78 0 -110.5 -57t-32.5 -195q0 -107 25.5 -179t85.5 -125v-85h-285l-14 166h62q11 -52 34.5 -65t79.5 -13h37q-81 47 -138.5 126.5t-57.5 180.5q0 141 88.5 226.5t225.5 85.5t226 -86t89 -226q0 -101 -57.5 -180.5t-138.5 -126.5h37q56 0 79.5 13t34.5 65h61
l-13 -166h-286v85q60 53 85.5 125t25.5 179q0 139 -32 195.5t-111 56.5z" />
    <glyph glyph-name="estimated" unicode="&#x212e;" horiz-adv-x="945" 
d="M875 339h-657v-218q30 -45 104.5 -71t150.5 -26q75 0 147.5 25.5t112.5 72.5h58q-118 -137 -319 -137q-172 0 -287 102.5t-115 259.5q0 156 117.5 262t284.5 106q165 0 284 -106.5t119 -269.5zM727 379v195q-94 102 -254 102q-172 0 -255 -101v-196h509z" />
    <glyph glyph-name="uni2150" unicode="&#x2150;" horiz-adv-x="964" 
d="M250 653v-297q0 -41 14.5 -54.5t64.5 -14.5v-37h-282v37q54 2 70 15t16 55v204q-36 -23 -84 -38l-19 39l148 91h72zM758 730l-487 -853h-70l487 853h70zM946 403l-13 -82q-119 -139 -153 -320l-122 -17q24 86 81 174.5t125 157.5h-235l13 87h304z" />
    <glyph glyph-name="uni2151" unicode="&#x2151;" horiz-adv-x="968" 
d="M250 653v-297q0 -41 14.5 -54.5t64.5 -14.5v-37h-282v37q54 2 70 15t16 55v204q-36 -23 -84 -38l-19 39l148 91h72zM758 730l-487 -853h-70l487 853h70zM621 14q170 50 190 153q-27 -21 -75 -21q-57 0 -94.5 32.5t-37.5 92.5q0 66 44.5 102.5t123.5 36.5q82 0 124 -42.5
t42 -122.5q0 -110 -84 -180t-199 -86zM767 194q25 0 49 14q2 15 2 43q0 118 -53 118q-51 0 -51 -86q0 -89 53 -89z" />
    <glyph glyph-name="uni2152" unicode="&#x2152;" horiz-adv-x="1341" 
d="M250 653v-297q0 -41 14.5 -54.5t64.5 -14.5v-37h-282v37q54 2 70 15t16 55v204q-36 -23 -84 -38l-19 39l148 91h72zM758 730l-487 -853h-70l487 853h70zM810 403v-297q0 -41 14.5 -54.5t64.5 -14.5v-37h-282v37q54 2 70 15t16 55v204q-36 -23 -84 -38l-19 39l148 91h72z
M1310 203q0 -104 -53.5 -158t-134.5 -54q-85 0 -133.5 52.5t-48.5 155.5q0 105 51 158.5t137 53.5q79 0 130.5 -54.5t51.5 -153.5zM1185 203q0 161 -63 161q-62 0 -62 -159q0 -91 14.5 -131t48.5 -40q31 0 46.5 39t15.5 130z" />
    <glyph glyph-name="onethird" unicode="&#x2153;" horiz-adv-x="973" 
d="M250 653v-297q0 -41 14.5 -54.5t65.5 -14.5v-37h-283v37q54 2 70 15t16 55v204q-36 -23 -84 -38l-19 39l148 91h72zM763 730l-487 -853h-70l487 853h70zM748 348q-41 0 -82 -25l-21 38q62 50 148 50q61 0 99 -26t38 -73q0 -37 -29 -62.5t-77 -35.5q54 -3 86 -31t32 -69
q0 -66 -63.5 -100t-152.5 -34q-49 0 -86 10l-8 48q32 -7 70 -7q50 0 78.5 23t28.5 63q0 67 -73 67q-18 0 -30 -1v54q13 -1 35 -1q34 0 50.5 13.5t16.5 47.5q0 25 -16.5 38t-43.5 13z" />
    <glyph glyph-name="twothirds" unicode="&#x2154;" horiz-adv-x="1007" 
d="M180 661q70 0 111 -31t41 -90q0 -62 -41 -101t-131 -85l-38 -21h232l-11 -83h-323v60l69 61q67 59 88 87t21 70q0 29 -18 44t-44 15q-48 0 -85 -26l-23 36q62 64 152 64zM797 730l-487 -853h-69l487 853h69zM783 348q-41 0 -82 -25l-21 38q62 50 147 50q61 0 99 -26
t38 -73q0 -37 -29 -62.5t-76 -35.5q54 -3 86 -31t32 -69q0 -66 -64 -100t-152 -34q-49 0 -86 10l-9 48q34 -7 70 -7q51 0 79 23t28 63q0 67 -72 67q-18 0 -30 -1v54q12 -1 35 -1q34 0 50.5 13.5t16.5 47.5q0 24 -17 37.5t-43 13.5z" />
    <glyph glyph-name="uni2155" unicode="&#x2155;" horiz-adv-x="930" 
d="M250 653v-297q0 -41 14.5 -54.5t64.5 -14.5v-37h-282v37q54 2 70 15t16 55v204q-36 -23 -84 -38l-19 39l148 91h72zM758 730l-487 -853h-70l487 853h70zM893 130q0 -69 -60.5 -106t-142.5 -37q-42 0 -78 11l-7 46q28 -8 64 -8q39 0 69 19.5t30 64.5q0 64 -64 64
q-39 0 -67 -11l21 230h229l-11 -87h-167l-9 -84q31 9 64 9q59 0 94 -29t35 -82z" />
    <glyph glyph-name="uni2156" unicode="&#x2156;" horiz-adv-x="969" 
d="M180 661q69 0 110.5 -31t41.5 -90q0 -33 -11.5 -59.5t-38.5 -49.5t-52 -38t-70 -39l-38 -21h232l-12 -83h-322v60l69 61q67 59 88 87t21 70q0 29 -18 44t-44 15q-48 0 -85 -26l-23 36q62 64 152 64zM797 730l-487 -853h-70l487 853h70zM932 130q0 -69 -60.5 -106
t-142.5 -37q-42 0 -78 11l-7 46q28 -8 64 -8q39 0 69 19.5t30 64.5q0 64 -64 64q-39 0 -67 -11l21 230h229l-11 -87h-167l-9 -84q31 9 64 9q59 0 94 -29t35 -82z" />
    <glyph glyph-name="uni2157" unicode="&#x2157;" horiz-adv-x="888" 
d="M716 730l-487 -853h-70l487 853h70zM851 130q0 -69 -60.5 -106t-142.5 -37q-42 0 -78 11l-7 46q28 -8 64 -8q39 0 69 19.5t30 64.5q0 64 -64 64q-39 0 -67 -11l21 230h229l-11 -87h-167l-9 -84q31 9 64 9q59 0 94 -29t35 -82zM128 598q-38 0 -82 -24l-21 37q62 50 148 50
q61 0 99 -26t38 -73q0 -37 -29 -62.5t-77 -35.5q54 -3 86 -31t32 -69q0 -66 -63.5 -100t-152.5 -34q-48 0 -86 10l-8 48q32 -7 70 -7q50 0 78.5 23t28.5 63q0 68 -73 68q-6 0 -30 -2v54q13 -1 35 -1q34 0 50.5 13.5t16.5 47.5q0 25 -16.5 38t-43.5 13z" />
    <glyph glyph-name="uni2158" unicode="&#x2158;" horiz-adv-x="943" 
d="M199 238v102h-182v50l139 262h100l-158 -258h101q0 97 38 150l79 11v-161h52v-54h-52v-93zM771 730l-487 -853h-70l487 853h70zM906 130q0 -69 -60.5 -106t-142.5 -37q-42 0 -78 11l-7 46q28 -8 64 -8q39 0 69 19.5t30 64.5q0 64 -64 64q-39 0 -67 -11l21 230h229
l-11 -87h-167l-9 -84q31 9 64 9q59 0 94 -29t35 -82z" />
    <glyph glyph-name="uni2159" unicode="&#x2159;" horiz-adv-x="950" 
d="M250 653v-297q0 -41 14.5 -54.5t64.5 -14.5v-37h-282v37q54 2 70 15t16 55v204q-36 -23 -84 -38l-19 39l148 91h72zM758 730l-487 -853h-70l487 853h70zM884 383q-76 -22 -119 -56.5t-55 -91.5q32 21 79 21q57 0 94.5 -32.5t37.5 -92.5q0 -67 -43 -103.5t-125 -36.5
q-81 0 -124.5 43t-43.5 122q0 75 43.5 134t106 90.5t135.5 41.5zM755 207q-26 0 -50 -13q-1 -16 -1 -44q0 -57 14.5 -88t40.5 -31q49 0 49 87q0 89 -53 89z" />
    <glyph glyph-name="uni215A" unicode="&#x215a;" horiz-adv-x="880" 
d="M298 380q0 -69 -60.5 -106t-142.5 -37q-42 0 -78 11l-7 46q28 -8 64 -8q39 0 69 19.5t30 64.5q0 64 -64 64q-39 0 -67 -11l21 230h229l-11 -87h-167l-9 -84q31 9 64 9q59 0 94 -29t35 -82zM688 730l-487 -853h-70l487 853h70zM814 383q-76 -22 -119 -56.5t-55 -91.5
q32 21 79 21q57 0 94.5 -32.5t37.5 -92.5q0 -67 -43 -103.5t-125 -36.5q-81 0 -124.5 43t-43.5 122q0 75 43.5 134t106 90.5t135.5 41.5zM685 207q-26 0 -50 -13q-1 -16 -1 -44q0 -57 14.5 -88t40.5 -31q49 0 49 87q0 89 -53 89z" />
    <glyph glyph-name="oneeighth" unicode="&#x215b;" horiz-adv-x="996" 
d="M250 653v-297q0 -41 14.5 -54.5t65.5 -14.5v-37h-283v37q54 2 70 15t16 55v204q-36 -23 -84 -38l-19 39l148 91h72zM763 730l-487 -853h-70l487 853h70zM626 91q0 67 97 96q-79 33 -79 110q0 54 45.5 84t107.5 30q69 0 109.5 -25.5t40.5 -69.5q0 -33 -22 -51t-64 -31
q108 -38 108 -123q0 -57 -46 -89t-126 -32q-85 0 -128 27t-43 74zM869 89q0 7 -1.5 13t-5 11.5l-6.5 10t-10.5 9l-12.5 7.5t-16 7.5l-17.5 7l-21 8l-22.5 8.5q-35 -31 -35 -72q0 -33 19.5 -50t54.5 -17t54.5 15.5t19.5 41.5zM744 319q0 -22 15 -35.5t64 -31.5q17 12 25 25.5
t8 37.5q0 52 -56 52t-56 -48z" />
    <glyph glyph-name="threeeighths" unicode="&#x215c;" horiz-adv-x="978" 
d="M128 598q-41 0 -82 -25l-21 38q62 50 148 50q61 0 99 -26t38 -73q0 -37 -29 -62.5t-77 -35.5q54 -3 86 -31t32 -69q0 -66 -63.5 -100t-152.5 -34q-49 0 -86 10l-8 48q32 -7 70 -7q50 0 78.5 23t28.5 63q0 67 -73 67q-18 0 -30 -1v54q13 -1 35 -1q34 0 50.5 13.5
t16.5 47.5q0 25 -16.5 38t-43.5 13zM744 730l-487 -853h-69l487 853h69zM608 91q0 68 97 96q-80 34 -80 110q0 54 45.5 84t108.5 30q69 0 109 -25.5t40 -69.5q0 -33 -21.5 -51t-63.5 -31q108 -38 108 -123q0 -57 -46 -89t-127 -32q-85 0 -127.5 27t-42.5 74zM851 89
q0 7 -1 13t-5 11.5l-7 10t-10.5 9t-12.5 7t-16.5 7.5l-17.5 7.5t-21 8l-23 8.5q-35 -32 -35 -72q0 -67 75 -67q34 0 54 15.5t20 41.5zM726 319q0 -22 15 -35.5t63 -31.5q17 12 25 25.5t8 37.5q0 52 -56 52q-26 0 -40.5 -12.5t-14.5 -35.5z" />
    <glyph glyph-name="fiveeighths" unicode="&#x215d;" horiz-adv-x="953" 
d="M298 380q0 -69 -60.5 -106t-142.5 -37q-42 0 -78 11l-7 46q28 -8 64 -8q39 0 69 19.5t30 64.5q0 64 -64 64q-39 0 -67 -11l21 230h230l-12 -87h-167l-9 -84q31 9 65 9q58 0 93 -29t35 -82zM719 730l-487 -853h-69l487 853h69zM583 91q0 68 97 96q-80 34 -80 110
q0 54 46 84t108 30q69 0 109 -25.5t40 -69.5q0 -33 -21.5 -51t-63.5 -31q108 -38 108 -123q0 -57 -46 -89t-126 -32q-86 0 -128.5 27t-42.5 74zM826 89q0 7 -1 13t-5 11.5l-7 10t-10.5 9t-12.5 7t-16.5 7.5l-17.5 7.5t-21 8l-23 8.5q-35 -32 -35 -72q0 -67 75 -67
q34 0 54 15.5t20 41.5zM701 319q0 -22 15 -35.5t63 -31.5q17 12 25 25.5t8 37.5q0 52 -56 52q-26 0 -40.5 -12.5t-14.5 -35.5z" />
    <glyph glyph-name="seveneighths" unicode="&#x215e;" horiz-adv-x="896" 
d="M336 653l-13 -82q-119 -139 -153 -320l-122 -17q24 86 81 173.5t125 158.5h-235l13 87h304zM663 730l-487 -853h-70l487 853h70zM526 91q0 67 97 96q-79 33 -79 110q0 54 45.5 84t108.5 30q69 0 109 -25.5t40 -69.5q0 -33 -22 -51t-64 -31q108 -38 108 -123
q0 -57 -46 -89t-126 -32q-85 0 -128 27t-43 74zM770 89q0 7 -1.5 13.5t-5 11.5t-7 9.5t-10.5 9t-12.5 7.5t-16.5 7.5l-17.5 7l-21 8l-22.5 8.5q-35 -31 -35 -72q0 -33 19.5 -50t54.5 -17t55 15.5t20 41.5zM644 319q0 -22 15 -35.5t64 -31.5q17 12 25 25.5t8 37.5
q0 52 -56 52t-56 -48z" />
    <glyph glyph-name="uni215F" unicode="&#x215f;" horiz-adv-x="615" 
d="M250 653v-297q0 -41 14.5 -54.5t64.5 -14.5v-37h-282v37q54 2 70 15t16 55v204q-36 -23 -84 -38l-19 39l148 91h72zM758 730l-487 -853h-70l487 853h70z" />
    <glyph glyph-name="uni2189" unicode="&#x2189;" horiz-adv-x="953" 
d="M400 453q0 -104 -53.5 -158t-134.5 -54q-85 0 -133.5 52.5t-48.5 155.5q0 105 51 158.5t137 53.5q79 0 130.5 -54.5t51.5 -153.5zM275 453q0 161 -63 161q-62 0 -62 -159q0 -91 14.5 -131t48.5 -40q31 0 46.5 39t15.5 130zM773 730l-487 -853h-70l487 853h70zM728 348
q-38 0 -82 -24l-21 37q62 50 148 50q61 0 99 -26t38 -73q0 -37 -29 -62.5t-77 -35.5q54 -3 86 -31t32 -69q0 -66 -63.5 -100t-152.5 -34q-48 0 -86 10l-8 48q32 -7 70 -7q50 0 78.5 23t28.5 63q0 68 -73 68q-6 0 -30 -2v54q13 -1 35 -1q34 0 50.5 13.5t16.5 47.5
q0 25 -16.5 38t-43.5 13z" />
    <glyph glyph-name="arrowleft" unicode="&#x2190;" horiz-adv-x="1011" 
d="M154 263q0 -22 -16 -37.5t-38 -15.5t-37 15.5t-15 37.5t15 37.5t37 15.5t38 -15.5t16 -37.5zM232 143q0 -23 -15 -38.5t-37 -15.5t-38 15.5t-16 38.5q0 22 16 37.5t38 15.5t37 -15.5t15 -37.5zM232 383q0 -22 -15 -37.5t-37 -15.5t-38 15.5t-16 37.5t16 38t38 16t37 -16
t15 -38zM312 22q0 -22 -16 -37.5t-38 -15.5t-37.5 15.5t-15.5 37.5t15.5 38t37.5 16t38 -16t16 -38zM316 263q0 -22 -16 -37.5t-38 -15.5t-37.5 15.5t-15.5 37.5t15.5 37.5t37.5 15.5t38 -15.5t16 -37.5zM312 503q0 -22 -16 -37.5t-38 -15.5t-37.5 15.5t-15.5 37.5t15.5 38
t37.5 16t38 -16t16 -38zM390 -98q0 -22 -15.5 -37.5t-37.5 -15.5t-37.5 15.5t-15.5 37.5t15.5 38t37.5 16t37.5 -15.5t15.5 -38.5zM390 623q0 -22 -15.5 -37.5t-37.5 -15.5t-37.5 15.5t-15.5 37.5t15.5 38t37.5 16t37.5 -16t15.5 -38zM477 263q0 -22 -15.5 -37.5
t-37.5 -15.5t-38 15.5t-16 37.5t16 37.5t38 15.5t37.5 -15.5t15.5 -37.5zM638 263q0 -22 -15.5 -37.5t-37.5 -15.5t-37.5 15.5t-15.5 37.5t15.5 37.5t37.5 15.5t37.5 -15.5t15.5 -37.5zM800 263q0 -22 -16 -37.5t-38 -15.5t-37 15.5t-15 37.5t15 37.5t37 15.5t38 -15.5
t16 -37.5zM962 263q0 -22 -16 -37.5t-38 -15.5t-37.5 15.5t-15.5 37.5t15.5 37.5t37.5 15.5t38 -15.5t16 -37.5z" />
    <glyph glyph-name="arrowup" unicode="&#x2191;" horiz-adv-x="1011" 
d="M505 -90q-22 0 -37.5 15.5t-15.5 37.5t15.5 37.5t37.5 15.5t37.5 -15.5t15.5 -37.5t-15.5 -37.5t-37.5 -15.5zM505 71q-22 0 -37.5 16t-15.5 38t15.5 37t37.5 15t37.5 -15t15.5 -37t-15.5 -38t-37.5 -16zM505 233q-22 0 -37.5 15.5t-15.5 37.5t15.5 37.5t37.5 15.5
t37.5 -15.5t15.5 -37.5t-15.5 -37.5t-37.5 -15.5zM505 394q-22 0 -37.5 15.5t-15.5 37.5t15.5 38t37.5 16t37.5 -16t15.5 -38t-15.5 -37.5t-37.5 -15.5zM505 555q-22 0 -37.5 16t-15.5 38t15.5 37.5t37.5 15.5t37.5 -15.5t15.5 -37.5t-15.5 -38t-37.5 -16zM505 717
q-22 0 -37.5 16t-15.5 38t15.5 37t37.5 15t37.5 -15t15.5 -37t-15.5 -38t-37.5 -16zM385 639q-22 0 -38 15t-16 37t16 38t38 16t37.5 -16t15.5 -38t-15.5 -37t-37.5 -15zM265 559q-22 0 -38 16t-16 38t16 37.5t38 15.5t37.5 -15.5t15.5 -37.5t-15.5 -38t-37.5 -16zM145 481
q-22 0 -38 15.5t-16 37.5t16 37.5t38 15.5t37.5 -15.5t15.5 -37.5t-15.5 -37.5t-37.5 -15.5zM625 639q-22 0 -37.5 15t-15.5 37t15.5 38t37.5 16q23 0 38.5 -15.5t15.5 -38.5q0 -22 -15.5 -37t-38.5 -15zM746 559q-22 0 -38 16t-16 38t16 37.5t38 15.5t37.5 -15.5
t15.5 -37.5t-15.5 -38t-37.5 -16zM866 481q-22 0 -38 15.5t-16 37.5t16 37.5t38 15.5t37.5 -15.5t15.5 -37.5t-15.5 -37.5t-37.5 -15.5z" />
    <glyph glyph-name="arrowright" unicode="&#x2192;" horiz-adv-x="1011" 
d="M48 263q0 22 15 37.5t37 15.5t38 -15.5t16 -37.5t-16 -37.5t-38 -15.5t-37 15.5t-15 37.5zM209 263q0 22 15.5 37.5t37.5 15.5t38 -15.5t16 -37.5t-16 -37.5t-38 -15.5t-37.5 15.5t-15.5 37.5zM370 263q0 22 16 37.5t38 15.5t37.5 -15.5t15.5 -37.5t-15.5 -37.5
t-37.5 -15.5t-38 15.5t-16 37.5zM532 263q0 22 15.5 37.5t37.5 15.5t37.5 -15.5t15.5 -37.5t-15.5 -37.5t-37.5 -15.5t-37.5 15.5t-15.5 37.5zM619 -98q0 23 15.5 38.5t37.5 15.5t37.5 -16t15.5 -38t-15.5 -37.5t-37.5 -15.5t-37.5 15.5t-15.5 37.5zM619 623q0 22 15.5 38
t37.5 16t37.5 -16t15.5 -38t-15.5 -37.5t-37.5 -15.5t-37.5 15.5t-15.5 37.5zM697 22q0 22 15.5 38t37.5 16t38 -16t16 -38t-16 -37.5t-38 -15.5t-37.5 15.5t-15.5 37.5zM694 263q0 22 15 37.5t37 15.5t38 -15.5t16 -37.5t-16 -37.5t-38 -15.5t-37 15.5t-15 37.5zM697 503
q0 22 15.5 38t37.5 16t38 -16t16 -38t-16 -37.5t-38 -15.5t-37.5 15.5t-15.5 37.5zM776 143q0 22 16 37.5t38 15.5t37 -15.5t15 -37.5q0 -23 -15 -38.5t-37 -15.5t-38 15.5t-16 38.5zM776 383q0 22 16 38t38 16t37 -16t15 -38t-15 -37.5t-37 -15.5t-38 15.5t-16 37.5z
M855 263q0 22 15.5 37.5t37.5 15.5t38 -15.5t16 -37.5t-16 -37.5t-38 -15.5t-37.5 15.5t-15.5 37.5z" />
    <glyph glyph-name="arrowdown" unicode="&#x2193;" horiz-adv-x="1011" 
d="M505 823q22 0 37.5 -15t15.5 -37t-15.5 -38t-37.5 -16t-37.5 16t-15.5 38t15.5 37t37.5 15zM505 662q22 0 37.5 -15.5t15.5 -37.5t-15.5 -38t-37.5 -16t-37.5 16t-15.5 38t15.5 37.5t37.5 15.5zM505 501q22 0 37.5 -16t15.5 -38t-15.5 -37.5t-37.5 -15.5t-37.5 15.5
t-15.5 37.5t15.5 38t37.5 16zM505 339q22 0 37.5 -15.5t15.5 -37.5t-15.5 -37.5t-37.5 -15.5t-37.5 15.5t-15.5 37.5t15.5 37.5t37.5 15.5zM505 177q22 0 37.5 -15t15.5 -37t-15.5 -38t-37.5 -16t-37.5 16t-15.5 38t15.5 37t37.5 15zM505 16q22 0 37.5 -15.5t15.5 -37.5
t-15.5 -37.5t-37.5 -15.5t-37.5 15.5t-15.5 37.5t15.5 37.5t37.5 15.5zM625 95q23 0 38.5 -15.5t15.5 -38.5q0 -22 -15.5 -37t-38.5 -15q-22 0 -37.5 15t-15.5 37t15.5 38t37.5 16zM746 174q22 0 37.5 -15.5t15.5 -37.5t-15.5 -38t-37.5 -16t-38 15.5t-16 38.5q0 22 16 37.5
t38 15.5zM866 253q22 0 37.5 -16t15.5 -38t-15.5 -37.5t-37.5 -15.5t-38 15.5t-16 37.5q0 23 16 38.5t38 15.5zM385 95q22 0 37.5 -16t15.5 -38t-15.5 -37t-37.5 -15t-38 15t-16 37t16 38t38 16zM265 174q22 0 37.5 -15.5t15.5 -37.5t-15.5 -38t-37.5 -16t-38 16t-16 38
t16 37.5t38 15.5zM145 253q22 0 37.5 -16t15.5 -38t-15.5 -37.5t-37.5 -15.5t-38 15.5t-16 37.5t16 38t38 16z" />
    <glyph glyph-name="arrowboth" unicode="&#x2194;" horiz-adv-x="1332" 
d="M154 263q0 -22 -16 -37.5t-38 -15.5t-37 15.5t-15 37.5t15 37.5t37 15.5t38 -15.5t16 -37.5zM232 143q0 -23 -15 -38.5t-37 -15.5t-38 15.5t-16 38.5q0 22 16 37.5t38 15.5t37 -15.5t15 -37.5zM232 383q0 -22 -15 -37.5t-37 -15.5t-38 15.5t-16 37.5t16 38t38 16t37 -16
t15 -38zM312 22q0 -22 -16 -37.5t-38 -15.5t-37.5 15.5t-15.5 37.5t15.5 38t37.5 16t38 -16t16 -38zM316 263q0 -22 -16 -37.5t-38 -15.5t-37.5 15.5t-15.5 37.5t15.5 37.5t37.5 15.5t38 -15.5t16 -37.5zM312 503q0 -22 -16 -37.5t-38 -15.5t-37.5 15.5t-15.5 37.5t15.5 38
t37.5 16t38 -16t16 -38zM390 -98q0 -22 -15.5 -37.5t-37.5 -15.5t-37.5 15.5t-15.5 37.5t15.5 38t37.5 16t37.5 -15.5t15.5 -38.5zM390 623q0 -22 -15.5 -37.5t-37.5 -15.5t-37.5 15.5t-15.5 37.5t15.5 38t37.5 16t37.5 -16t15.5 -38zM1178 263q0 22 16 37.5t38 15.5
t37 -15.5t15 -37.5t-15 -37.5t-37 -15.5t-38 15.5t-16 37.5zM1100 143q0 22 15 37.5t37 15.5t38 -15.5t16 -37.5q0 -23 -16 -38.5t-38 -15.5t-37 15.5t-15 38.5zM1100 383q0 22 15 38t37 16t38 -16t16 -38t-16 -37.5t-38 -15.5t-37 15.5t-15 37.5zM1020 22q0 22 16 38t38 16
t37.5 -16t15.5 -38t-15.5 -37.5t-37.5 -15.5t-38 15.5t-16 37.5zM1016 263q0 22 16 37.5t38 15.5t37.5 -15.5t15.5 -37.5t-15.5 -37.5t-37.5 -15.5t-38 15.5t-16 37.5zM1020 503q0 22 16 38t38 16t37.5 -16t15.5 -38t-15.5 -37.5t-37.5 -15.5t-38 15.5t-16 37.5zM942 -98
q0 23 15.5 38.5t37.5 15.5t37.5 -16t15.5 -38t-15.5 -37.5t-37.5 -15.5t-37.5 15.5t-15.5 37.5zM942 623q0 22 15.5 38t37.5 16t37.5 -16t15.5 -38t-15.5 -37.5t-37.5 -15.5t-37.5 15.5t-15.5 37.5zM855 263q0 22 15.5 37.5t37.5 15.5t38 -15.5t16 -37.5t-16 -37.5
t-38 -15.5t-37.5 15.5t-15.5 37.5zM694 263q0 22 15.5 37.5t37.5 15.5t37.5 -15.5t15.5 -37.5t-15.5 -37.5t-37.5 -15.5t-37.5 15.5t-15.5 37.5zM532 263q0 22 16 37.5t38 15.5t37 -15.5t15 -37.5t-15 -37.5t-37 -15.5t-38 15.5t-16 37.5zM370 263q0 22 16 37.5t38 15.5
t37.5 -15.5t15.5 -37.5t-15.5 -37.5t-37.5 -15.5t-38 15.5t-16 37.5z" />
    <glyph glyph-name="arrowupdn" unicode="&#x2195;" horiz-adv-x="1011" 
d="M505 19q22 0 37.5 -15.5t15.5 -37.5t-15.5 -37.5t-37.5 -15.5t-37.5 15.5t-15.5 37.5t15.5 37.5t37.5 15.5zM505 -142q22 0 37.5 -15.5t15.5 -37.5t-15.5 -38t-37.5 -16t-37.5 16t-15.5 38t15.5 37.5t37.5 15.5zM625 -63q23 0 38.5 -15.5t15.5 -38.5q0 -22 -15.5 -37
t-38.5 -15q-22 0 -37.5 15t-15.5 37t15.5 38t37.5 16zM746 16q22 0 37.5 -16t15.5 -38t-15.5 -37.5t-37.5 -15.5t-38 15.5t-16 37.5t16 38t38 16zM866 94q22 0 37.5 -15.5t15.5 -37.5t-15.5 -37.5t-37.5 -15.5t-38 15.5t-16 37.5t15.5 37.5t38.5 15.5zM385 -63
q22 0 37.5 -16t15.5 -38t-15.5 -37t-37.5 -15t-38 15t-16 37t16 38t38 16zM265 16q22 0 37.5 -16t15.5 -38t-15.5 -37.5t-37.5 -15.5t-38 15.5t-16 37.5t16 38t38 16zM145 94q22 0 37.5 -15.5t15.5 -37.5t-15.5 -37.5t-37.5 -15.5t-38 15.5t-16 37.5t16 37.5t38 15.5z
M505 74q-22 0 -37.5 15.5t-15.5 37.5t15.5 38t37.5 16t37.5 -16t15.5 -38t-15.5 -37.5t-37.5 -15.5zM505 236q-22 0 -37.5 15.5t-15.5 37.5t15.5 38t37.5 16t37.5 -16t15.5 -38t-15.5 -37.5t-37.5 -15.5zM505 397q-22 0 -37.5 16t-15.5 38t15.5 37.5t37.5 15.5t37.5 -15.5
t15.5 -37.5t-15.5 -38t-37.5 -16zM505 559q-22 0 -37.5 15.5t-15.5 37.5t15.5 37.5t37.5 15.5t37.5 -15.5t15.5 -37.5t-15.5 -37.5t-37.5 -15.5zM505 720q-22 0 -37.5 15.5t-15.5 37.5t15.5 38t37.5 16t37.5 -16t15.5 -38t-15.5 -37.5t-37.5 -15.5zM625 641q-22 0 -37.5 16
t-15.5 38t15.5 37.5t37.5 15.5t38 -15.5t16 -37.5q0 -23 -15.5 -38.5t-38.5 -15.5zM746 562q-22 0 -38 16t-16 38t16 37.5t38 15.5t37.5 -15.5t15.5 -37.5t-15.5 -38t-37.5 -16zM866 484q-23 0 -38.5 15.5t-15.5 37.5t16 37.5t38 15.5t37.5 -15.5t15.5 -37.5t-15.5 -37.5
t-37.5 -15.5zM385 641q-22 0 -38 16t-16 38t16 37.5t38 15.5t37.5 -15.5t15.5 -37.5t-15.5 -38t-37.5 -16zM265 562q-22 0 -38 16t-16 38t16 37.5t38 15.5t37.5 -15.5t15.5 -37.5t-15.5 -38t-37.5 -16zM145 484q-22 0 -38 15.5t-16 37.5t16 37.5t38 15.5t37.5 -15.5
t15.5 -37.5t-15.5 -37.5t-37.5 -15.5z" />
    <glyph glyph-name="uni2196" unicode="&#x2196;" horiz-adv-x="1011" 
d="M834 19q22 0 38 -15.5t16 -37.5t-16 -37.5t-38 -15.5t-37 15.5t-15 37.5t15 37.5t37 15.5zM720 133q22 0 38 -15.5t16 -37.5t-16 -37.5t-38 -15.5t-37.5 15.5t-15.5 37.5t15.5 37.5t37.5 15.5zM605 248q22 0 38 -15.5t16 -37.5t-16 -37.5t-38 -15.5t-37 15.5t-15 37.5
t15 37.5t37 15.5zM492 362q22 0 38 -15.5t16 -37.5t-16 -37.5t-38 -15.5t-37 15.5t-15 37.5t15 37.5t37 15.5zM378 476q22 0 38 -15.5t16 -37.5t-16 -37.5t-38 -15.5t-37 15.5t-15 37.5t15 37.5t37 15.5zM263 590q22 0 38 -15.5t16 -37.5t-16 -37.5t-38 -15.5t-37 15.5
t-15 37.5t15 37.5t37 15.5zM234 449q22 0 37.5 -15.5t15.5 -37.5t-15.5 -37.5t-37.5 -15.5t-37.5 15.5t-15.5 37.5t15.5 37.5t37.5 15.5zM205 309q22 0 37.5 -15.5t15.5 -37.5t-15.5 -37.5t-37.5 -15.5t-37.5 15.5t-15.5 37.5t15.5 37.5t37.5 15.5zM176 168q22 0 37.5 -15.5
t15.5 -37.5t-15.5 -38t-37.5 -16t-37.5 16t-15.5 38t15.5 37.5t37.5 15.5zM404 620q22 0 37.5 -15.5t15.5 -37.5t-15.5 -37.5t-37.5 -15.5t-37.5 15.5t-15.5 37.5t15.5 37.5t37.5 15.5zM544 649q22 0 38 -15t16 -37t-16 -38t-38 -16t-37.5 16t-15.5 38t15.5 37t37.5 15z
M686 678q22 0 37.5 -15.5t15.5 -37.5t-15.5 -37.5t-37.5 -15.5t-37.5 15.5t-15.5 37.5t15.5 37.5t37.5 15.5z" />
    <glyph glyph-name="uni2197" unicode="&#x2197;" horiz-adv-x="1011" 
d="M177 19q22 0 37 -15.5t15 -37.5t-15 -37.5t-37 -15.5t-38 15.5t-16 37.5t16 37.5t38 15.5zM291 133q22 0 37.5 -15.5t15.5 -37.5t-15.5 -37.5t-37.5 -15.5t-38 15.5t-16 37.5t16 37.5t38 15.5zM406 248q22 0 37 -15.5t15 -37.5t-15 -37.5t-37 -15.5t-38 15.5t-16 37.5
t16 37.5t38 15.5zM519 362q22 0 37 -15.5t15 -37.5t-15 -37.5t-37 -15.5t-38 15.5t-16 37.5t16 37.5t38 15.5zM633 476q22 0 37 -15.5t15 -37.5t-15 -37.5t-37 -15.5t-38 15.5t-16 37.5t16 37.5t38 15.5zM748 590q22 0 37 -15.5t15 -37.5t-15 -37.5t-37 -15.5t-38 15.5
t-16 37.5t16 37.5t38 15.5zM777 449q22 0 37.5 -15.5t15.5 -37.5t-15.5 -37.5t-37.5 -15.5t-37.5 15.5t-15.5 37.5t15.5 37.5t37.5 15.5zM806 309q22 0 37.5 -15.5t15.5 -37.5t-15.5 -37.5t-37.5 -15.5t-37.5 15.5t-15.5 37.5t15.5 37.5t37.5 15.5zM835 168q22 0 37.5 -15.5
t15.5 -37.5t-15.5 -38t-37.5 -16t-37.5 16t-15.5 38t15.5 37.5t37.5 15.5zM607 620q22 0 37.5 -15.5t15.5 -37.5t-15.5 -37.5t-37.5 -15.5t-37.5 15.5t-15.5 37.5t15.5 37.5t37.5 15.5zM467 649q22 0 37.5 -15t15.5 -37t-15.5 -38t-37.5 -16t-38 16t-16 38t16 37t38 15z
M325 678q22 0 37.5 -15.5t15.5 -37.5t-15.5 -37.5t-37.5 -15.5t-37.5 15.5t-15.5 37.5t15.5 37.5t37.5 15.5z" />
    <glyph glyph-name="uni2198" unicode="&#x2198;" horiz-adv-x="1011" 
d="M177 572q-22 0 -38 15.5t-16 37.5t16 37.5t38 15.5t37 -15.5t15 -37.5t-15 -37.5t-37 -15.5zM291 458q-22 0 -38 15t-16 37t16 38t38 16t37.5 -16t15.5 -38t-15.5 -37t-37.5 -15zM406 343q-23 0 -38.5 15.5t-15.5 37.5t16 37.5t38 15.5t37 -15.5t15 -37.5t-15 -37.5
t-37 -15.5zM519 229q-23 0 -38.5 15.5t-15.5 37.5t16 37.5t38 15.5t37 -15.5t15 -37.5t-15 -37.5t-37 -15.5zM633 115q-22 0 -38 15.5t-16 37.5t16 37.5t38 15.5t37 -15.5t15 -37.5t-15 -37.5t-37 -15.5zM748 1q-22 0 -38 15.5t-16 37.5t16 37.5t38 15.5t37 -15.5t15 -37.5
t-15 -37.5t-37 -15.5zM777 142q-22 0 -37.5 15t-15.5 37t15.5 38t37.5 16t37.5 -16t15.5 -38t-15.5 -37t-37.5 -15zM806 282q-22 0 -37.5 15.5t-15.5 37.5t15.5 37.5t37.5 15.5t37.5 -15.5t15.5 -37.5t-15.5 -37.5t-37.5 -15.5zM835 423q-22 0 -37.5 15.5t-15.5 37.5
t15.5 37.5t37.5 15.5t37.5 -15.5t15.5 -37.5t-15.5 -37.5t-37.5 -15.5zM607 -29q-22 0 -37.5 15t-15.5 37t15.5 38t37.5 16t37.5 -16t15.5 -38t-15.5 -37t-37.5 -15zM467 -59q-22 0 -38 15.5t-16 37.5t16 38t38 16t37.5 -16t15.5 -38t-15.5 -37.5t-37.5 -15.5zM325 -87
q-22 0 -37.5 15.5t-15.5 37.5t15.5 37.5t37.5 15.5t37.5 -15.5t15.5 -37.5t-15.5 -37.5t-37.5 -15.5z" />
    <glyph glyph-name="uni2199" unicode="&#x2199;" horiz-adv-x="1011" 
d="M834 572q-22 0 -37 15.5t-15 37.5t15 37.5t37 15.5t38 -15.5t16 -37.5t-16 -37.5t-38 -15.5zM720 458q-22 0 -37.5 15t-15.5 37t15.5 38t37.5 16t38 -16t16 -38t-16 -37t-38 -15zM605 343q-22 0 -37 15.5t-15 37.5t15 37.5t37 15.5t38 -15.5t16 -37.5t-15.5 -37.5
t-38.5 -15.5zM492 229q-22 0 -37 15.5t-15 37.5t15 37.5t37 15.5t38 -15.5t16 -37.5t-15.5 -37.5t-38.5 -15.5zM378 115q-22 0 -37 15.5t-15 37.5t15 37.5t37 15.5t38 -15.5t16 -37.5t-16 -37.5t-38 -15.5zM263 1q-22 0 -37 15.5t-15 37.5t15 37.5t37 15.5t38 -15.5
t16 -37.5t-16 -37.5t-38 -15.5zM234 142q-22 0 -37.5 15t-15.5 37t15.5 38t37.5 16t37.5 -16t15.5 -38t-15.5 -37t-37.5 -15zM205 282q-22 0 -37.5 15.5t-15.5 37.5t15.5 37.5t37.5 15.5t37.5 -15.5t15.5 -37.5t-15.5 -37.5t-37.5 -15.5zM176 423q-22 0 -37.5 15.5
t-15.5 37.5t15.5 37.5t37.5 15.5t37.5 -15.5t15.5 -37.5t-15.5 -37.5t-37.5 -15.5zM404 -29q-22 0 -37.5 15t-15.5 37t15.5 38t37.5 16t37.5 -16t15.5 -38t-15.5 -37t-37.5 -15zM544 -59q-22 0 -37.5 15.5t-15.5 37.5t15.5 38t37.5 16t38 -16t16 -38t-16 -37.5t-38 -15.5z
M686 -87q-22 0 -37.5 15.5t-15.5 37.5t15.5 37.5t37.5 15.5t37.5 -15.5t15.5 -37.5t-15.5 -37.5t-37.5 -15.5z" />
    <glyph glyph-name="partialdiff" unicode="&#x2202;" horiz-adv-x="562" 
d="M267 462q50 0 86 -18q-31 86 -97.5 140.5t-184.5 95.5l47 42q85 -17 155 -50.5t128 -88.5t90.5 -139t32.5 -190q0 -126 -67 -196t-175 -70q-111 0 -179 61.5t-68 179.5q0 114 65 173.5t167 59.5zM370 259q0 69 -9 128q-28 18 -69 18q-102 0 -102 -177q0 -180 91 -180
q89 0 89 211z" />
    <glyph glyph-name="Delta" unicode="&#x2206;" horiz-adv-x="594" 
d="M581 0h-570v49l219 646h120l231 -646v-49zM104 69h305l-121 362q-28 81 -31 112h-5q-13 -60 -31 -114z" />
    <glyph glyph-name="product" unicode="&#x220f;" horiz-adv-x="741" 
d="M29 649h684v-48q-40 0 -54.5 -15t-14.5 -57v-593q0 -42 14.5 -56.5t54.5 -15.5v-45h-295v45q40 1 54.5 15.5t14.5 56.5v649h-233v-649q0 -42 14.5 -56.5t54.5 -15.5v-45h-294v45q40 1 54 15.5t14 56.5v593q0 42 -14.5 57t-53.5 15v48z" />
    <glyph glyph-name="summation" unicode="&#x2211;" horiz-adv-x="538" 
d="M412 301l-280 -357v-4h236q50 0 68 17t25 71h51v-209h-493v94l257 336l-250 377v69h471l10 -161h-52q-17 60 -35.5 80.5t-60.5 20.5h-167v-4z" />
    <glyph glyph-name="minus" unicode="&#x2212;" horiz-adv-x="576" 
d="M55 236v70h466v-70h-466z" />
    <glyph glyph-name="uni2219" unicode="&#x2219;" horiz-adv-x="576" 
d="M461 335q0 -73 -51 -125t-123 -52t-122.5 51.5t-50.5 125.5t50.5 125.5t122.5 51.5t123 -52t51 -125z" />
    <glyph glyph-name="radical" unicode="&#x221a;" horiz-adv-x="560" 
d="M232 0l-125 373q-15 44 -31.5 59.5t-65.5 17.5v48h207l90 -296q17 -58 23 -113h4q4 46 24 112l170 527h64l-234 -728h-126z" />
    <glyph glyph-name="infinity" unicode="&#x221e;" horiz-adv-x="929" 
d="M406 371l85 -61q48 60 99 88t118 28q31 0 60 -8t57.5 -25.5t46 -51t17.5 -79.5q0 -87 -56.5 -133.5t-139.5 -46.5q-86 0 -170 60l-85 61q-48 -60 -99 -88t-118 -28q-31 0 -60 8t-57.5 25.5t-46 51t-17.5 79.5q0 87 56.5 133.5t139.5 46.5q86 0 170 -60zM112 250
q0 -49 31.5 -75.5t85.5 -26.5q46 0 85.5 18.5t87.5 63.5l-101 69q-35 24 -54.5 32t-47.5 8q-41 0 -64 -23.5t-23 -65.5zM819 263q0 49 -32.5 75.5t-86.5 26.5q-46 0 -85.5 -18.5t-87.5 -63.5l101 -69q35 -24 54.5 -32t47.5 -8q41 0 65 23.5t24 65.5z" />
    <glyph glyph-name="integral" unicode="&#x222b;" horiz-adv-x="377" 
d="M102 -51l44 620q12 172 189 172q84 0 133 -22v-105h-86q-3 60 -41 60q-23 0 -34 -17t-13 -53l-44 -613q-12 -172 -189 -172q-84 0 -133 22v98h86q3 -60 41 -60q23 0 33.5 16.5t13.5 53.5z" />
    <glyph glyph-name="approxequal" unicode="&#x2248;" horiz-adv-x="568" 
d="M513 378q-41 -86 -121 -86q-39 0 -109 35.5t-105 35.5q-48 0 -87 -70l-36 53q16 39 49.5 65t77.5 26q40 0 111 -36t104 -36q20 0 36.5 11.5t24 23l21.5 34.5zM513 220q-41 -86 -121 -86q-39 0 -109 35.5t-105 35.5q-48 0 -87 -70l-36 53q16 39 49.5 65t77.5 26
q40 0 111 -36t104 -36q20 0 36.5 11.5t24 23l21.5 34.5z" />
    <glyph glyph-name="notequal" unicode="&#x2260;" horiz-adv-x="576" 
d="M55 315v72h280l91 132l59 -41l-62 -91h98v-72h-149l-59 -85h208v-71h-258l-91 -133l-58 41l62 92h-121v71h171l59 85h-230z" />
    <glyph glyph-name="lessequal" unicode="&#x2264;" horiz-adv-x="483" 
d="M428 154l-373 127v83l373 160v-85l-278 -112l278 -92v-81zM55 31v71h373v-71h-373z" />
    <glyph glyph-name="greaterequal" unicode="&#x2265;" horiz-adv-x="483" 
d="M428 281l-373 -127v81l277 92l-277 112v85l373 -160v-83zM428 102v-71h-373v71h373z" />
    <glyph glyph-name="dotmath" unicode="&#x22c5;" horiz-adv-x="576" 
d="M380 282q0 -40 -27.5 -67.5t-65.5 -27.5t-65.5 27.5t-27.5 67.5q0 38 27.5 65.5t65.5 27.5t65.5 -27.5t27.5 -65.5z" />
    <glyph glyph-name="uni25B4" unicode="&#x25b4;" horiz-adv-x="516" 
d="M258 543l178 -386h-356z" />
    <glyph glyph-name="uni25B8" unicode="&#x25b8;" horiz-adv-x="516" 
d="M476 350l-386 -178v356z" />
    <glyph glyph-name="uni25BE" unicode="&#x25be;" horiz-adv-x="516" 
d="M258 137l-178 386h356z" />
    <glyph glyph-name="uni25C2" unicode="&#x25c2;" horiz-adv-x="516" 
d="M40 350l386 178v-356z" />
    <glyph glyph-name="lozenge" unicode="&#x25ca;" horiz-adv-x="592" 
d="M544 344l-200 -344h-100l-196 344l196 343h100zM445 344l-150 264l-144 -264l144 -265z" />
    <glyph glyph-name="orn001" unicode="&#xea01;" horiz-adv-x="834" 
d="M789 354q0 -154 -109 -263t-263 -109t-263 109t-109 263t109 263t263 109t263 -109t109 -263zM687 354q0 116 -79 199t-191 83t-191 -83t-79 -199t79 -199t191 -83t191 83t79 199zM653 354l-386 -178v356z" />
    <glyph glyph-name="orn002" unicode="&#xea02;" horiz-adv-x="834" 
d="M789 354q0 -154 -109 -263t-263 -109t-263 109t-109 263t109 263t263 109t263 -109t109 -263zM653 354l-386 178v-356z" />
    <glyph glyph-name="orn003" unicode="&#xea03;" horiz-adv-x="834" 
d="M789 -18h-744v744h744v-744zM689 82v544h-544v-544h544zM643 354l-386 -178v356z" />
    <glyph glyph-name="orn004" unicode="&#xea04;" horiz-adv-x="834" 
d="M789 -18h-744v744h744v-744zM643 354l-386 178v-356z" />
    <glyph glyph-name="uniFB00" unicode="&#xfb00;" horiz-adv-x="673" 
d="M238 433v-318q0 -42 11 -55.5t48 -14.5v-45h-269v45q38 1 49.5 14t11.5 56v318h-61v51l61 25v28q0 94 65 143.5t171 49.5q79 0 139 -34q50 45 137 45q84 0 133 -22v-105h-86q-1 60 -40 60q-48 0 -48 -70v-95h121l-16 -76h-104v-318q0 -43 15 -56t66 -14v-45h-289v45
q37 1 48.5 14t11.5 56v318h-175zM237 549v-40h176v66q0 87 -83 87q-93 0 -93 -113z" />
    <glyph glyph-name="fi" unicode="&#xfb01;" horiz-adv-x="635" 
d="M238 433v-318q0 -42 11 -55.5t48 -14.5v-45h-269v45q38 1 49.5 14t11.5 56v318h-61v51l61 25v52q0 90 58.5 135t165.5 45q110 0 169 -31v-108h-118q-3 72 -58 72q-36 0 -52.5 -23t-16.5 -75v-67h239l58 10h22v-404q0 -43 11 -56t50 -14v-45h-270v45q37 1 48.5 14t11.5 56
v233q0 52 -10.5 68.5t-45.5 16.5h-113z" />
    <glyph glyph-name="fl" unicode="&#xfb02;" horiz-adv-x="638" 
d="M409 115v466q0 93 -86 93q-42 0 -64 -26.5t-22 -91.5v-47h116l-16 -76h-99v-318q0 -42 11 -55.5t48 -14.5v-45h-269v45q38 1 49.5 14t11.5 56v318h-61v51l61 25v37q0 99 61.5 147t164.5 48q89 0 145 -36l27 29h71v-618q0 -43 11.5 -56.5t50.5 -14.5v-45h-273v45
q38 1 50 14t12 56z" />
    <glyph glyph-name="uniFB03" unicode="&#xfb03;" horiz-adv-x="958" 
d="M469 691q59 50 168 50t168 -31v-108h-118q-1 72 -57 72q-37 0 -53.5 -22.5t-16.5 -75.5v-67h240l57 10h22v-404q0 -43 11 -56t50 -14v-45h-269v45q37 1 48.5 14t11.5 56v233q0 53 -11.5 69t-47.5 16h-111v-318q0 -42 11.5 -55.5t48.5 -14.5v-45h-268v45q37 1 48.5 14
t11.5 56v318h-175v-318q0 -42 11 -55.5t48 -14.5v-45h-269v45q38 1 49.5 14t11.5 56v318h-61v51l61 25v28q0 94 65 143.5t171 49.5q83 0 144 -39zM413 509v66q0 45 -20.5 66t-62.5 21q-93 0 -93 -113v-40h176z" />
    <glyph glyph-name="uniFB04" unicode="&#xfb04;" horiz-adv-x="962" 
d="M471 691q59 50 167 50q89 0 145 -36l28 29h70v-618q0 -43 11.5 -56.5t50.5 -14.5v-45h-272v45q38 1 50 14t12 56v466q0 93 -86 93q-42 0 -64.5 -26.5t-22.5 -91.5v-47h116l-16 -76h-99v-318q0 -42 11.5 -55.5t48.5 -14.5v-45h-268v45q37 1 48.5 14t11.5 56v318h-175v-318
q0 -42 11 -55.5t48 -14.5v-45h-269v45q38 1 49.5 14t11.5 56v318h-61v51l61 25v28q0 94 65 143.5t171 49.5q79 0 146 -39zM237 549v-40h176v66q0 45 -20.5 66t-62.5 21q-93 0 -93 -113z" />
    <glyph glyph-name="uniFEFF" unicode="&#xfeff;" horiz-adv-x="0" 
 />
    <glyph glyph-name="uni306.alt001" 
d="M232 565q-64 0 -108 39t-60 100l38 22q44 -66 129 -66q86 0 130 66l38 -22q-16 -61 -59.5 -100t-107.5 -39z" />
    <glyph glyph-name="zero.numr" horiz-adv-x="431" 
d="M400 453q0 -105 -53 -158.5t-135 -53.5q-85 0 -133.5 52.5t-48.5 155.5q0 105 51 158.5t137 53.5q79 0 130.5 -54.5t51.5 -153.5zM275 453q0 161 -63 161q-62 0 -62 -159q0 -91 14.5 -131t48.5 -40q31 0 46.5 39t15.5 130z" />
    <glyph glyph-name="one.numr" horiz-adv-x="350" 
d="M250 653v-297q0 -41 14.5 -54.5t65.5 -14.5v-37h-283v37q54 2 70 15t16 55v204q-36 -23 -84 -38l-19 39l148 91h72z" />
    <glyph glyph-name="two.numr" horiz-adv-x="384" 
d="M180 661q70 0 111 -31t41 -90q0 -62 -37 -97t-135 -89l-38 -21h232l-11 -83h-323v60l69 61q67 59 88 87t21 70q0 29 -18 44t-44 15q-48 0 -85 -26l-23 36q62 64 152 64z" />
    <glyph glyph-name="three.numr" horiz-adv-x="353" 
d="M128 598q-41 0 -82 -25l-21 38q62 50 148 50q61 0 99 -26t38 -73q0 -37 -29 -62.5t-77 -35.5q54 -3 86 -31t32 -69q0 -66 -63.5 -100t-152.5 -34q-49 0 -86 10l-8 48q32 -7 70 -7q50 0 78.5 23t28.5 63q0 67 -73 67q-18 0 -30 -1v54q13 -1 35 -1q34 0 50.5 13.5
t16.5 47.5q0 25 -16.5 38t-43.5 13z" />
    <glyph glyph-name="four.numr" horiz-adv-x="398" 
d="M199 238v102h-182v50l139 262h100l-158 -258h101q0 97 38 150l79 11v-161h52v-54h-52v-93z" />
    <glyph glyph-name="five.numr" horiz-adv-x="335" 
d="M298 380q0 -69 -60.5 -106t-142.5 -37q-42 0 -78 11l-7 46q28 -8 64 -8q39 0 69 19.5t30 64.5q0 64 -64 64q-39 0 -67 -11l21 230h230l-12 -87h-167l-9 -84q31 9 65 9q58 0 93 -29t35 -82z" />
    <glyph glyph-name="six.numr" horiz-adv-x="395" 
d="M329 633q-75 -22 -118 -56.5t-55 -91.5q30 21 78 21q57 0 94.5 -32.5t37.5 -92.5q0 -67 -43 -103.5t-125 -36.5q-81 0 -124.5 43t-43.5 122q0 75 43.5 134t106 90.5t135.5 41.5zM200 457q-26 0 -50 -13q-1 -16 -1 -44q0 -57 14.5 -88t40.5 -31q49 0 49 87q0 89 -53 89z
" />
    <glyph glyph-name="seven.numr" horiz-adv-x="355" 
d="M336 653l-13 -82q-119 -139 -153 -320l-122 -17q24 86 81 173.5t125 158.5h-235l13 87h304z" />
    <glyph glyph-name="eight.numr" horiz-adv-x="397" 
d="M27 341q0 67 97 96q-79 33 -79 110q0 54 45.5 84t108.5 30q69 0 109 -25.5t40 -69.5q0 -33 -22 -51t-64 -31q108 -38 108 -123q0 -57 -46 -89t-126 -32q-85 0 -128 27t-43 74zM271 339q0 7 -1.5 13.5t-5 11.5t-7 9.5t-10.5 9t-12.5 7.5t-16.5 7.5l-17.5 7l-21 8
l-22.5 8.5q-35 -31 -35 -72q0 -33 19.5 -50t54.5 -17t55 15.5t20 41.5zM145 569q0 -22 15 -35.5t64 -31.5q17 12 25 25.5t8 37.5q0 52 -56 52t-56 -48z" />
    <glyph glyph-name="nine.numr" horiz-adv-x="393" 
d="M46 264q170 50 190 153q-27 -21 -75 -21q-57 0 -94.5 32.5t-37.5 92.5q0 66 44.5 102.5t123.5 36.5q82 0 124 -42.5t42 -122.5q0 -110 -84.5 -180t-198.5 -85zM192 444q24 0 49 14q2 15 2 43q0 118 -53 118q-51 0 -51 -86q0 -89 53 -89z" />
    <glyph glyph-name="zero.dnom" horiz-adv-x="431" 
d="M400 203q0 -105 -53 -158.5t-135 -53.5q-85 0 -133.5 52.5t-48.5 155.5q0 105 51 158.5t137 53.5q79 0 130.5 -54.5t51.5 -153.5zM275 203q0 161 -63 161q-62 0 -62 -159q0 -91 14.5 -131t48.5 -40q31 0 46.5 39t15.5 130z" />
    <glyph glyph-name="one.dnom" horiz-adv-x="350" 
d="M250 403v-297q0 -41 14.5 -54.5t65.5 -14.5v-37h-283v37q54 2 70 15t16 55v204q-36 -23 -84 -38l-19 39l148 91h72z" />
    <glyph glyph-name="two.dnom" horiz-adv-x="384" 
d="M180 411q70 0 111 -31t41 -90q0 -27 -8 -48.5t-19 -37t-37 -34.5t-46 -31t-62 -35l-38 -21h232l-11 -83h-323v60l69 61q67 59 88 87t21 70q0 29 -18 44t-44 15q-48 0 -85 -26l-23 36q62 64 152 64z" />
    <glyph glyph-name="three.dnom" horiz-adv-x="353" 
d="M128 348q-41 0 -82 -25l-21 38q62 50 148 50q61 0 99 -26t38 -73q0 -37 -29 -62.5t-77 -35.5q54 -3 86 -31t32 -69q0 -66 -63.5 -100t-152.5 -34q-49 0 -86 10l-8 48q32 -7 70 -7q50 0 78.5 23t28.5 63q0 67 -73 67q-18 0 -30 -1v54q13 -1 35 -1q34 0 50.5 13.5
t16.5 47.5q0 25 -16.5 38t-43.5 13z" />
    <glyph glyph-name="four.dnom" horiz-adv-x="398" 
d="M199 -12v102h-182v50l139 262h100l-158 -258h101q0 97 38 150l79 11v-161h52v-54h-52v-93z" />
    <glyph glyph-name="five.dnom" horiz-adv-x="335" 
d="M298 130q0 -69 -60.5 -106t-142.5 -37q-42 0 -78 11l-7 46q28 -8 64 -8q39 0 69 19.5t30 64.5q0 64 -64 64q-39 0 -67 -11l21 230h230l-12 -87h-167l-9 -84q31 9 65 9q58 0 93 -29t35 -82z" />
    <glyph glyph-name="six.dnom" horiz-adv-x="395" 
d="M329 383q-75 -22 -118 -56.5t-55 -91.5q30 21 78 21q57 0 94.5 -32.5t37.5 -92.5q0 -67 -43 -103.5t-125 -36.5q-81 0 -124.5 43t-43.5 122q0 75 43.5 134t106 90.5t135.5 41.5zM200 207q-26 0 -50 -13q-1 -16 -1 -44q0 -57 14.5 -88t40.5 -31q49 0 49 87q0 89 -53 89z
" />
    <glyph glyph-name="seven.dnom" horiz-adv-x="355" 
d="M336 403l-13 -82q-119 -139 -153 -320l-122 -17q24 86 81 173.5t125 158.5h-235l13 87h304z" />
    <glyph glyph-name="eight.dnom" horiz-adv-x="397" 
d="M27 91q0 67 97 96q-79 33 -79 110q0 54 45.5 84t108.5 30q69 0 109 -25.5t40 -69.5q0 -33 -22 -51t-64 -31q108 -38 108 -123q0 -57 -46 -89t-126 -32q-85 0 -128 27t-43 74zM271 89q0 7 -1.5 13.5t-5 11.5t-7 9.5t-10.5 9t-12.5 7.5t-16.5 7.5l-17.5 7l-21 8l-22.5 8.5
q-35 -31 -35 -72q0 -33 19.5 -50t54.5 -17t55 15.5t20 41.5zM145 319q0 -22 15 -35.5t64 -31.5q17 12 25 25.5t8 37.5q0 52 -56 52t-56 -48z" />
    <glyph glyph-name="nine.dnom" horiz-adv-x="393" 
d="M46 14q170 50 190 153q-27 -21 -75 -21q-57 0 -94.5 32.5t-37.5 92.5q0 66 44.5 102.5t123.5 36.5q82 0 124 -42.5t42 -122.5q0 -110 -84.5 -180t-198.5 -85zM192 194q24 0 49 14q2 15 2 43q0 118 -53 118q-51 0 -51 -86q0 -89 53 -89z" />
    <glyph glyph-name="space.frac" horiz-adv-x="45" 
 />
    <glyph glyph-name="dollar.tf" horiz-adv-x="570" 
d="M304 -101h-55v89q-129 2 -224 56v133h111q7 -63 34 -94t79 -36v236l-44 11q-88 22 -131.5 67.5t-43.5 129.5q0 96 58 151t161 63v87h55v-86q111 -3 198 -48v-138h-107q-7 53 -27 82.5t-64 37.5v-210l41 -11q95 -24 144.5 -72t49.5 -135q0 -99 -60.5 -156t-174.5 -66v-91z
M396 158q0 43 -21 69t-71 42v-220q92 14 92 109zM162 547q0 -39 20 -63.5t67 -39.5v198q-41 -5 -64 -30t-23 -65z" />
    <glyph glyph-name="zero.tf" horiz-adv-x="570" 
d="M537 334q0 -171 -72 -259t-182 -88q-116 0 -183 86.5t-67 255.5q0 172 70 259.5t186 87.5q107 0 177.5 -89.5t70.5 -252.5zM378 335q0 148 -24.5 209t-69.5 61q-47 0 -70 -59.5t-23 -207.5q0 -159 21 -221.5t73 -62.5q46 0 69.5 64.5t23.5 216.5z" />
    <glyph glyph-name="one.tf" horiz-adv-x="570" 
d="M380 663v-542q0 -46 24 -60t106 -14v-47h-415v47q82 0 109 14.5t27 60.5v429q-68 -37 -139 -58l-20 47l213 123h95z" />
    <glyph glyph-name="two.tf" horiz-adv-x="570" 
d="M272 676q99 0 158 -50t59 -137q0 -47 -15.5 -87.5t-53 -80.5t-67 -64.5t-89.5 -70.5l-94 -72h340l-17 -114h-451v77l101 99q98 96 136.5 155t38.5 135q0 57 -29 84.5t-75 27.5q-68 0 -126 -43l-33 54q85 87 217 87z" />
    <glyph glyph-name="three.tf" horiz-adv-x="570" 
d="M219 586q-75 0 -135 -39l-32 55q98 73 220 73q93 0 146.5 -42t53.5 -119q0 -120 -135 -157q71 -12 112.5 -56t41.5 -104q0 -75 -49 -128.5t-119.5 -77t-151.5 -23.5q-68 0 -130 15l-11 58q72 -10 106 -10q97 0 144 45t47 117q0 61 -36 92t-99 31q-30 0 -47 -2v70
q38 -2 59 -2q55 0 82.5 25.5t27.5 86.5q0 92 -95 92z" />
    <glyph glyph-name="four.tf" horiz-adv-x="570" 
d="M316 -31v186h-296v66l218 443h150l-253 -444h181q1 90 11.5 147t38.5 113l100 18v-278h84v-65h-84v-167z" />
    <glyph glyph-name="five.tf" horiz-adv-x="570" 
d="M486 207q0 -79 -46 -135t-115 -80.5t-152 -24.5q-71 0 -125 18l-12 57q51 -13 111 -13q71 0 125 38.5t54 118.5q0 126 -125 126q-60 0 -107 -20l33 370h351l-16 -122h-270l-16 -165q52 15 99 15q94 0 152.5 -47.5t58.5 -135.5z" />
    <glyph glyph-name="six.tf" horiz-adv-x="570" 
d="M471 642q-115 -44 -178 -103.5t-85 -155.5q54 35 119 35q90 0 148 -52.5t58 -152.5q0 -106 -67 -166.5t-182 -60.5q-117 0 -180.5 71.5t-63.5 201.5q0 75 23.5 139.5t63 111.5t94 84.5t111.5 61.5t121 39zM287 347q-48 0 -89 -23q-4 -35 -4 -72q0 -103 27 -155.5
t75 -52.5q45 0 65 37.5t20 116.5t-22 114t-72 35z" />
    <glyph glyph-name="seven.tf" horiz-adv-x="570" 
d="M512 661l-17 -113q-170 -227 -224 -558l-158 -27q33 141 114.5 292t180.5 282h-353l17 124h440z" />
    <glyph glyph-name="eight.tf" horiz-adv-x="570" 
d="M30 160q0 57 41 96t105 60q-58 27 -89.5 67.5t-31.5 106.5q0 92 67.5 139t161.5 47q102 0 163 -41.5t61 -113.5q0 -98 -128 -145q78 -31 118.5 -72t40.5 -118q0 -93 -68.5 -146t-188.5 -53q-126 0 -189 45.5t-63 127.5zM397 151q0 25 -8 42.5t-31.5 33.5t-42 24.5
t-64.5 27.5l-29 12q-55 -55 -55 -125q0 -56 30.5 -86t84.5 -30q53 0 84 27t31 74zM194 521q0 -38 25.5 -63t101.5 -55q27 24 40 48t13 64q0 95 -89 95q-43 0 -67 -23t-24 -66z" />
    <glyph glyph-name="nine.tf" horiz-adv-x="570" 
d="M43 -5q151 52 234 140q56 59 79 142q-53 -32 -116 -32q-90 0 -146 52.5t-56 152.5q0 106 65.5 166t177.5 60t179.5 -73t67.5 -203q0 -93 -38.5 -172t-103.5 -133t-140 -90t-159 -55zM280 316q50 0 89 21q5 40 5 72q0 102 -27 156t-75 54q-85 0 -85 -155q0 -75 22 -111.5
t71 -36.5z" />
    <glyph glyph-name="cent.tf" horiz-adv-x="570" 
d="M345 -101h-55v89q-102 5 -166 71t-64 187t65 193t165 81v85h55v-84q105 -6 157 -40v-110h-100q-4 75 -57 89v-395q76 2 143 50l27 -35q-63 -79 -170 -90v-91zM208 269q0 -165 82 -196v384q-82 -23 -82 -188z" />
    <glyph glyph-name="sterling.tf" horiz-adv-x="570" 
d="M249 67h103q50 0 77 27.5t41 97.5h77l-15 -192h-523v46q46 0 64.5 14.5t18.5 56.5v190h-80v60h80v90q0 113 71 168t175 55q58 0 105 -14t69 -33v-116h-112q-3 53 -18 76.5t-49 23.5q-44 0 -64 -31t-20 -96v-123h191v-60h-191v-240z" />
    <glyph glyph-name="currency.tf" horiz-adv-x="570" 
d="M285 101q-42 0 -72 11l-52 -81l-58 39l49 76q-57 52 -57 139t56 140l-48 74l58 39l51 -78q33 12 73 12q36 0 69 -11l50 77l59 -39l-47 -72q59 -53 59 -142q0 -90 -61 -141l49 -74l-59 -39l-52 79q-30 -9 -67 -9zM284 410q-46 0 -64.5 -30t-18.5 -88q0 -68 19 -99t64 -31
q46 0 65 31t19 99q0 58 -19 88t-65 30z" />
    <glyph glyph-name="yen.tf" horiz-adv-x="570" 
d="M540 196h-175v-80q0 -43 15.5 -57t61.5 -15v-44h-311v44q46 1 61.5 15t15.5 57v80h-175v56h175v13l-28 54h-147v56h119l-104 208q-18 36 -33 48.5t-42 16.5v47h285v-47q-49 0 -49 -32q0 -14 9 -33l104 -223h6l97 224q9 21 9 34q0 30 -50 30v47h213v-47
q-31 -4 -46.5 -16.5t-34.5 -51.5l-99 -205h123v-56h-151l-24 -52v-15h175v-56z" />
    <glyph glyph-name="uni2007.tf" horiz-adv-x="570" 
 />
    <glyph glyph-name="Euro.tf" horiz-adv-x="570" 
d="M458 249h-236q10 -111 44 -152t94 -41q55 0 78 27t33 92h102v-132q-31 -24 -90.5 -39.5t-130.5 -15.5q-127 0 -203 67t-96 194h-81v56h75v33q0 24 1 36h-76v56h81q20 138 100.5 207.5t206.5 69.5q132 0 208 -50v-134h-107q-13 63 -33 89t-68 26q-62 0 -96 -47t-42 -161
h236v-56h-239v-69h239v-56z" />
    <glyph glyph-name="uni20B4.tf" horiz-adv-x="570" 
d="M543 269h-284q-36 -43 -36 -110q0 -53 23 -78.5t73 -25.5q86 0 101 102h93v-122q-98 -48 -206 -48q-263 0 -263 160q0 74 64 122h-82v47h150l68 52h-218v47h279q53 45 53 110q0 85 -79 85q-75 0 -95 -93h-90v114q100 44 196 44q112 0 177 -36t65 -107q0 -73 -68 -117h79
v-47h-161l-67 -52h228v-47z" />
    <glyph glyph-name="dollar.lf" horiz-adv-x="577" 
d="M308 -101h-55v89q-129 2 -224 56v133h111q7 -63 34 -94t79 -36v236l-44 11q-88 22 -131.5 67.5t-43.5 129.5q0 96 58 151t161 63v87h55v-86q111 -3 198 -48v-138h-107q-7 53 -27 82.5t-64 37.5v-210l41 -11q95 -24 144.5 -72t49.5 -135q0 -99 -60.5 -156t-174.5 -66v-91z
M400 158q0 43 -21 69t-71 42v-220q92 14 92 109zM166 547q0 -39 20 -63.5t67 -39.5v198q-41 -5 -64 -30t-23 -65z" />
    <glyph glyph-name="zero.lf" horiz-adv-x="628" 
d="M588 334q0 -171 -79 -259t-198 -88q-127 0 -199 86.5t-72 255.5q0 172 75.5 259.5t203.5 87.5q117 0 193 -89t76 -253zM419 334q0 270 -107 270q-52 0 -79 -62t-27 -205q0 -150 24.5 -216.5t83.5 -66.5q105 0 105 280z" />
    <glyph glyph-name="one.lf" horiz-adv-x="423" 
d="M303 663v-539q0 -46 16 -61.5t74 -17.5v-45h-337v45q61 3 79.5 18t18.5 62v425q-46 -32 -109 -50l-21 49l179 114h100z" />
    <glyph glyph-name="two.lf" horiz-adv-x="500" 
d="M241 676q99 0 158 -50t59 -137q0 -24 -3.5 -45.5t-14.5 -43l-18.5 -37t-28 -37.5t-30 -33t-38.5 -34.5l-39.5 -31.5l-45.5 -35t-45 -34l-56 -44h327l-17 -114h-438v77l101 99q98 96 136.5 155t38.5 135q0 56 -29.5 84t-74.5 28q-65 0 -126 -43l-33 54q85 87 217 87z" />
    <glyph glyph-name="three.lf" horiz-adv-x="497" 
d="M181 586q-73 0 -135 -39l-32 55q98 73 221 73q92 0 145.5 -42t53.5 -119q0 -120 -135 -157q71 -12 112.5 -56t41.5 -104q0 -75 -49 -128.5t-119.5 -77t-151.5 -23.5q-69 0 -129 15l-12 58q72 -10 106 -10q97 0 144 45t47 117q0 61 -35.5 92t-98.5 31q-30 0 -48 -2v70
q38 -2 59 -2q55 0 83 25.5t28 86.5q0 92 -96 92z" />
    <glyph glyph-name="four.lf" horiz-adv-x="589" 
d="M321 -31v186h-296v66l218 443h149l-253 -444h182q0 89 10.5 146t38.5 114l100 18v-278h84v-65h-84v-167z" />
    <glyph glyph-name="five.lf" horiz-adv-x="496" 
d="M449 207q0 -79 -46 -135t-115 -80.5t-152 -24.5q-71 0 -125 18l-12 57q51 -13 111 -13q71 0 125 38.5t54 118.5q0 126 -125 126q-59 0 -107 -20l34 370h350l-16 -122h-270l-15 -165q51 15 98 15q94 0 152.5 -47.5t58.5 -135.5z" />
    <glyph glyph-name="six.lf" horiz-adv-x="566" 
d="M472 642q-115 -44 -178 -103.5t-85 -155.5q54 35 119 35q91 0 148.5 -52.5t57.5 -152.5q0 -106 -67 -166.5t-182 -60.5q-117 0 -180.5 71.5t-63.5 201.5q0 75 23.5 139.5t63 111.5t94 84.5t111.5 61.5t121 39zM288 347q-48 0 -89 -23q-4 -35 -4 -72q0 -103 27 -155.5
t75 -52.5q45 0 65 37.5t20 116.5t-22 114t-72 35z" />
    <glyph glyph-name="seven.lf" horiz-adv-x="477" 
d="M458 661l-16 -113q-172 -230 -224 -558l-158 -27q33 141 114.5 292.5t179.5 281.5h-339l17 124h426z" />
    <glyph glyph-name="eight.lf" horiz-adv-x="585" 
d="M38 160q0 57 41 96t105 60q-58 27 -89 67.5t-31 106.5q0 92 67 139t161 47q102 0 163 -41.5t61 -113.5q0 -99 -128 -145q78 -31 119 -72t41 -118q0 -93 -68.5 -146t-188.5 -53q-127 0 -190 45.5t-63 127.5zM405 151q0 25 -8 43t-31 33.5t-43.5 25t-65.5 27.5
q-18 7 -27 11q-54 -54 -54 -125q0 -56 30 -86t84 -30q53 0 84 27t31 74zM202 521q0 -38 25.5 -63t101.5 -55q28 24 41 48t13 64q0 95 -90 95q-42 0 -66.5 -23.5t-24.5 -65.5z" />
    <glyph glyph-name="nine.lf" horiz-adv-x="566" 
d="M40 -5q147 51 233 140q57 59 80 142q-53 -32 -116 -32q-90 0 -146 52.5t-56 152.5q0 106 65.5 166t177.5 60t179.5 -73t67.5 -203q0 -93 -38.5 -172t-103.5 -133t-140 -90t-159 -55zM277 316q51 0 88 21q6 36 6 72q0 102 -27 156t-75 54q-85 0 -85 -155q0 -75 22 -111.5
t71 -36.5z" />
    <glyph glyph-name="cent.lf" horiz-adv-x="520" 
d="M320 -101h-55v89q-102 5 -166 71t-64 187t65 193t165 81v85h55v-84q105 -6 157 -40v-110h-100q-4 75 -57 89v-395q76 2 143 50l27 -35q-63 -79 -170 -90v-91zM183 269q0 -165 82 -196v384q-82 -23 -82 -188z" />
    <glyph glyph-name="sterling.lf" horiz-adv-x="618" 
d="M273 67h103q50 0 77 27.5t41 97.5h77l-15 -192h-523v46q46 0 64.5 14.5t18.5 56.5v190h-80v60h80v90q0 113 71 168t175 55q58 0 105 -14t69 -33v-116h-112q-3 53 -18 76.5t-49 23.5q-44 0 -64 -31t-20 -96v-123h191v-60h-191v-240z" />
    <glyph glyph-name="currency.lf" horiz-adv-x="480" 
d="M240 101q-42 0 -72 11l-52 -81l-58 39l49 76q-57 52 -57 139t56 140l-48 74l58 39l51 -78q33 12 73 12q36 0 69 -11l50 77l59 -39l-47 -72q59 -53 59 -142q0 -90 -61 -141l49 -74l-59 -39l-52 79q-30 -9 -67 -9zM239 410q-46 0 -64.5 -30t-18.5 -88q0 -68 19 -99t64 -31
q46 0 65 31t19 99q0 58 -19 88t-65 30z" />
    <glyph glyph-name="yen.lf" horiz-adv-x="647" 
d="M579 196h-175v-80q0 -43 15.5 -57t61.5 -15v-44h-311v44q46 1 61.5 15t15.5 57v80h-175v56h175v13l-28 54h-147v56h119l-104 208q-18 36 -33 48.5t-42 16.5v47h285v-47q-49 0 -49 -32q0 -14 9 -33l104 -223h6l97 224q9 21 9 34q0 30 -50 30v47h213v-47
q-31 -4 -46.5 -16.5t-34.5 -51.5l-99 -205h123v-56h-151l-24 -52v-15h175v-56z" />
    <glyph glyph-name="Euro.lf" horiz-adv-x="666" 
d="M506 249h-236q10 -111 44 -152t94 -41q55 0 78 27t33 92h102v-132q-31 -24 -90.5 -39.5t-130.5 -15.5q-127 0 -203 67t-96 194h-81v56h75v33q0 24 1 36h-76v56h81q20 138 100.5 207.5t206.5 69.5q132 0 208 -50v-134h-107q-13 63 -33 89t-68 26q-62 0 -96 -47t-42 -161
h236v-56h-239v-69h239v-56z" />
    <glyph glyph-name="uni20B4.lf" horiz-adv-x="607" 
d="M562 269h-284q-36 -43 -36 -110q0 -53 23 -78.5t73 -25.5q86 0 101 102h93v-122q-98 -48 -206 -48q-263 0 -263 160q0 74 64 122h-82v47h150l68 52h-218v47h279q53 45 53 110q0 85 -79 85q-75 0 -95 -93h-90v114q100 44 196 44q112 0 177 -36t65 -107q0 -73 -68 -117h79
v-47h-161l-67 -52h228v-47z" />
    <glyph glyph-name="dollar.tosf" horiz-adv-x="570" 
d="M304 -101h-55v89q-129 2 -224 56v133h111q7 -63 34 -94t79 -36v236l-44 11q-88 22 -131.5 67.5t-43.5 129.5q0 96 58 151t161 63v87h55v-86q111 -3 198 -48v-138h-107q-7 53 -27 82.5t-64 37.5v-210l41 -11q95 -24 144.5 -72t49.5 -135q0 -99 -60.5 -156t-174.5 -66v-91z
M396 158q0 43 -21 69t-71 42v-220q92 14 92 109zM162 547q0 -39 20 -63.5t67 -39.5v198q-41 -5 -64 -30t-23 -65z" />
    <glyph glyph-name="zero.tosf" horiz-adv-x="570" 
d="M537 264q0 -137 -70.5 -207t-185.5 -70q-113 0 -180.5 71.5t-67.5 196.5q0 120 71 195t183 75q108 0 179 -67.5t71 -193.5zM373 267q0 105 -22 149.5t-67 44.5q-46 0 -67 -47t-21 -162q0 -109 20 -157t70 -48q44 0 65.5 50t21.5 170z" />
    <glyph glyph-name="one.tosf" horiz-adv-x="570" 
d="M382 515v-394q0 -46 24 -60t106 -14v-47h-415v47q82 0 109 14.5t27 60.5v281q-67 -36 -140 -58l-20 48l213 122h96z" />
    <glyph glyph-name="two.tosf" horiz-adv-x="570" 
d="M281 525q97 0 149 -41.5t52 -120.5q0 -80 -60.5 -132.5t-190.5 -110.5l-35 -18h303l-17 -102h-421v77l106 78q55 41 80 62.5t45.5 55t20.5 72.5q0 40 -26.5 63.5t-67.5 23.5q-60 0 -116 -34l-28 57q85 70 206 70z" />
    <glyph glyph-name="three.tosf" horiz-adv-x="570" 
d="M219 437q-68 0 -132 -40l-31 55q97 73 215 73q91 0 143.5 -42t52.5 -119q0 -120 -132 -157q69 -11 109.5 -56t40.5 -104q0 -57 -28 -99.5t-75 -66t-100.5 -35t-112.5 -11.5q-70 0 -122 13l-12 59q58 -8 104 -8q187 0 187 144q0 61 -35.5 92t-96.5 31q-30 0 -47 -2v71
q38 -2 58 -2q54 0 81 25.5t27 86.5q0 92 -94 92z" />
    <glyph glyph-name="four.tosf" horiz-adv-x="570" 
d="M320 -179v187h-304v67l227 442h149l-262 -443h190q1 89 11.5 146.5t38.5 113.5l100 18v-278h84v-66h-84v-168z" />
    <glyph glyph-name="five.tosf" horiz-adv-x="570" 
d="M489 67q0 -77 -46 -131t-114 -77t-150 -23q-71 0 -124 18l-13 57q51 -13 111 -13q45 0 82.5 12t66 47t28.5 89q0 64 -33 98t-91 34q-59 0 -106 -20l34 354h347l-15 -122h-268l-16 -147q42 13 91 13q98 0 157 -50t59 -139z" />
    <glyph glyph-name="six.tosf" horiz-adv-x="570" 
d="M472 642q-115 -44 -178 -103.5t-85 -155.5q54 35 119 35q90 0 146 -52.5t56 -152.5q0 -106 -65 -166.5t-180 -60.5q-117 0 -180.5 71.5t-63.5 201.5q0 75 23.5 139.5t63 111.5t94 84.5t111.5 61.5t121 39zM288 347q-49 0 -89 -23q-4 -35 -4 -72q0 -103 27 -155.5
t75 -52.5q85 0 85 154q0 79 -22 114t-72 35z" />
    <glyph glyph-name="seven.tosf" horiz-adv-x="570" 
d="M509 512l-16 -113q-166 -222 -217 -542l-158 -27q60 257 287 558h-346l17 124h433z" />
    <glyph glyph-name="eight.tosf" horiz-adv-x="570" 
d="M35 160q0 103 142 154q-57 32 -87 72.5t-30 105.5q0 93 65 140t160 47q100 0 159.5 -43t59.5 -115q0 -54 -32.5 -86.5t-93.5 -55.5q40 -18 64.5 -32.5t47.5 -37t33.5 -52.5t10.5 -71q0 -93 -66.5 -146t-184.5 -53q-126 0 -187 45.5t-61 127.5zM397 148q0 13 -1.5 24
t-7.5 21l-10 17t-16 15.5l-18 13t-24.5 12.5l-27.5 12t-33.5 14l-36.5 15q-54 -57 -54 -129q0 -117 115 -117q54 0 84 26.5t30 75.5zM194 524q0 -39 26.5 -66t100.5 -56q53 45 53 118q0 100 -89 100q-42 0 -66.5 -26t-24.5 -70z" />
    <glyph glyph-name="nine.tosf" horiz-adv-x="570" 
d="M49 -143q157 54 235 138q53 56 73 132q-52 -32 -116 -32q-90 0 -145.5 52.5t-55.5 152.5q0 106 65 166t177 60q114 0 180.5 -70t66.5 -201q0 -75 -25.5 -141t-67 -114t-99 -86.5t-118 -62.5t-126.5 -39zM281 166q50 0 89 21q5 40 5 77q0 102 -26.5 153.5t-74.5 51.5
q-86 0 -86 -155q0 -75 22 -111.5t71 -36.5z" />
    <glyph glyph-name="cent.tosf" horiz-adv-x="570" 
d="M345 -101h-55v89q-102 5 -166 71t-64 187t65 193t165 81v85h55v-84q105 -6 157 -40v-110h-100q-4 75 -57 89v-395q76 2 143 50l27 -35q-63 -79 -170 -90v-91zM208 269q0 -165 82 -196v384q-82 -23 -82 -188z" />
    <glyph glyph-name="sterling.tosf" horiz-adv-x="570" 
d="M249 67h103q50 0 77 27.5t41 97.5h77l-15 -192h-523v46q46 0 64.5 14.5t18.5 56.5v190h-80v60h80v90q0 113 71 168t175 55q58 0 105 -14t69 -33v-116h-112q-3 53 -18 76.5t-49 23.5q-44 0 -64 -31t-20 -96v-123h191v-60h-191v-240z" />
    <glyph glyph-name="currency.tosf" horiz-adv-x="570" 
d="M285 101q-42 0 -72 11l-52 -81l-58 39l49 76q-57 52 -57 139t56 140l-48 74l58 39l51 -78q33 12 73 12q36 0 69 -11l50 77l59 -39l-47 -72q59 -53 59 -142q0 -90 -61 -141l49 -74l-59 -39l-52 79q-30 -9 -67 -9zM284 410q-46 0 -64.5 -30t-18.5 -88q0 -68 19 -99t64 -31
q46 0 65 31t19 99q0 58 -19 88t-65 30z" />
    <glyph glyph-name="yen.tosf" horiz-adv-x="570" 
d="M540 196h-175v-80q0 -43 15.5 -57t61.5 -15v-44h-311v44q46 1 61.5 15t15.5 57v80h-175v56h175v13l-28 54h-147v56h119l-104 208q-18 36 -33 48.5t-42 16.5v47h285v-47q-49 0 -49 -32q0 -14 9 -33l104 -223h6l97 224q9 21 9 34q0 30 -50 30v47h213v-47
q-31 -4 -46.5 -16.5t-34.5 -51.5l-99 -205h123v-56h-151l-24 -52v-15h175v-56z" />
    <glyph glyph-name="uni2007.tosf" horiz-adv-x="570" 
 />
    <glyph glyph-name="Euro.tosf" horiz-adv-x="570" 
d="M458 249h-236q10 -111 44 -152t94 -41q55 0 78 27t33 92h102v-132q-31 -24 -90.5 -39.5t-130.5 -15.5q-127 0 -203 67t-96 194h-81v56h75v33q0 24 1 36h-76v56h81q20 138 100.5 207.5t206.5 69.5q132 0 208 -50v-134h-107q-13 63 -33 89t-68 26q-62 0 -96 -47t-42 -161
h236v-56h-239v-69h239v-56z" />
    <glyph glyph-name="uni20B4.tosf" horiz-adv-x="570" 
d="M533 198h-269q-27 -34 -27 -77q0 -31 21 -49.5t55 -18.5q35 0 56 24t33 73h96v-115q-96 -47 -208 -47q-107 0 -162.5 31.5t-55.5 90.5q0 56 38 88h-74v42h141l63 42h-204v42h265q33 30 33 76q0 61 -57 61q-59 0 -78 -88h-101v113q94 39 191 39q114 0 165 -30t51 -78
q0 -56 -51 -93h79v-42h-149l-63 -42h212v-42z" />
    <glyph glyph-name="germandbls.hist" horiz-adv-x="747" 
d="M238 604v-604h-210v45q38 1 49.5 14t11.5 56v318h-61v51l61 25v73q0 78 50.5 118.5t138.5 40.5q84 0 133 -22v-105h-86q-3 60 -41 60q-46 0 -46 -70zM498 -13q-103 0 -186 43v108h99q6 -50 30.5 -69.5t68.5 -19.5q84 0 84 63q0 30 -17 45.5t-53 23.5l-78 16
q-131 28 -131 156q0 81 57 125t144 44q91 0 172 -36v-106h-92q-11 77 -93 77q-72 0 -72 -59q0 -24 14 -37.5t45 -20.5l73 -17q155 -34 155 -166q0 -81 -57.5 -125.5t-162.5 -44.5z" />
    <glyph glyph-name="exclam.sc" horiz-adv-x="308" 
d="M246 572l-46 -355h-93l-46 338zM245 81q0 -38 -27 -65.5t-65 -27.5q-37 0 -64 27.5t-27 65.5q0 37 27 63.5t64 26.5q38 0 65 -26.5t27 -63.5z" />
    <glyph glyph-name="ampersand.sc" horiz-adv-x="640" 
d="M451 446q0 -88 -125 -139l126 -133q20 32 20 67q0 22 -10.5 31t-41.5 10v40h175v-40q-35 -1 -44.5 -9t-15.5 -33q-13 -57 -46 -105l53 -53q23 -22 41.5 -29.5t46.5 -7.5v-45h-198l-39 39q-65 -51 -168 -51q-91 0 -147 35t-56 105q0 59 35.5 93t103.5 56l-23 24
q-60 61 -60 128q0 62 49 102t139 40q84 0 134.5 -32.5t50.5 -92.5zM265 46q50 0 93 30l-164 166q-34 -37 -34 -89q0 -48 27 -77.5t78 -29.5zM212 458q0 -18 10 -36.5t21 -31t32 -32.5l22 -19q45 42 45 105q0 75 -68 75q-29 0 -45.5 -17t-16.5 -44z" />
    <glyph glyph-name="question.sc" horiz-adv-x="449" 
d="M304 81q0 -39 -27.5 -66.5t-65.5 -27.5t-65 27.5t-27 66.5q0 38 27 64.5t65 26.5t65.5 -27t27.5 -64zM32 424v95q73 52 190 52q197 0 197 -127q0 -29 -9 -51t-28.5 -37.5t-33 -23t-39.5 -18.5q-42 -18 -58 -34t-16 -36q0 -12 3 -29h-58q-31 22 -31 58q0 26 13.5 45.5
t47.5 44.5q27 19 39 36t12 43q0 61 -57 61q-34 0 -50.5 -19t-19.5 -60h-102z" />
    <glyph glyph-name="grave.sc" horiz-adv-x="426" 
d="M346 593l-26 -35l-240 96l78 125z" />
    <glyph glyph-name="a.sc" horiz-adv-x="610" 
d="M247 559h116l177 -454q13 -35 24.5 -46t38.5 -15v-44h-269v44q57 0 57 33q0 7 -6 25l-19 48h-188l-17 -47q-5 -17 -5 -25q0 -34 59 -34v-44h-209v44q31 4 44.5 15t26.5 46zM245 333l-43 -118h140l-44 119q-14 38 -24 101h-4q-6 -50 -25 -102z" />
    <glyph glyph-name="b.sc" horiz-adv-x="619" 
d="M397 406q0 51 -21.5 68.5t-74.5 17.5h-43v-181h47q51 0 71.5 20t20.5 75zM320 251h-62v-188h62q57 0 80 18t23 74q0 53 -24 74.5t-79 21.5zM36 0v45q41 1 54.5 14t13.5 55v329q0 42 -13.5 55t-54.5 13v48h321q201 0 201 -148q0 -52 -33 -84t-91 -41v-4q149 -15 149 -137
q0 -75 -51 -110t-161 -35h-335z" />
    <glyph glyph-name="c.sc" horiz-adv-x="572" 
d="M325 53q54 0 78 26t33 81h96v-126q-30 -20 -87 -33.5t-122 -13.5q-284 0 -284 284q0 300 293 300q120 0 196 -43v-131h-100q-10 54 -32 80t-69 26q-67 0 -94 -50t-27 -174q0 -125 28.5 -175.5t90.5 -50.5z" />
    <glyph glyph-name="d.sc" horiz-adv-x="644" 
d="M447 285q0 86 -15.5 130t-45.5 59t-89 15h-39v-425h39q59 0 88.5 15t45.5 63t16 143zM36 0v45q41 1 54.5 14t13.5 55v329q0 42 -13.5 55t-54.5 13v48h272q146 0 221.5 -62t75.5 -212q0 -153 -77 -219t-219 -66h-273z" />
    <glyph glyph-name="e.sc" horiz-adv-x="560" 
d="M259 255v-190h94q53 0 73 20.5t26 89.5h72v-175h-486v45q41 1 54.5 14t13.5 55v329q0 42 -13.5 55t-54.5 13v48h463l12 -159h-70q-18 60 -34.5 75t-68.5 15h-81v-174h27q44 0 56 7.5t13 42.5h62v-162h-62q-1 35 -13 43t-55 8h-28z" />
    <glyph glyph-name="f.sc" horiz-adv-x="540" 
d="M258 237v-123q0 -43 17 -55.5t68 -13.5v-45h-307v45q41 1 54.5 14t13.5 55v329q0 42 -13.5 55t-54.5 13v48h464l11 -159h-69q-18 60 -35 75t-69 15h-80v-192h30q44 0 56 9t13 49h62v-176h-62q-1 38 -13.5 47.5t-54.5 9.5h-31z" />
    <glyph glyph-name="g.sc" horiz-adv-x="640" 
d="M409 71v89q0 42 -13.5 55t-54.5 14v47h276v-47q-35 0 -44.5 -14t-9.5 -55v-120q-37 -26 -101.5 -39t-130.5 -13q-140 0 -216 70.5t-76 213.5q0 152 81 225.5t224 73.5q120 0 196 -43v-131h-99q-11 54 -33 80t-69 26q-69 0 -101 -51t-32 -172q0 -125 32.5 -177t100.5 -52
q42 0 70 20z" />
    <glyph glyph-name="h.sc" horiz-adv-x="723" 
d="M465 114v134h-207v-134q0 -42 13.5 -55t54.5 -14v-45h-290v45q41 1 54.5 14t13.5 55v329q0 42 -13.5 55t-54.5 13v48h290v-48q-41 0 -54.5 -13t-13.5 -55v-126h207v126q0 42 -13.5 55t-54.5 13v48h289v-48q-40 0 -53.5 -13t-13.5 -55v-329q0 -42 13.5 -55t53.5 -14v-45
h-289v45q41 1 54.5 14t13.5 55z" />
    <glyph glyph-name="i.sc" horiz-adv-x="362" 
d="M104 114v329q0 42 -13.5 55t-54.5 13v48h290v-48q-41 0 -54.5 -13t-13.5 -55v-329q0 -42 13.5 -55t54.5 -14v-45h-290v45q41 1 54.5 14t13.5 55z" />
    <glyph glyph-name="j.sc" horiz-adv-x="359" 
d="M103 108v335q0 42 -13.5 55t-54.5 13v48h289v-48q-41 0 -54.5 -13t-13.5 -55v-330q0 -117 -61 -175t-190 -82l-22 48q76 32 98 73.5t22 130.5z" />
    <glyph glyph-name="k.sc" horiz-adv-x="655" 
d="M104 114v329q0 42 -13.5 55t-54.5 13v48h290v-48q-41 0 -54.5 -13t-13.5 -55v-329q0 -42 13.5 -55t54.5 -14v-45h-290v45q41 1 54.5 14t13.5 55zM515 453l-107 -126l156 -231q20 -30 36.5 -39.5t46.5 -12.5v-44h-199l-175 274l153 180q15 16 15 33q0 24 -44 24v48h220
v-48q-31 -3 -54 -15.5t-48 -42.5z" />
    <glyph glyph-name="l.sc" horiz-adv-x="539" 
d="M258 443v-378h83q51 0 74.5 25t35.5 95h71l-11 -185h-475v45q41 1 54.5 14t13.5 55v329q0 42 -13.5 55t-54.5 13v48h290v-48q-41 0 -54.5 -13t-13.5 -55z" />
    <glyph glyph-name="m.sc" horiz-adv-x="806" 
d="M756 559v-47q-40 -3 -50.5 -15.5t-8.5 -46.5l25 -337q3 -38 17.5 -52t50.5 -16v-45h-277v45q39 2 50.5 14t8.5 50l-17 214q-3 45 -3 87v20t0.5 18.5t0.5 8.5h-6q-6 -58 -30 -134l-98 -323h-103l-95 323q-10 36 -30 134h-6q0 -58 -5 -136l-14 -215q-2 -36 8.5 -48
t46.5 -12v-46h-204v46q36 2 51.5 15t18.5 51l24 339q2 34 -8.5 46t-50.5 15v47h246l69 -251q21 -77 31 -146h6q16 92 32 146l72 251h248z" />
    <glyph glyph-name="n.sc" horiz-adv-x="663" 
d="M104 114v329q0 42 -13.5 55t-53.5 13v48h229l157 -239q38 -57 68 -128h6q-8 77 -8 155v96q0 42 -13.5 55t-54.5 13v48h216v-48q-40 0 -53.5 -13t-13.5 -55v-443h-114l-189 275q-54 79 -85 148h-6q9 -52 9 -160v-149q0 -42 13.5 -55t54.5 -14v-45h-216v45q40 1 53.5 14
t13.5 55z" />
    <glyph glyph-name="o.sc" horiz-adv-x="648" 
d="M323 -12q-136 0 -210 73.5t-74 210.5q0 149 76 224t208 75q133 0 209 -75t76 -224q0 -138 -74 -211t-211 -73zM324 499q-59 0 -87.5 -51t-28.5 -170q0 -127 30 -177.5t86 -50.5q59 0 88.5 50.5t29.5 180.5q0 117 -29 167.5t-89 50.5z" />
    <glyph glyph-name="p.sc" horiz-adv-x="577" 
d="M400 375q0 67 -24.5 91t-86.5 24h-31v-227h40q58 0 80 22.5t22 89.5zM36 559h281q122 0 182 -39t60 -146q0 -177 -236 -177h-65v-83q0 -43 17 -55.5t68 -13.5v-45h-307v45q41 1 54.5 14t13.5 55v329q0 42 -13.5 55t-54.5 13v48z" />
    <glyph glyph-name="q.sc" horiz-adv-x="648" 
d="M555 -136q-17 0 -33.5 3t-26.5 5.5t-28 11.5t-21.5 10.5t-25.5 15.5l-21 13q-6 4 -32.5 20t-37.5 22t-33.5 15t-44.5 14q-211 45 -211 278q0 149 75.5 224t208.5 75q132 0 208 -75t76 -224q0 -99 -41.5 -165.5t-119.5 -95.5q15 -4 39.5 -15t46.5 -16.5t51 -5.5q36 0 66 7
l-27 -102q-21 -15 -68 -15zM324 499q-59 0 -87 -51t-28 -170q0 -127 29.5 -177.5t85.5 -50.5q59 0 89 50.5t30 180.5q0 117 -29 167.5t-90 50.5z" />
    <glyph glyph-name="r.sc" horiz-adv-x="640" 
d="M412 393q0 54 -25 75.5t-86 21.5h-43v-195h51q57 0 80 21t23 77zM398 247v-3q75 -15 110 -69q7 -11 13.5 -22.5l16 -29l17.5 -31.5q15 -26 28 -36t42 -10v-46h-197q-46 111 -67 151q-24 46 -44 62t-59 17v-116q0 -43 14.5 -55.5t55.5 -13.5v-45h-292v45q41 1 54.5 14
t13.5 55v329q0 42 -13.5 55t-54.5 13v48h313q106 0 163 -36t57 -129q0 -72 -47.5 -107.5t-123.5 -39.5z" />
    <glyph glyph-name="s.sc" horiz-adv-x="512" 
d="M235 -13q-112 0 -202 47v118h101q7 -58 32 -82.5t80 -24.5q44 0 70.5 19t26.5 58q0 36 -20.5 54t-67.5 28l-75 16q-145 32 -145 166q0 89 63.5 137t159.5 48q114 0 186 -39v-116h-100q-7 47 -29.5 69t-66.5 22q-40 0 -63 -19t-23 -53q0 -30 16.5 -47.5t56.5 -26.5l91 -21
q150 -36 150 -169q0 -89 -63 -136.5t-178 -47.5z" />
    <glyph glyph-name="t.sc" horiz-adv-x="574" 
d="M364 493v-379q0 -42 14.5 -55t59.5 -14v-45h-303v45q46 1 60.5 14t14.5 55v379h-31q-44 0 -60 -22t-32 -92h-72l11 180h522l11 -180h-72q-16 69 -32 91.5t-61 22.5h-30z" />
    <glyph glyph-name="u.sc" horiz-adv-x="658" 
d="M564 443v-224q0 -116 -51.5 -173.5t-172.5 -57.5q-131 0 -189 53t-58 174v228q0 42 -13.5 55t-53.5 13v48h289v-48q-41 0 -54.5 -13t-13.5 -55v-225q0 -81 27.5 -117t88.5 -36q66 0 93 34.5t27 125.5v218q0 42 -13.5 55t-53.5 13v48h216v-48q-41 0 -54.5 -13t-13.5 -55z
" />
    <glyph glyph-name="v.sc" horiz-adv-x="610" 
d="M366 -4h-119l-169 453q-13 36 -25 47t-39 15v48h274v-48q-56 0 -56 -33q0 -8 5 -25l77 -234q16 -48 23 -100h4q8 54 23 100l77 233q5 17 5 26q0 33 -59 33v48h210v-48q-31 -4 -44.5 -15t-26.5 -47z" />
    <glyph glyph-name="w.sc" horiz-adv-x="872" 
d="M208 -4l-127 446q-11 38 -25 51.5t-45 17.5v48h281v-48q-40 0 -52.5 -16t-4.5 -50l46 -189q19 -82 24 -134h5q3 52 23 131l75 306h108l85 -306q20 -72 25 -131h5q7 59 24 130l48 198q7 33 -7.5 47t-54.5 14v48h219v-48q-35 -4 -50 -16t-25 -49l-122 -450h-128l-73 242
q-17 59 -26 134h-6q-6 -60 -25 -134l-63 -242h-134z" />
    <glyph glyph-name="x.sc" horiz-adv-x="643" 
d="M282 220l-79 -113q-12 -17 -12 -31q0 -30 48 -31v-45h-218v45q35 4 56 18.5t50 54.5l116 158l-120 168q-29 42 -42.5 53t-43.5 15v47h286v-47q-38 -1 -38 -24q0 -13 13 -32l61 -95h4l63 95q11 17 11 29q0 26 -42 27v47h209v-47q-24 -3 -40.5 -12.5t-26 -20.5t-32.5 -41
l-102 -138l125 -183q19 -28 30 -40q23 -28 64 -32v-45h-288v45q42 2 42 27q0 14 -12 30l-78 118h-4z" />
    <glyph glyph-name="y.sc" horiz-adv-x="597" 
d="M223 196l-142 262q-16 30 -29 40t-38 13v48h274v-48q-50 0 -50 -26q0 -10 8 -26l91 -180h5l85 181q8 18 8 27q0 24 -49 24v48h197v-48q-28 -3 -41.5 -13t-29.5 -40l-135 -262v-82q0 -42 14.5 -55t60.5 -14v-45h-303v45q45 1 59.5 14t14.5 55v82z" />
    <glyph glyph-name="z.sc" horiz-adv-x="530" 
d="M497 176l-9 -176h-464v60l293 432h-96q-55 0 -75 -19.5t-29 -79.5h-78l10 166h445v-60l-299 -432h107q64 0 87 20.5t40 88.5h68z" />
    <glyph glyph-name="exclamdown.sc" horiz-adv-x="308" 
d="M62 -13l46 355h93l46 -338zM63 478q0 38 27 65.5t65 27.5q37 0 64 -27.5t27 -65.5q0 -37 -27 -63.5t-64 -26.5q-38 0 -65 26.5t-27 63.5z" />
    <glyph glyph-name="mu.sc" horiz-adv-x="806" 
d="M756 559v-47q-40 -3 -50.5 -15.5t-8.5 -46.5l25 -337q3 -38 17.5 -52t50.5 -16v-45h-277v45q39 2 50.5 14t8.5 50l-17 214q-3 45 -3 87v20t0.5 18.5t0.5 8.5h-6q-6 -58 -30 -134l-98 -323h-103l-95 323q-10 36 -30 134h-6q0 -58 -5 -136l-14 -215q-2 -36 8.5 -48
t46.5 -12v-46h-204v46q36 2 51.5 15t18.5 51l24 339q2 34 -8.5 46t-50.5 15v47h246l69 -251q21 -77 31 -146h6q16 92 32 146l72 251h248z" />
    <glyph glyph-name="questiondown.sc" horiz-adv-x="449" 
d="M143 477q0 39 27.5 66.5t65.5 27.5t65 -27.5t27 -66.5q0 -38 -27 -64.5t-65 -26.5t-65.5 27t-27.5 64zM415 134v-95q-73 -52 -190 -52q-197 0 -197 127q0 29 9 51t28.5 37.5t33 23t39.5 18.5q42 18 58 34t16 36q0 12 -3 29h58q31 -22 31 -58q0 -26 -13.5 -45.5
t-47.5 -44.5q-27 -19 -39 -36t-12 -43q0 -61 57 -61q34 0 50.5 19t19.5 60h102z" />
    <glyph glyph-name="germandbls.sc" horiz-adv-x="1020" 
d="M235 -13q-112 0 -202 47v118h101q7 -58 32 -82.5t80 -24.5q44 0 70.5 19t26.5 58q0 36 -20.5 54t-67.5 28l-75 16q-145 32 -145 166q0 89 63.5 137t159.5 48q114 0 186 -39v-116h-100q-7 47 -29.5 69t-66.5 22q-40 0 -63 -19t-23 -53q0 -30 16.5 -47.5t56.5 -26.5l91 -21
q150 -36 150 -169q0 -89 -63 -136.5t-178 -47.5zM743 -13q-112 0 -202 47v118h101q7 -58 32 -82.5t80 -24.5q44 0 70.5 19t26.5 58q0 36 -20.5 54t-67.5 28l-75 16q-145 32 -145 166q0 89 63.5 137t159.5 48q115 0 186 -39v-116h-100q-7 47 -29.5 69t-66.5 22q-40 0 -63 -19
t-23 -53q0 -30 16.5 -47.5t56.5 -26.5l91 -21q150 -36 150 -169q0 -89 -63 -136.5t-178 -47.5z" />
    <glyph glyph-name="agrave.sc" horiz-adv-x="610" 
d="M247 559h116l177 -454q13 -35 24.5 -46t38.5 -15v-44h-269v44q57 0 57 33q0 7 -6 25l-19 48h-188l-17 -47q-5 -17 -5 -25q0 -34 59 -34v-44h-209v44q31 4 44.5 15t26.5 46zM245 333l-43 -118h140l-44 119q-14 38 -24 101h-4q-6 -50 -25 -102zM416 640l-26 -35l-240 96
l78 125z" />
    <glyph glyph-name="aacute.sc" horiz-adv-x="610" 
d="M198 605l-26 35l188 186l78 -125zM247 559h116l177 -454q13 -35 24.5 -46t38.5 -15v-44h-269v44q57 0 57 33q0 7 -6 25l-19 48h-188l-17 -47q-5 -17 -5 -25q0 -34 59 -34v-44h-209v44q31 4 44.5 15t26.5 46zM245 333l-43 -118h140l-44 119q-14 38 -24 101h-4
q-6 -50 -25 -102z" />
    <glyph glyph-name="acircumflex.sc" horiz-adv-x="610" 
d="M455 610l-151 78l-151 -78l-25 37l176 174l176 -174zM247 559h116l177 -454q13 -35 24.5 -46t38.5 -15v-44h-269v44q57 0 57 33q0 7 -6 25l-19 48h-188l-17 -47q-5 -17 -5 -25q0 -34 59 -34v-44h-209v44q31 4 44.5 15t26.5 46zM245 333l-43 -118h140l-44 119
q-14 38 -24 101h-4q-6 -50 -25 -102z" />
    <glyph glyph-name="atilde.sc" horiz-adv-x="610" 
d="M247 559h116l177 -454q13 -35 24.5 -46t38.5 -15v-44h-269v44q57 0 57 33q0 7 -6 25l-19 48h-188l-17 -47q-5 -17 -5 -25q0 -34 59 -34v-44h-209v44q31 4 44.5 15t26.5 46zM245 333l-43 -118h140l-44 119q-14 38 -24 101h-4q-6 -50 -25 -102zM373 733q49 0 73 45l37 -16
q-14 -57 -44 -94t-70 -37q-30 0 -73 16t-62 16q-45 0 -70 -48l-35 15q9 57 38.5 97t71.5 40q29 0 70.5 -17t63.5 -17z" />
    <glyph glyph-name="adieresis.sc" horiz-adv-x="610" 
d="M275 693q0 -33 -24 -56.5t-58 -23.5t-58 23.5t-24 56.5q0 34 24 58t59 24q34 0 57.5 -23.5t23.5 -58.5zM498 693q0 -33 -24 -56.5t-58 -23.5t-58 23.5t-24 56.5q0 34 24 58t59 24q34 0 57.5 -23.5t23.5 -58.5zM247 559h116l177 -454q13 -35 24.5 -46t38.5 -15v-44h-269
v44q57 0 57 33q0 7 -6 25l-19 48h-188l-17 -47q-5 -17 -5 -25q0 -34 59 -34v-44h-209v44q31 4 44.5 15t26.5 46zM245 333l-43 -118h140l-44 119q-14 38 -24 101h-4q-6 -50 -25 -102z" />
    <glyph glyph-name="aring.sc" horiz-adv-x="610" 
d="M304 609q-51 0 -84 33t-33 83q0 51 32.5 83.5t84.5 32.5t85 -32.5t33 -83.5q0 -50 -33 -83t-85 -33zM304 787q-25 0 -40 -17.5t-15 -44.5q0 -25 15 -42t40 -17q26 0 41.5 17t15.5 42q0 27 -15.5 44.5t-41.5 17.5zM247 559h116l177 -454q13 -35 24.5 -46t38.5 -15v-44
h-269v44q57 0 57 33q0 7 -6 25l-19 48h-188l-17 -47q-5 -17 -5 -25q0 -34 59 -34v-44h-209v44q31 4 44.5 15t26.5 46zM245 333l-43 -118h140l-44 119q-14 38 -24 101h-4q-6 -50 -25 -102z" />
    <glyph glyph-name="ae.sc" horiz-adv-x="838" 
d="M8 0v44q31 4 46 15t33 44l191 343q14 24 14 40q0 25 -49 25v48h536l12 -159h-70q-18 60 -35 75t-69 15h-80v-174h27q44 0 56 7.5t13 42.5h62v-162h-62q-1 35 -13 43t-55 8h-28v-190h94q53 0 73 20.5t26 89.5h71v-175h-479v45q40 1 53.5 14t13.5 55v60h-174l-40 -71
q-10 -20 -10 -31q0 -28 53 -28v-44h-210zM395 494l-143 -254h137v151q0 53 10 103h-4z" />
    <glyph glyph-name="ccedilla.sc" horiz-adv-x="572" 
d="M414 -119q0 -85 -118 -85q-61 0 -98 25l16 39q28 -18 66 -18q36 0 36 28q0 30 -59 32v21l20 67q-238 21 -238 281q0 300 293 300q120 0 196 -43v-131h-100q-10 54 -32 80t-69 26q-67 0 -94 -50t-27 -174q0 -125 28.5 -175.5t90.5 -50.5q54 0 78 26t33 81h96v-126
q-61 -41 -185 -46h-21l-8 -29q96 -6 96 -78z" />
    <glyph glyph-name="egrave.sc" horiz-adv-x="560" 
d="M259 255v-190h94q53 0 73 20.5t26 89.5h72v-175h-486v45q41 1 54.5 14t13.5 55v329q0 42 -13.5 55t-54.5 13v48h463l12 -159h-70q-18 60 -34.5 75t-68.5 15h-81v-174h27q44 0 56 7.5t13 42.5h62v-162h-62q-1 35 -13 43t-55 8h-28zM408 640l-26 -35l-240 96l78 125z" />
    <glyph glyph-name="eacute.sc" horiz-adv-x="560" 
d="M259 255v-190h94q53 0 73 20.5t26 89.5h72v-175h-486v45q41 1 54.5 14t13.5 55v329q0 42 -13.5 55t-54.5 13v48h463l12 -159h-70q-18 60 -34.5 75t-68.5 15h-81v-174h27q44 0 56 7.5t13 42.5h62v-162h-62q-1 35 -13 43t-55 8h-28zM190 605l-26 35l188 186l78 -125z" />
    <glyph glyph-name="ecircumflex.sc" horiz-adv-x="560" 
d="M259 255v-190h94q53 0 73 20.5t26 89.5h72v-175h-486v45q41 1 54.5 14t13.5 55v329q0 42 -13.5 55t-54.5 13v48h463l12 -159h-70q-18 60 -34.5 75t-68.5 15h-81v-174h27q44 0 56 7.5t13 42.5h62v-162h-62q-1 35 -13 43t-55 8h-28zM443 610l-151 78l-151 -78l-25 37
l176 174l176 -174z" />
    <glyph glyph-name="edieresis.sc" horiz-adv-x="560" 
d="M259 255v-190h94q53 0 73 20.5t26 89.5h72v-175h-486v45q41 1 54.5 14t13.5 55v329q0 42 -13.5 55t-54.5 13v48h463l12 -159h-70q-18 60 -34.5 75t-68.5 15h-81v-174h27q44 0 56 7.5t13 42.5h62v-162h-62q-1 35 -13 43t-55 8h-28zM266 693q0 -33 -24 -56.5t-58 -23.5
t-58 23.5t-24 56.5q0 34 24 58t59 24q34 0 57.5 -23.5t23.5 -58.5zM489 693q0 -33 -24 -56.5t-58 -23.5t-58 23.5t-24 56.5q0 34 24 58t59 24q34 0 57.5 -23.5t23.5 -58.5z" />
    <glyph glyph-name="igrave.sc" horiz-adv-x="362" 
d="M104 114v329q0 42 -13.5 55t-54.5 13v48h290v-48q-41 0 -54.5 -13t-13.5 -55v-329q0 -42 13.5 -55t54.5 -14v-45h-290v45q41 1 54.5 14t13.5 55zM293 640l-26 -35l-240 96l78 125z" />
    <glyph glyph-name="iacute.sc" horiz-adv-x="362" 
d="M75 605l-26 35l188 186l78 -125zM104 114v329q0 42 -13.5 55t-54.5 13v48h290v-48q-41 0 -54.5 -13t-13.5 -55v-329q0 -42 13.5 -55t54.5 -14v-45h-290v45q41 1 54.5 14t13.5 55z" />
    <glyph glyph-name="icircumflex.sc" horiz-adv-x="362" 
d="M332 603l-151 78l-151 -78l-25 37l176 174l176 -174zM104 114v329q0 42 -13.5 55t-54.5 13v48h290v-48q-41 0 -54.5 -13t-13.5 -55v-329q0 -42 13.5 -55t54.5 -14v-45h-290v45q41 1 54.5 14t13.5 55z" />
    <glyph glyph-name="idieresis.sc" horiz-adv-x="362" 
d="M152 693q0 -33 -24 -56.5t-58 -23.5t-58 23.5t-24 56.5q0 34 24 58t59 24q34 0 57.5 -23.5t23.5 -58.5zM375 693q0 -33 -24 -56.5t-58 -23.5t-58 23.5t-24 56.5q0 34 24 58t59 24q34 0 57.5 -23.5t23.5 -58.5zM104 114v329q0 42 -13.5 55t-54.5 13v48h290v-48
q-41 0 -54.5 -13t-13.5 -55v-329q0 -42 13.5 -55t54.5 -14v-45h-290v45q41 1 54.5 14t13.5 55z" />
    <glyph glyph-name="eth.sc" horiz-adv-x="644" 
d="M38 249v66h66v128q0 42 -13.5 55t-54.5 13v48h272q146 0 221.5 -62t75.5 -212q0 -153 -77 -219t-219 -66h-273v45q41 1 54.5 14t13.5 55v135h-66zM447 285q0 86 -15.5 130t-45.5 59t-89 15h-39v-174h107v-66h-107v-185h39q59 0 88.5 15t45.5 63t16 143z" />
    <glyph glyph-name="ntilde.sc" horiz-adv-x="663" 
d="M104 114v329q0 42 -13.5 55t-53.5 13v48h229l157 -239q38 -57 68 -128h6q-8 77 -8 155v96q0 42 -13.5 55t-54.5 13v48h216v-48q-40 0 -53.5 -13t-13.5 -55v-443h-114l-189 275q-54 79 -85 148h-6q9 -52 9 -160v-149q0 -42 13.5 -55t54.5 -14v-45h-216v45q40 1 53.5 14
t13.5 55zM416 733q49 0 73 45l37 -16q-14 -57 -44 -94t-70 -37q-30 0 -73 16t-62 16q-45 0 -70 -48l-35 15q9 57 38.5 97t71.5 40q29 0 70.5 -17t63.5 -17z" />
    <glyph glyph-name="ograve.sc" horiz-adv-x="648" 
d="M323 -12q-136 0 -210 73.5t-74 210.5q0 149 76 224t208 75q133 0 209 -75t76 -224q0 -138 -74 -211t-211 -73zM324 499q-59 0 -87.5 -51t-28.5 -170q0 -127 30 -177.5t86 -50.5q59 0 88.5 50.5t29.5 180.5q0 117 -29 167.5t-89 50.5zM435 640l-26 -35l-240 96l78 125z
" />
    <glyph glyph-name="oacute.sc" horiz-adv-x="648" 
d="M323 -12q-136 0 -210 73.5t-74 210.5q0 149 76 224t208 75q133 0 209 -75t76 -224q0 -138 -74 -211t-211 -73zM324 499q-59 0 -87.5 -51t-28.5 -170q0 -127 30 -177.5t86 -50.5q59 0 88.5 50.5t29.5 180.5q0 117 -29 167.5t-89 50.5zM216 605l-26 35l188 186l78 -125z
" />
    <glyph glyph-name="ocircumflex.sc" horiz-adv-x="648" 
d="M474 610l-151 78l-151 -78l-25 37l176 174l176 -174zM323 -12q-136 0 -210 73.5t-74 210.5q0 149 76 224t208 75q133 0 209 -75t76 -224q0 -138 -74 -211t-211 -73zM324 499q-59 0 -87.5 -51t-28.5 -170q0 -127 30 -177.5t86 -50.5q59 0 88.5 50.5t29.5 180.5
q0 117 -29 167.5t-89 50.5z" />
    <glyph glyph-name="otilde.sc" horiz-adv-x="648" 
d="M323 -12q-136 0 -210 73.5t-74 210.5q0 149 76 224t208 75q133 0 209 -75t76 -224q0 -138 -74 -211t-211 -73zM324 499q-59 0 -87.5 -51t-28.5 -170q0 -127 30 -177.5t86 -50.5q59 0 88.5 50.5t29.5 180.5q0 117 -29 167.5t-89 50.5zM391 733q49 0 73 45l37 -16
q-14 -57 -44 -94t-70 -37q-30 0 -73 16t-62 16q-45 0 -70 -48l-35 15q9 57 38.5 97t71.5 40q29 0 70.5 -17t63.5 -17z" />
    <glyph glyph-name="odieresis.sc" horiz-adv-x="648" 
d="M293 693q0 -33 -24 -56.5t-58 -23.5t-58 23.5t-24 56.5q0 34 24 58t59 24q34 0 57.5 -23.5t23.5 -58.5zM516 693q0 -33 -24 -56.5t-58 -23.5t-58 23.5t-24 56.5q0 34 24 58t59 24q34 0 57.5 -23.5t23.5 -58.5zM323 -12q-136 0 -210 73.5t-74 210.5q0 149 76 224t208 75
q133 0 209 -75t76 -224q0 -138 -74 -211t-211 -73zM324 499q-59 0 -87.5 -51t-28.5 -170q0 -127 30 -177.5t86 -50.5q59 0 88.5 50.5t29.5 180.5q0 117 -29 167.5t-89 50.5z" />
    <glyph glyph-name="oslash.sc" horiz-adv-x="648" 
d="M323 -12q-84 0 -147 29l-53 -76l-43 29l51 75q-92 72 -92 227q0 149 76 224t208 75q90 0 155 -35l50 72l44 -30l-50 -72q86 -77 86 -234q0 -138 -74 -211t-211 -73zM324 499q-59 0 -87.5 -51t-28.5 -170q0 -72 11 -112l192 277q-25 56 -87 56zM442 281q0 62 -11 99
l-192 -277q25 -53 85 -53q59 0 88.5 50.5t29.5 180.5z" />
    <glyph glyph-name="ugrave.sc" horiz-adv-x="658" 
d="M464 640l-26 -35l-240 96l78 125zM564 443v-224q0 -116 -51.5 -173.5t-172.5 -57.5q-131 0 -189 53t-58 174v228q0 42 -13.5 55t-53.5 13v48h289v-48q-41 0 -54.5 -13t-13.5 -55v-225q0 -81 27.5 -117t88.5 -36q66 0 93 34.5t27 125.5v218q0 42 -13.5 55t-53.5 13v48h216
v-48q-41 0 -54.5 -13t-13.5 -55z" />
    <glyph glyph-name="uacute.sc" horiz-adv-x="658" 
d="M246 605l-26 35l188 186l78 -125zM564 443v-224q0 -116 -51.5 -173.5t-172.5 -57.5q-131 0 -189 53t-58 174v228q0 42 -13.5 55t-53.5 13v48h289v-48q-41 0 -54.5 -13t-13.5 -55v-225q0 -81 27.5 -117t88.5 -36q66 0 93 34.5t27 125.5v218q0 42 -13.5 55t-53.5 13v48h216
v-48q-41 0 -54.5 -13t-13.5 -55z" />
    <glyph glyph-name="ucircumflex.sc" horiz-adv-x="658" 
d="M504 603l-151 78l-151 -78l-25 37l176 174l176 -174zM564 443v-224q0 -116 -51.5 -173.5t-172.5 -57.5q-131 0 -189 53t-58 174v228q0 42 -13.5 55t-53.5 13v48h289v-48q-41 0 -54.5 -13t-13.5 -55v-225q0 -81 27.5 -117t88.5 -36q66 0 93 34.5t27 125.5v218
q0 42 -13.5 55t-53.5 13v48h216v-48q-41 0 -54.5 -13t-13.5 -55z" />
    <glyph glyph-name="udieresis.sc" horiz-adv-x="658" 
d="M323 693q0 -33 -24 -56.5t-58 -23.5t-58 23.5t-24 56.5q0 34 24 58t59 24q34 0 57.5 -23.5t23.5 -58.5zM546 693q0 -33 -24 -56.5t-58 -23.5t-58 23.5t-24 56.5q0 34 24 58t59 24q34 0 57.5 -23.5t23.5 -58.5zM564 443v-224q0 -116 -51.5 -173.5t-172.5 -57.5
q-131 0 -189 53t-58 174v228q0 42 -13.5 55t-53.5 13v48h289v-48q-41 0 -54.5 -13t-13.5 -55v-225q0 -81 27.5 -117t88.5 -36q66 0 93 34.5t27 125.5v218q0 42 -13.5 55t-53.5 13v48h216v-48q-41 0 -54.5 -13t-13.5 -55z" />
    <glyph glyph-name="yacute.sc" horiz-adv-x="597" 
d="M217 605l-26 35l188 186l78 -125zM223 196l-142 262q-16 30 -29 40t-38 13v48h274v-48q-50 0 -50 -26q0 -10 8 -26l91 -180h5l85 181q8 18 8 27q0 24 -49 24v48h197v-48q-28 -3 -41.5 -13t-29.5 -40l-135 -262v-82q0 -42 14.5 -55t60.5 -14v-45h-303v45q45 1 59.5 14
t14.5 55v82z" />
    <glyph glyph-name="thorn.sc" horiz-adv-x="576" 
d="M399 284q0 60 -23.5 79t-86.5 19h-31v-193h39q58 0 80 19t22 76zM258 449h61q49 0 81 -2.5t65 -12t51.5 -27.5t30 -48.5t11.5 -74.5q0 -87 -58 -122.5t-177 -35.5h-65v-12q0 -45 16.5 -56.5t68.5 -12.5v-45h-307v45q41 1 54.5 14t13.5 55v329q0 42 -13.5 55t-54.5 13v48
h290v-48q-38 0 -53 -13t-15 -49z" />
    <glyph glyph-name="ydieresis.sc" horiz-adv-x="597" 
d="M287 693q0 -33 -24 -56.5t-58 -23.5t-58 23.5t-24 56.5q0 34 24 58t59 24q34 0 57.5 -23.5t23.5 -58.5zM510 693q0 -33 -24 -56.5t-58 -23.5t-58 23.5t-24 56.5q0 34 24 58t59 24q34 0 57.5 -23.5t23.5 -58.5zM223 196l-142 262q-16 30 -29 40t-38 13v48h274v-48
q-50 0 -50 -26q0 -10 8 -26l91 -180h5l85 181q8 18 8 27q0 24 -49 24v48h197v-48q-28 -3 -41.5 -13t-29.5 -40l-135 -262v-82q0 -42 14.5 -55t60.5 -14v-45h-303v45q45 1 59.5 14t14.5 55v82z" />
    <glyph glyph-name="dotlessi.sc" horiz-adv-x="362" 
d="M104 114v329q0 42 -13.5 55t-54.5 13v48h290v-48q-41 0 -54.5 -13t-13.5 -55v-329q0 -42 13.5 -55t54.5 -14v-45h-290v45q41 1 54.5 14t13.5 55z" />
    <glyph glyph-name="ij.sc" horiz-adv-x="720" 
d="M104 114v329q0 42 -13.5 55t-54.5 13v48h290v-48q-41 0 -54.5 -13t-13.5 -55v-329q0 -42 13.5 -55t54.5 -14v-45h-290v45q41 1 54.5 14t13.5 55zM463 108v335q0 42 -13.5 55t-54.5 13v48h289v-48q-41 0 -54.5 -13t-13.5 -55v-330q0 -117 -61 -175t-190 -82l-22 48
q76 32 98 73.5t22 130.5z" />
    <glyph glyph-name="lslash.sc" horiz-adv-x="539" 
d="M258 443v-129l162 58v-55l-162 -57v-195h83q51 0 74.5 25t35.5 95h71l-11 -185h-475v45q41 1 54.5 14t13.5 55v91l-67 -24v55l67 23v184q0 42 -13.5 55t-54.5 13v48h290v-48q-41 0 -54.5 -13t-13.5 -55z" />
    <glyph glyph-name="oe.sc" horiz-adv-x="855" 
d="M347 559h449l11 -159h-69q-18 60 -35 75t-69 15h-80v-174h27q44 0 56 7.5t13 42.5h62v-162h-62q-1 35 -13 43t-55 8h-28v-190h94q53 0 73 20.5t26 89.5h71v-175h-464q-154 0 -234.5 65t-80.5 215q0 152 81.5 215.5t226.5 63.5zM360 65h40v424q-4 0 -23 0.5t-25 0.5
q-82 0 -118.5 -46t-36.5 -164q0 -126 37 -170.5t126 -44.5z" />
    <glyph glyph-name="scaron.sc" horiz-adv-x="512" 
d="M257 731l151 78l25 -37l-176 -174l-176 174l25 37zM235 -13q-112 0 -202 47v118h101q7 -58 32 -82.5t80 -24.5q44 0 70.5 19t26.5 58q0 36 -20.5 54t-67.5 28l-75 16q-145 32 -145 166q0 89 63.5 137t159.5 48q114 0 186 -39v-116h-100q-7 47 -29.5 69t-66.5 22
q-40 0 -63 -19t-23 -53q0 -30 16.5 -47.5t56.5 -26.5l91 -21q150 -36 150 -169q0 -89 -63 -136.5t-178 -47.5z" />
    <glyph glyph-name="zcaron.sc" horiz-adv-x="530" 
d="M497 176l-9 -176h-464v60l293 432h-96q-55 0 -75 -19.5t-29 -79.5h-78l10 166h445v-60l-299 -432h107q64 0 87 20.5t40 88.5h68zM289 731l151 78l25 -37l-176 -174l-176 174l25 37z" />
    <glyph glyph-name="longs.sc" horiz-adv-x="512" 
d="M235 -13q-112 0 -202 47v118h101q7 -58 32 -82.5t80 -24.5q44 0 70.5 19t26.5 58q0 36 -20.5 54t-67.5 28l-75 16q-145 32 -145 166q0 89 63.5 137t159.5 48q114 0 186 -39v-116h-100q-7 47 -29.5 69t-66.5 22q-40 0 -63 -19t-23 -53q0 -30 16.5 -47.5t56.5 -26.5l91 -21
q150 -36 150 -169q0 -89 -63 -136.5t-178 -47.5z" />
    <glyph glyph-name="gravecomb.sc" 
d="M-212 640l-26 -35l-240 96l78 125z" />
    <glyph glyph-name="acutecomb.sc" 
d="M-431 605l-26 35l188 186l78 -125z" />
    <glyph glyph-name="uni0302.sc" 
d="M-173 610l-151 78l-151 -78l-25 37l176 174l176 -174z" />
    <glyph glyph-name="tildecomb.sc" 
d="M-256 733q49 0 73 45l37 -16q-14 -57 -44 -94t-70 -37q-30 0 -73 16t-62 16q-45 0 -70 -48l-35 15q9 57 38.5 97t71.5 40q29 0 70.5 -17t63.5 -17z" />
    <glyph glyph-name="uni0304.sc" 
d="M-79 657h-302v78h302v-78z" />
    <glyph glyph-name="uni0306.sc" 
d="M-244 598q-66 0 -107 47t-59 115l37 22q54 -81 128 -81q73 0 129 81l37 -22q-17 -67 -58 -114.5t-107 -47.5z" />
    <glyph glyph-name="uni0307.sc" 
d="M-79 694q0 -35 -25 -59.5t-61 -24.5q-35 0 -60 24.5t-25 59.5t25.5 60t61.5 25q35 0 59.5 -25t24.5 -60z" />
    <glyph glyph-name="uni0308.sc" 
d="M-302 693q0 -33 -24 -56.5t-58 -23.5t-58 23.5t-24 56.5q0 34 24 58t59 24q34 0 57.5 -23.5t23.5 -58.5zM-79 693q0 -33 -24 -56.5t-58 -23.5t-58 23.5t-24 56.5q0 34 24 58t59 24q34 0 57.5 -23.5t23.5 -58.5z" />
    <glyph glyph-name="uni030A.sc" 
d="M-197 609q-51 0 -84 33t-33 83q0 51 33 83.5t84 32.5q52 0 85 -32.5t33 -83.5q0 -50 -33 -83t-85 -33zM-197 787q-25 0 -40 -17.5t-15 -44.5q0 -25 15 -42t40 -17q26 0 41.5 17t15.5 42q0 27 -15.5 44.5t-41.5 17.5z" />
    <glyph glyph-name="uni030B.sc" 
d="M-259 816l-133 -202l-49 20l63 227zM-79 783l-157 -178l-43 26l88 219z" />
    <glyph glyph-name="uni030C.sc" 
d="M-240 731l151 78l25 -37l-176 -174l-176 174l25 37z" />
    <glyph glyph-name="dotbelowcomb.sc" 
d="M244 -133q0 -36 -26 -62t-63 -26q-36 0 -62 26t-26 62t26.5 62t63.5 26q36 0 61.5 -26t25.5 -62z" />
    <glyph glyph-name="uni0326.sc" 
d="M-78 -142q0 -57 -42 -93.5t-110 -50.5l-25 35q41 13 56.5 24.5t15.5 29.5q0 16 -26 28q-37 14 -37 58q0 28 21.5 47.5t56.5 19.5q42 0 66 -27t24 -71z" />
    <glyph glyph-name="uni0327.sc" 
d="M-31 -119q0 -85 -118 -85q-61 0 -98 25l16 39q28 -18 67 -18q35 0 35 28q0 30 -59 32l1 21l27 94l48 -6l-15 -52q96 -6 96 -78z" />
    <glyph glyph-name="uni0328.sc" 
d="M-50 -130l16 -29q-44 -45 -120 -45q-51 0 -84 22.5t-33 67.5q0 47 39.5 78t134.5 67l22 -19q-74 -51 -74 -108q0 -25 12.5 -37t32.5 -12q25 0 54 15z" />
    <glyph glyph-name="uni03BC.sc" horiz-adv-x="806" 
d="M756 559v-47q-40 -3 -50.5 -15.5t-8.5 -46.5l25 -337q3 -38 17.5 -52t50.5 -16v-45h-277v45q39 2 50.5 14t8.5 50l-17 214q-3 45 -3 87v20t0.5 18.5t0.5 8.5h-6q-6 -58 -30 -134l-98 -323h-103l-95 323q-10 36 -30 134h-6q0 -58 -5 -136l-14 -215q-2 -36 8.5 -48
t46.5 -12v-46h-204v46q36 2 51.5 15t18.5 51l24 339q2 34 -8.5 46t-50.5 15v47h246l69 -251q21 -77 31 -146h6q16 92 32 146l72 251h248z" />
    <glyph glyph-name="uniFB00.sc" horiz-adv-x="1078" 
d="M258 238v-124q0 -43 16.5 -55.5t67.5 -13.5v-45h-305v45q40 1 53.5 14t13.5 55v329q0 42 -13.5 55t-53.5 13v48h463l11 -159h-69q-17 60 -34 75t-70 15h-80v-192h30q44 0 56 9t13 49h62v-176h-62q-1 38 -13.5 48t-54.5 10h-31zM797 238v-124q0 -43 16.5 -55.5t67.5 -13.5
v-45h-305v45q40 1 53.5 14t13.5 55v329q0 42 -13.5 55t-53.5 13v48h463l11 -159h-69q-17 60 -34 75t-70 15h-80v-192h30q44 0 56 9t13 49h62v-176h-62q-1 38 -13.5 48t-54.5 10h-31z" />
    <glyph glyph-name="fi.sc" horiz-adv-x="902" 
d="M258 237v-123q0 -43 17 -55.5t68 -13.5v-45h-307v45q41 1 54.5 14t13.5 55v329q0 42 -13.5 55t-54.5 13v48h464l11 -159h-69q-18 60 -35 75t-69 15h-80v-192h30q44 0 56 9t13 49h62v-176h-62q-1 38 -13.5 47.5t-54.5 9.5h-31zM644 114v329q0 42 -13.5 55t-54.5 13v48h289
v-48q-40 0 -53.5 -13t-13.5 -55v-329q0 -42 13.5 -55t53.5 -14v-45h-289v45q41 1 54.5 14t13.5 55z" />
    <glyph glyph-name="fl.sc" horiz-adv-x="1079" 
d="M258 237v-123q0 -43 17 -55.5t68 -13.5v-45h-307v45q41 1 54.5 14t13.5 55v329q0 42 -13.5 55t-54.5 13v48h464l11 -159h-69q-18 60 -35 75t-69 15h-80v-192h30q44 0 56 9t13 49h62v-176h-62q-1 38 -13.5 47.5t-54.5 9.5h-31zM798 443v-378h82q51 0 75 25t36 95h71
l-11 -185h-475v45q41 1 54.5 14t13.5 55v329q0 42 -13.5 55t-54.5 13v48h289v-48q-40 0 -53.5 -13t-13.5 -55z" />
    <glyph glyph-name="uniFB03.sc" horiz-adv-x="1440" 
d="M258 238v-124q0 -43 16.5 -55.5t67.5 -13.5v-45h-305v45q40 1 53.5 14t13.5 55v329q0 42 -13.5 55t-53.5 13v48h463l11 -159h-69q-17 60 -34 75t-70 15h-80v-192h30q44 0 56 9t13 49h62v-176h-62q-1 38 -13.5 48t-54.5 10h-31zM797 238v-124q0 -43 16.5 -55.5t67.5 -13.5
v-45h-305v45q40 1 53.5 14t13.5 55v329q0 42 -13.5 55t-53.5 13v48h463l11 -159h-69q-17 60 -34 75t-70 15h-80v-192h30q44 0 56 9t13 49h62v-176h-62q-1 38 -13.5 48t-54.5 10h-31zM1336 443v-329q0 -42 13.5 -55t53.5 -14v-45h-288v45q40 1 53.5 14t13.5 55v329
q0 42 -13.5 55t-53.5 13v48h288v-48q-40 0 -53.5 -13t-13.5 -55z" />
    <glyph glyph-name="uniFB04.sc" horiz-adv-x="1617" 
d="M258 238v-124q0 -43 16.5 -55.5t67.5 -13.5v-45h-305v45q40 1 53.5 14t13.5 55v329q0 42 -13.5 55t-53.5 13v48h463l11 -159h-69q-17 60 -34 75t-70 15h-80v-192h30q44 0 56 9t13 49h62v-176h-62q-1 38 -13.5 48t-54.5 10h-31zM797 238v-124q0 -43 16.5 -55.5t67.5 -13.5
v-45h-305v45q40 1 53.5 14t13.5 55v329q0 42 -13.5 55t-53.5 13v48h463l11 -159h-69q-17 60 -34 75t-70 15h-80v-192h30q44 0 56 9t13 49h62v-176h-62q-1 38 -13.5 48t-54.5 10h-31zM1182 114v329q0 42 -13.5 55t-53.5 13v48h288v-48q-40 0 -53.5 -13t-13.5 -55v-378h83
q51 0 74.5 25t35.5 95h71l-11 -185h-474v45q40 1 53.5 14t13.5 55z" />
    <glyph glyph-name="parenleft.case" horiz-adv-x="341" 
d="M181 341q0 -76 5 -132.5t18.5 -115.5t43 -103t73.5 -71l-24 -46q-145 52 -201.5 163.5t-56.5 303.5q0 190 56.5 296.5t201.5 162.5l24 -46q-84 -54 -112 -154.5t-28 -257.5z" />
    <glyph glyph-name="parenright.case" horiz-adv-x="341" 
d="M160 341q0 157 -28 258t-112 154l24 46q145 -56 202 -162.5t57 -296.5q0 -192 -57 -303.5t-202 -163.5l-24 46q84 51 112 155t28 267z" />
    <glyph glyph-name="hyphen.case" horiz-adv-x="348" 
d="M300 287h-252v115h252v-115z" />
    <glyph glyph-name="at.case" horiz-adv-x="907" 
d="M601 123q-70 0 -100.5 21.5t-30.5 68.5q-26 -46 -59 -69t-84 -23t-79 32.5t-28 93.5q0 130 84 225t207 95q102 0 156 -33q-19 -58 -27 -92l-44 -201q-4 -17 -4 -32q0 -36 47 -36q57 0 96 58t39 168q0 148 -79.5 221.5t-217.5 73.5q-155 0 -250.5 -103.5t-95.5 -281.5
q0 -145 81.5 -233.5t222.5 -88.5q89 0 161 24l15 -36q-88 -35 -188 -35q-170 0 -276 97.5t-106 272.5q0 189 124.5 310t313.5 121q175 0 281 -94t106 -249q0 -138 -76 -206.5t-189 -68.5zM484 297l47 199q-14 15 -38 15q-62 0 -104.5 -81t-42.5 -174q0 -56 35 -56
q41 0 103 97z" />
    <glyph glyph-name="bracketleft.case" horiz-adv-x="360" 
d="M331 -112h-241v928h241v-56h-106v-816h106v-56z" />
    <glyph glyph-name="bracketright.case" horiz-adv-x="360" 
d="M270 -112h-241v56h106v816h-106v56h241v-928z" />
    <glyph glyph-name="braceleft.case" horiz-adv-x="390" 
d="M259 670v-185q0 -36 -9.5 -62t-25 -40t-29 -20.5t-27.5 -8.5v-4q14 -2 27.5 -8.5t29 -20t25 -39.5t9.5 -61v-187q0 -95 75 -95h31v-51h-95q-139 0 -139 140v208q0 49 -26 70t-80 21v49q54 0 80 21t26 70v209q0 140 139 140h95v-51h-31q-75 0 -75 -95z" />
    <glyph glyph-name="braceright.case" horiz-adv-x="390" 
d="M131 485v185q0 95 -75 95h-31v51h95q139 0 139 -140v-209q0 -49 26 -70t80 -21v-49q-54 0 -80 -21t-26 -70v-208q0 -140 -139 -140h-95v50h31q75 0 75 95v188q0 65 29 94t62 35v4q-14 2 -27.5 8.5t-29 20.5t-25 40t-9.5 62z" />
    <glyph glyph-name="exclamdown.case" horiz-adv-x="315" 
d="M65 -10l46 482h93l47 -465zM66 613q0 39 27 66t65 27t64.5 -27t26.5 -66q0 -37 -27 -63.5t-64 -26.5q-38 0 -65 26.5t-27 63.5z" />
    <glyph glyph-name="guillemotleft.case" horiz-adv-x="612" 
d="M193 347l113 -179l-52 -46l-211 228l211 229l52 -46zM433 347l113 -179l-53 -46l-210 228l210 229l53 -46z" />
    <glyph glyph-name="uni00AD.case" horiz-adv-x="348" 
d="M300 287h-252v115h252v-115z" />
    <glyph glyph-name="guillemotright.case" horiz-adv-x="612" 
d="M303 168l113 179l-113 186l53 46l210 -229l-210 -228zM64 168l113 179l-113 186l52 46l210 -229l-210 -228z" />
    <glyph glyph-name="questiondown.case" horiz-adv-x="469" 
d="M165 612q0 39 28 66.5t66 27.5t65 -27.5t27 -66.5q0 -38 -27 -64.5t-65 -26.5t-66 27t-28 64zM257 57q35 0 56 24.5t24 70.5h99v-116q-34 -21 -86.5 -35t-104.5 -14q-93 0 -150 39.5t-57 119.5q0 32 10 59.5t30 48t33.5 31t35.5 25.5q50 34 67.5 55t17.5 58q0 23 -5 48
h65q33 -38 33 -91q0 -61 -68 -123q-24 -22 -35.5 -34.5t-23 -37.5t-11.5 -54q0 -33 19 -53.5t51 -20.5z" />
    <glyph glyph-name="gravecomb.case" 
d="M-237 765l-24 -38l-246 72l64 130z" />
    <glyph glyph-name="acutecomb.case" 
d="M-460 727l-24 38l205 164l65 -130z" />
    <glyph glyph-name="uni0302.case" 
d="M-202 731l-151 77l-151 -77l-25 37l176 173l176 -173z" />
    <glyph glyph-name="tildecomb.case" 
d="M-283 857q51 0 75 46l37 -16q-14 -56 -44 -92.5t-72 -36.5q-33 0 -76 18t-62 18q-46 0 -73 -49l-35 15q9 57 39 96t73 39q31 0 73 -19t65 -19z" />
    <glyph glyph-name="uni0304.case" 
d="M-79 797h-302v78h302v-78z" />
    <glyph glyph-name="uni0306.case" 
d="M-244 731q-66 0 -107 47t-59 115l37 22q54 -81 128 -81q73 0 129 81l37 -22q-17 -67 -58 -114.5t-107 -47.5z" />
    <glyph glyph-name="uni0307.case" 
d="M-79 817q0 -35 -25 -59.5t-61 -24.5q-35 0 -60 24.5t-25 59.5t25.5 60t61.5 25q35 0 59.5 -25t24.5 -60z" />
    <glyph glyph-name="uni0308.case" 
d="M-302 816q0 -33 -24 -56.5t-58 -23.5t-58 23.5t-24 56.5q0 34 24 58t59 24q34 0 57.5 -23.5t23.5 -58.5zM-79 816q0 -33 -24 -56.5t-58 -23.5t-58 23.5t-24 56.5q0 34 24 58t59 24q34 0 57.5 -23.5t23.5 -58.5z" />
    <glyph glyph-name="uni030A.case" 
d="M-197 729q-51 0 -84 33t-33 83q0 51 33 83.5t84 32.5q52 0 85 -32.5t33 -83.5q0 -50 -33 -83t-85 -33zM-197 907q-25 0 -40 -17.5t-15 -44.5q0 -25 15 -42t40 -17q26 0 41.5 17t15.5 42q0 27 -15.5 44.5t-41.5 17.5z" />
    <glyph glyph-name="uni030B.case" 
d="M-259 938l-133 -202l-49 20l63 227zM-79 905l-157 -178l-43 26l88 219z" />
    <glyph glyph-name="uni030C.case" 
d="M-263 864l151 77l25 -37l-176 -173l-176 173l25 37z" />
    <glyph glyph-name="uni0313.case" 
d="M-86 724l-67 -177l-60 9l13 181z" />
    <glyph glyph-name="uni0326.case" 
d="M-78 -142q0 -57 -42 -93.5t-110 -50.5l-25 35q41 13 56.5 24.5t15.5 29.5q0 16 -26 28q-37 14 -37 58q0 28 21.5 47.5t56.5 19.5q42 0 66 -27t24 -71z" />
    <glyph glyph-name="uni0327.case" 
d="M-31 -119q0 -85 -118 -85q-61 0 -98 25l16 39q28 -18 67 -18q35 0 35 28q0 30 -59 32l1 21l27 94l48 -6l-15 -52q96 -6 96 -78z" />
    <glyph glyph-name="uni0328.case" 
d="M-50 -130l16 -29q-44 -45 -120 -45q-51 0 -84 22.5t-33 67.5q0 47 39.5 78t134.5 67l22 -19q-74 -51 -74 -108q0 -25 12.5 -37t32.5 -12q25 0 54 15z" />
    <glyph glyph-name="endash.case" horiz-adv-x="582" 
d="M534 291h-486v95h486v-95z" />
    <glyph glyph-name="emdash.case" horiz-adv-x="807" 
d="M759 291h-711v95h711v-95z" />
    <glyph glyph-name="guilsinglleft.case" horiz-adv-x="370" 
d="M193 347l113 -179l-52 -46l-211 228l211 229l52 -46z" />
    <glyph glyph-name="guilsinglright.case" horiz-adv-x="370" 
d="M64 168l113 179l-113 186l52 46l210 -229l-210 -228z" />
    <glyph glyph-name="mu.mgrk" horiz-adv-x="618" 
d="M277 -12q-27 0 -47 15l-3 -4q5 -35 5 -74v-107l-145 -29v564q0 54 -11 68.5t-49 16.5v44l184 35h24v-350q0 -82 65 -82q47 0 89 35v233q0 54 -11 68.5t-48 16.5v44l184 35h24v-368q0 -54 11 -68t51 -17v-41l-161 -36h-15q-23 27 -27 77q-24 -43 -52 -59.5t-68 -16.5z" />
    <glyph glyph-name="pi.mgrk" horiz-adv-x="613" 
d="M360 190v194h-125q-4 -260 -45 -384h-144v84q49 35 78.5 103.5t37.5 196.5q-64 -5 -110 -51l-27 32q20 73 65 110t130 37h233q87 0 145 26l-20 -133q-26 -16 -84 -21v-199q0 -70 13.5 -103t56.5 -53l-26 -44q-97 9 -137.5 55t-40.5 150z" />
    <glyph glyph-name="Omega.mgrk" horiz-adv-x="727" 
d="M363 644q-86 0 -120 -66.5t-34 -188.5q0 -200 122 -308v-81h-285l-14 173h62q11 -54 34.5 -68t79.5 -14h40q-81 48 -136 122t-55 175q0 142 85.5 230.5t220.5 88.5t220.5 -88.5t85.5 -230.5q0 -101 -55 -175t-136 -122h41q55 0 79 14t35 68h61l-13 -173h-286v81
q123 108 123 308q0 58 -7 102t-24 80t-48 54.5t-76 18.5z" />
    <glyph glyph-name="Delta.mgrk" horiz-adv-x="593" 
d="M575 0h-557v46l218 556h116l223 -556v-46zM112 69h290l-112 284q-27 67 -32 111h-4q-8 -46 -34 -113z" />
    <glyph glyph-name="zero.zero" horiz-adv-x="584" 
d="M544 264q0 -137 -70.5 -207t-185.5 -70q-112 0 -180 71.5t-68 196.5q0 120 71 195t183 75q108 0 179 -67.5t71 -193.5zM380 267q0 43 -5 81l-152 -253q20 -48 70 -48q44 0 65.5 50t21.5 170zM203 252q0 -45 3 -81l150 249q-21 41 -65 41q-46 0 -67 -47t-21 -162z" />
    <glyph glyph-name="zero.tf.zero" horiz-adv-x="570" 
d="M537 334q0 -171 -72 -259t-182 -88q-116 0 -183 86.5t-67 255.5q0 172 70 259.5t186 87.5q107 0 177.5 -89.5t70.5 -252.5zM378 335q0 55 -5 105l-171 -284q10 -55 29.5 -78.5t53.5 -23.5q46 0 69.5 64.5t23.5 216.5zM191 338q0 -66 2 -93l167 277q-22 83 -76 83
q-47 0 -70 -59.5t-23 -207.5z" />
    <glyph glyph-name="zero.lf.zero" horiz-adv-x="628" 
d="M588 334q0 -171 -79 -259t-198 -88q-127 0 -199 86.5t-72 255.5q0 172 75.5 259.5t203.5 87.5q117 0 193 -89t76 -253zM419 334q0 68 -6 117l-189 -310q23 -87 90 -87q105 0 105 280zM206 337q0 -70 4 -114l185 306q-25 75 -83 75q-52 0 -79 -62t-27 -205z" />
    <glyph glyph-name="zero.tosf.zero" horiz-adv-x="570" 
d="M537 264q0 -137 -70.5 -207t-185.5 -70q-112 0 -180 71.5t-68 196.5q0 120 71 195t183 75q108 0 179 -67.5t71 -193.5zM373 267q0 43 -5 81l-152 -253q20 -48 70 -48q44 0 65.5 50t21.5 170zM196 252q0 -45 3 -81l150 249q-21 41 -65 41q-46 0 -67 -47t-21 -162z" />
    <glyph glyph-name="E.ss01" horiz-adv-x="585" 
d="M550 0h-521v46q40 0 54 14.5t14 56.5v458q0 42 -14 56.5t-54 15.5v48h498l11 -169h-74q-18 61 -35.5 79.5t-68.5 18.5h-106v-236l165 17h39v-103h-39l-165 17v-252h121q51 0 72 23.5t27 92.5h76v-183z" />
    <glyph glyph-name="F.ss01" horiz-adv-x="577" 
d="M254 312v-194q0 -43 17 -57.5t68 -14.5v-46h-310v46q40 0 54 14.5t14 56.5v458q0 42 -14 56.5t-54 15.5v48h501l12 -171h-74q-19 63 -37 81.5t-70 18.5h-107v-243l168 17h38v-103h-38z" />
    <glyph glyph-name="AE.ss01" horiz-adv-x="933" 
d="M594 388l165 17h39v-103h-39l-165 17v-252h124q51 0 72 24t27 92h76v-183h-519v46q40 0 54.5 14.5t14.5 56.5v108h-195l-65 -126q-9 -18 -9 -27q0 -23 60 -26v-46h-226v46q34 4 53 16t36 46l235 468q11 22 11 36q0 33 -59 35v48h585l12 -169h-75q-18 61 -35.5 79.5
t-67.5 18.5h-109v-236zM446 624l-160 -325h157v131q0 118 9 194h-6z" />
    <glyph glyph-name="Egrave.ss01" horiz-adv-x="585" 
d="M418 765l-24 -38l-246 72l64 130zM550 0h-521v46q40 0 54 14.5t14 56.5v458q0 42 -14 56.5t-54 15.5v48h498l11 -169h-74q-18 61 -35.5 79.5t-68.5 18.5h-106v-236l165 17h39v-103h-39l-165 17v-252h121q51 0 72 23.5t27 92.5h76v-183z" />
    <glyph glyph-name="Eacute.ss01" horiz-adv-x="585" 
d="M196 727l-24 38l205 164l65 -130zM550 0h-521v46q40 0 54 14.5t14 56.5v458q0 42 -14 56.5t-54 15.5v48h498l11 -169h-74q-18 61 -35.5 79.5t-68.5 18.5h-106v-236l165 17h39v-103h-39l-165 17v-252h121q51 0 72 23.5t27 92.5h76v-183z" />
    <glyph glyph-name="Ecircumflex.ss01" horiz-adv-x="585" 
d="M453 731l-151 77l-151 -77l-25 37l176 173l176 -173zM550 0h-521v46q40 0 54 14.5t14 56.5v458q0 42 -14 56.5t-54 15.5v48h498l11 -169h-74q-18 61 -35.5 79.5t-68.5 18.5h-106v-236l165 17h39v-103h-39l-165 17v-252h121q51 0 72 23.5t27 92.5h76v-183z" />
    <glyph glyph-name="Edieresis.ss01" horiz-adv-x="585" 
d="M550 0h-521v46q40 0 54 14.5t14 56.5v458q0 42 -14 56.5t-54 15.5v48h498l11 -169h-74q-18 61 -35.5 79.5t-68.5 18.5h-106v-236l165 17h39v-103h-39l-165 17v-252h121q51 0 72 23.5t27 92.5h76v-183zM273 817q0 -33 -24 -56.5t-58 -23.5t-58 23.5t-24 56.5q0 34 24 57.5
t59 23.5q34 0 57.5 -23t23.5 -58zM496 817q0 -33 -24 -56.5t-58 -23.5t-58 23.5t-24 56.5q0 34 24 57.5t59 23.5t58 -23t23 -58z" />
    <glyph glyph-name="OE.ss01" horiz-adv-x="973" 
d="M420 67h60v557h-64q-100 0 -153 -62.5t-53 -224.5q0 -82 14.5 -136.5t44 -83t65 -39.5t86.5 -11zM641 319v-252h124q51 0 72 24t27 92h76v-183h-532q-171 0 -269 89.5t-98 254.5q0 179 99.5 265t263.5 86h513l11 -169h-74q-18 61 -35.5 79.5t-68.5 18.5h-109v-236l165 17
h39v-103h-39z" />
    <glyph glyph-name="arrowleft.ss01" horiz-adv-x="862" 
d="M161 263q0 -22 -15.5 -37.5t-37.5 -15.5t-38 15.5t-16 37.5t16 37.5t38 15.5t37.5 -15.5t15.5 -37.5zM240 143q0 -23 -16 -38.5t-38 -15.5t-37.5 16t-15.5 38t15.5 37.5t37.5 15.5t38 -15.5t16 -37.5zM240 383q0 -22 -16 -37.5t-38 -15.5t-37.5 15.5t-15.5 37.5t15.5 38
t37.5 16t38 -16t16 -38zM319 22q0 -22 -16 -37.5t-38 -15.5t-37.5 15.5t-15.5 37.5t15.5 38t37.5 16q23 0 38.5 -16t15.5 -38zM322 263q0 -22 -15.5 -37.5t-37.5 -15.5t-37.5 15.5t-15.5 37.5t15.5 37.5t37.5 15.5t37.5 -15.5t15.5 -37.5zM319 503q0 -22 -16 -37.5
t-38 -15.5t-37.5 15.5t-15.5 37.5t15.5 38t37.5 16t38 -16t16 -38zM484 263q0 -22 -15.5 -37.5t-37.5 -15.5t-37.5 15.5t-15.5 37.5t15.5 37.5t37.5 15.5t37.5 -15.5t15.5 -37.5zM645 263q0 -22 -15.5 -37.5t-37.5 -15.5t-37.5 15.5t-15.5 37.5t15.5 37.5t37.5 15.5
t37.5 -15.5t15.5 -37.5zM807 263q0 -22 -15.5 -37.5t-37.5 -15.5t-38 15.5t-16 37.5t16 37.5t38 15.5t37.5 -15.5t15.5 -37.5z" />
    <glyph glyph-name="arrowup.ss01" horiz-adv-x="862" 
d="M431 71q-22 0 -37.5 16t-15.5 38t15.5 37t37.5 15t37.5 -15t15.5 -37t-15.5 -38t-37.5 -16zM431 233q-22 0 -37.5 15.5t-15.5 37.5t15.5 37.5t37.5 15.5t37.5 -15.5t15.5 -37.5t-15.5 -37.5t-37.5 -15.5zM431 394q-22 0 -37.5 15.5t-15.5 37.5t15.5 38t37.5 16t37.5 -16
t15.5 -38t-15.5 -37.5t-37.5 -15.5zM431 555q-22 0 -37.5 16t-15.5 38t15.5 37.5t37.5 15.5t37.5 -15.5t15.5 -37.5t-15.5 -38t-37.5 -16zM431 717q-22 0 -37.5 16t-15.5 38t15.5 37t37.5 15t37.5 -15t15.5 -37t-15.5 -38t-37.5 -16zM311 639q-23 0 -38.5 15t-15.5 37
q0 23 15.5 38.5t38.5 15.5q22 0 37.5 -16t15.5 -38t-15.5 -37t-37.5 -15zM190 559q-22 0 -37.5 16t-15.5 38t15.5 37.5t37.5 15.5t38 -15.5t16 -37.5t-16 -38t-38 -16zM551 639q-22 0 -37.5 15t-15.5 37t15.5 38t37.5 16t38 -16t16 -38t-16 -37t-38 -15zM671 559
q-22 0 -37.5 16t-15.5 38t15.5 37.5t37.5 15.5t38 -15.5t16 -37.5t-16 -38t-38 -16z" />
    <glyph glyph-name="arrowright.ss01" horiz-adv-x="862" 
d="M54 263q0 22 16 37.5t38 15.5t37.5 -15.5t15.5 -37.5t-15.5 -37.5t-37.5 -15.5t-38 15.5t-16 37.5zM216 263q0 22 15.5 37.5t37.5 15.5t37.5 -15.5t15.5 -37.5t-15.5 -37.5t-37.5 -15.5t-37.5 15.5t-15.5 37.5zM378 263q0 22 15.5 37.5t37.5 15.5t37.5 -15.5t15.5 -37.5
t-15.5 -37.5t-37.5 -15.5t-37.5 15.5t-15.5 37.5zM543 22q0 22 15.5 38t37.5 16t37.5 -16t15.5 -38t-15.5 -37.5t-37.5 -15.5t-37.5 15.5t-15.5 37.5zM539 263q0 22 15.5 37.5t37.5 15.5t37.5 -15.5t15.5 -37.5t-15.5 -37.5t-37.5 -15.5t-37.5 15.5t-15.5 37.5zM543 503
q0 22 15.5 38t37.5 16t37.5 -16t15.5 -38t-15.5 -37.5t-37.5 -15.5t-37.5 15.5t-15.5 37.5zM622 143q0 22 15.5 37.5t37.5 15.5t37.5 -15.5t15.5 -37.5t-15.5 -38t-37.5 -16t-37.5 15.5t-15.5 38.5zM622 383q0 22 15.5 38t37.5 16t37.5 -16t15.5 -38t-15.5 -37.5
t-37.5 -15.5t-37.5 15.5t-15.5 37.5zM700 263q0 22 16 37.5t38 15.5t37.5 -15.5t15.5 -37.5t-15.5 -37.5t-37.5 -15.5t-38 15.5t-16 37.5z" />
    <glyph glyph-name="arrowdown.ss01" horiz-adv-x="862" 
d="M431 662q22 0 37.5 -15.5t15.5 -37.5t-15.5 -38t-37.5 -16t-37.5 16t-15.5 38t15.5 37.5t37.5 15.5zM431 501q22 0 37.5 -16t15.5 -38t-15.5 -37.5t-37.5 -15.5t-37.5 15.5t-15.5 37.5t15.5 38t37.5 16zM431 339q22 0 37.5 -15.5t15.5 -37.5t-15.5 -37.5t-37.5 -15.5
t-37.5 15.5t-15.5 37.5t15.5 37.5t37.5 15.5zM431 177q22 0 37.5 -15t15.5 -37t-15.5 -38t-37.5 -16t-37.5 16t-15.5 38t15.5 37t37.5 15zM431 16q22 0 37.5 -15.5t15.5 -37.5t-15.5 -37.5t-37.5 -15.5t-37.5 15.5t-15.5 37.5t15.5 37.5t37.5 15.5zM551 95q22 0 38 -16
t16 -38t-16 -37t-38 -15t-37.5 15t-15.5 37t15.5 38t37.5 16zM671 174q22 0 38 -15.5t16 -37.5t-16 -38t-38 -16t-37.5 16t-15.5 38t15.5 37.5t37.5 15.5zM311 95q22 0 37.5 -16t15.5 -38t-15.5 -37t-37.5 -15q-23 0 -38.5 15t-15.5 37q0 23 15.5 38.5t38.5 15.5zM190 174
q22 0 38 -15.5t16 -37.5q0 -23 -16 -38.5t-38 -15.5t-37.5 16t-15.5 38t15.5 37.5t37.5 15.5z" />
    <glyph glyph-name="arrowboth.ss01" horiz-adv-x="1326" 
d="M161 263q0 -22 -15.5 -37.5t-37.5 -15.5t-38 15.5t-16 37.5t16 37.5t38 15.5t37.5 -15.5t15.5 -37.5zM240 143q0 -23 -16 -38.5t-38 -15.5t-37.5 16t-15.5 38t15.5 37.5t37.5 15.5t38 -15.5t16 -37.5zM240 383q0 -22 -16 -37.5t-38 -15.5t-37.5 15.5t-15.5 37.5t15.5 38
t37.5 16t38 -16t16 -38zM319 22q0 -22 -16 -37.5t-38 -15.5t-37.5 15.5t-15.5 37.5t15.5 38t37.5 16q23 0 38.5 -16t15.5 -38zM322 263q0 -22 -15.5 -37.5t-37.5 -15.5t-37.5 15.5t-15.5 37.5t15.5 37.5t37.5 15.5t37.5 -15.5t15.5 -37.5zM319 503q0 -22 -16 -37.5
t-38 -15.5t-37.5 15.5t-15.5 37.5t15.5 38t37.5 16t38 -16t16 -38zM484 263q0 -22 -15.5 -37.5t-37.5 -15.5t-37.5 15.5t-15.5 37.5t15.5 37.5t37.5 15.5t37.5 -15.5t15.5 -37.5zM645 263q0 -22 -15.5 -37.5t-37.5 -15.5t-37.5 15.5t-15.5 37.5t15.5 37.5t37.5 15.5
t37.5 -15.5t15.5 -37.5zM807 263q0 -22 -15.5 -37.5t-37.5 -15.5t-38 15.5t-16 37.5t16 37.5t38 15.5t37.5 -15.5t15.5 -37.5zM1185 263q0 22 15.5 37.5t37.5 15.5t38 -15.5t16 -37.5t-16 -37.5t-38 -15.5t-37.5 15.5t-15.5 37.5zM1106 143q0 22 16 37.5t38 15.5t37.5 -15.5
t15.5 -37.5t-15.5 -38t-37.5 -16t-38 15.5t-16 38.5zM1106 383q0 22 16 38t38 16t37.5 -16t15.5 -38t-15.5 -37.5t-37.5 -15.5t-38 15.5t-16 37.5zM1027 22q0 22 15.5 38t38.5 16q22 0 37.5 -16t15.5 -38t-15.5 -37.5t-37.5 -15.5t-38 15.5t-16 37.5zM1024 263
q0 22 15.5 37.5t37.5 15.5t37.5 -15.5t15.5 -37.5t-15.5 -37.5t-37.5 -15.5t-37.5 15.5t-15.5 37.5zM1027 503q0 22 16 38t38 16t37.5 -16t15.5 -38t-15.5 -37.5t-37.5 -15.5t-38 15.5t-16 37.5zM862 263q0 22 15.5 37.5t37.5 15.5t37.5 -15.5t15.5 -37.5t-15.5 -37.5
t-37.5 -15.5t-37.5 15.5t-15.5 37.5z" />
    <glyph glyph-name="arrowupdn.ss01" horiz-adv-x="862" 
d="M431 -142q22 0 37.5 -15.5t15.5 -37.5t-15.5 -38t-37.5 -16t-37.5 16t-15.5 38t15.5 37.5t37.5 15.5zM551 -63q23 0 38.5 -15.5t15.5 -38.5q0 -22 -16 -37.5t-38 -15.5t-37.5 15.5t-15.5 37.5t15.5 38t37.5 16zM311 -63q22 0 37.5 -16t15.5 -38t-15.5 -37.5t-37.5 -15.5
t-38 15.5t-16 37.5t16 38t38 16zM672 16q22 0 37.5 -16t15.5 -38t-15.5 -37.5t-37.5 -15.5t-38 15.5t-16 37.5t16 38t38 16zM431 19q22 0 37.5 -15.5t15.5 -37.5t-15.5 -37.5t-37.5 -15.5t-37.5 15.5t-15.5 37.5t15.5 37.5t37.5 15.5zM191 16q22 0 37.5 -16t15.5 -38
t-15.5 -37.5t-37.5 -15.5t-38 15.5t-16 37.5t16 38t38 16zM431 181q22 0 37.5 -15.5t15.5 -37.5t-15.5 -37.5t-37.5 -15.5t-37.5 15.5t-15.5 37.5t15.5 37.5t37.5 15.5zM431 342q22 0 37.5 -15.5t15.5 -37.5t-15.5 -37.5t-37.5 -15.5t-37.5 15.5t-15.5 37.5t15.5 37.5
t37.5 15.5zM431 720q-22 0 -37.5 15.5t-15.5 37.5t15.5 38t37.5 16t37.5 -16t15.5 -38t-15.5 -37.5t-37.5 -15.5zM551 641q-22 0 -37.5 16t-15.5 38t15.5 37.5t37.5 15.5t38 -15.5t16 -37.5q0 -23 -15.5 -38.5t-38.5 -15.5zM311 641q-22 0 -38 16t-16 38t16 37.5t38 15.5
t37.5 -15.5t15.5 -37.5t-15.5 -38t-37.5 -16zM672 562q-22 0 -38 16t-16 38t16 37.5t38 15.5t37.5 -15.5t15.5 -37.5t-15.5 -38t-37.5 -16zM431 559q-22 0 -37.5 15.5t-15.5 37.5t15.5 37.5t37.5 15.5t37.5 -15.5t15.5 -37.5t-15.5 -37.5t-37.5 -15.5zM191 562q-22 0 -38 16
t-16 38t16 37.5t38 15.5t37.5 -15.5t15.5 -37.5t-15.5 -38t-37.5 -16zM431 397q-22 0 -37.5 15.5t-15.5 37.5t15.5 37.5t37.5 15.5t37.5 -15.5t15.5 -37.5t-15.5 -37.5t-37.5 -15.5z" />
    <glyph glyph-name="uni2196.ss01" horiz-adv-x="862" 
d="M688 133q22 0 38 -15.5t16 -37.5t-16 -37.5t-38 -15.5t-37.5 15.5t-15.5 37.5t15.5 37.5t37.5 15.5zM573 248q22 0 38 -15.5t16 -37.5t-16 -37.5t-38 -15.5t-37 15.5t-15 37.5t15 37.5t37 15.5zM460 362q22 0 38 -15.5t16 -37.5t-16 -37.5t-38 -15.5t-37 15.5t-15 37.5
t15 37.5t37 15.5zM346 476q22 0 38 -15.5t16 -37.5t-16 -37.5t-38 -15.5t-37 15.5t-15 37.5t15 37.5t37 15.5zM231 590q22 0 38 -15.5t16 -37.5t-16 -37.5t-38 -15.5t-37 15.5t-15 37.5t15 37.5t37 15.5zM202 449q22 0 37.5 -15.5t15.5 -37.5t-15.5 -37.5t-37.5 -15.5
t-37.5 15.5t-15.5 37.5t15.5 37.5t37.5 15.5zM173 309q22 0 37.5 -15.5t15.5 -37.5t-15.5 -37.5t-37.5 -15.5t-37.5 15.5t-15.5 37.5t15.5 37.5t37.5 15.5zM372 620q22 0 37.5 -15.5t15.5 -37.5t-15.5 -37.5t-37.5 -15.5t-37.5 15.5t-15.5 37.5t15.5 37.5t37.5 15.5z
M512 649q22 0 38 -15t16 -37t-16 -38t-38 -16t-37.5 16t-15.5 38t15.5 37t37.5 15z" />
    <glyph glyph-name="uni2197.ss01" horiz-adv-x="862" 
d="M174 133q22 0 37 -15.5t15 -37.5t-15 -37.5t-37 -15.5t-38 15.5t-16 37.5t15.5 37.5t38.5 15.5zM288 248q22 0 37.5 -15.5t15.5 -37.5t-15.5 -37.5t-37.5 -15.5t-37.5 15.5t-15.5 37.5t15.5 37.5t37.5 15.5zM401 362q22 0 37.5 -15.5t15.5 -37.5t-15.5 -37.5t-37.5 -15.5
t-37.5 15.5t-15.5 37.5t15.5 37.5t37.5 15.5zM515 476q22 0 37.5 -15.5t15.5 -37.5t-15.5 -37.5t-37.5 -15.5t-37.5 15.5t-15.5 37.5t15.5 37.5t37.5 15.5zM630 590q22 0 37.5 -15.5t15.5 -37.5t-15.5 -37.5t-37.5 -15.5t-37.5 15.5t-15.5 37.5t15.5 37.5t37.5 15.5z
M660 449q22 0 37.5 -15.5t15.5 -37.5t-15.5 -37.5t-37.5 -15.5t-38 15.5t-16 37.5t16 37.5t38 15.5zM689 309q22 0 37.5 -15.5t15.5 -37.5t-15.5 -37.5t-37.5 -15.5t-38 15.5t-16 37.5t16 37.5t38 15.5zM490 620q22 0 37.5 -15.5t15.5 -37.5t-15.5 -37.5t-37.5 -15.5
t-38 15.5t-16 37.5t16 37.5t38 15.5zM349 649q22 0 37.5 -15t15.5 -37q0 -23 -15.5 -38.5t-37.5 -15.5t-37.5 16t-15.5 38t15.5 37t37.5 15z" />
    <glyph glyph-name="uni2198.ss01" horiz-adv-x="862" 
d="M174 458q-23 0 -38.5 15t-15.5 37t16 38t38 16t37 -15.5t15 -38.5q0 -22 -15 -37t-37 -15zM288 343q-22 0 -37.5 15.5t-15.5 37.5t15.5 37.5t37.5 15.5t37.5 -15.5t15.5 -37.5t-15.5 -37.5t-37.5 -15.5zM401 229q-22 0 -37.5 15.5t-15.5 37.5t15.5 37.5t37.5 15.5
t37.5 -15.5t15.5 -37.5t-15 -37.5t-38 -15.5zM515 115q-22 0 -37.5 15.5t-15.5 37.5t15.5 37.5t37.5 15.5t37.5 -15.5t15.5 -37.5t-15.5 -37.5t-37.5 -15.5zM630 1q-22 0 -37.5 15.5t-15.5 37.5t15.5 37.5t37.5 15.5t37.5 -15.5t15.5 -37.5t-15.5 -37.5t-37.5 -15.5z
M660 142q-22 0 -38 15t-16 37t16 38t38 16t37.5 -16t15.5 -38t-15.5 -37t-37.5 -15zM689 282q-22 0 -38 15.5t-16 37.5t16 37.5t38 15.5t37.5 -15.5t15.5 -37.5t-15.5 -37.5t-37.5 -15.5zM490 -29q-22 0 -38 15t-16 37t16 38t38 16t37.5 -16t15.5 -38t-15.5 -37t-37.5 -15z
M349 -59q-22 0 -37.5 15.5t-15.5 37.5t15.5 38t37.5 16t37.5 -16t15.5 -38t-15.5 -37.5t-37.5 -15.5z" />
    <glyph glyph-name="uni2199.ss01" horiz-adv-x="862" 
d="M688 458q-22 0 -37.5 15t-15.5 37t15.5 38t37.5 16t38 -16t16 -38t-16 -37t-38 -15zM573 343q-22 0 -37 15.5t-15 37.5t15 37.5t37 15.5t38 -15.5t16 -37.5t-15.5 -37.5t-38.5 -15.5zM460 229q-22 0 -37 15.5t-15 37.5t15 37.5t37 15.5t38 -15.5t16 -37.5t-15.5 -37.5
t-38.5 -15.5zM346 115q-22 0 -37 15.5t-15 37.5t15 37.5t37 15.5t38 -15.5t16 -37.5t-16 -37.5t-38 -15.5zM231 1q-22 0 -37 15.5t-15 37.5t15 37.5t37 15.5t38 -15.5t16 -37.5t-16 -37.5t-38 -15.5zM202 142q-22 0 -37.5 15t-15.5 37t15.5 38t37.5 16t37.5 -16t15.5 -38
t-15.5 -37t-37.5 -15zM173 282q-22 0 -37.5 15.5t-15.5 37.5t15.5 37.5t37.5 15.5t37.5 -15.5t15.5 -37.5t-15.5 -37.5t-37.5 -15.5zM372 -29q-22 0 -37.5 15t-15.5 37t15.5 38t37.5 16t37.5 -16t15.5 -38t-15.5 -37t-37.5 -15zM512 -59q-22 0 -37.5 15.5t-15.5 37.5
t15.5 38t37.5 16t38 -16t16 -38t-16 -37.5t-38 -15.5z" />
    <glyph glyph-name="e.sc.ss01" horiz-adv-x="559" 
d="M258 252v-187h94q52 0 72.5 21t26.5 89h71v-175h-486v45q41 1 54.5 14t13.5 55v329q0 42 -13.5 55t-54.5 13v48h462l12 -159h-70q-18 60 -34.5 75t-68.5 15h-79v-173l123 13h38v-92h-38z" />
    <glyph glyph-name="f.sc.ss01" horiz-adv-x="540" 
d="M258 245v-131q0 -43 17 -55.5t68 -13.5v-45h-307v45q41 1 54.5 14t13.5 55v329q0 42 -13.5 55t-54.5 13v48h464l11 -159h-69q-18 60 -35 75t-69 15h-80v-181l125 14h39v-92h-39z" />
    <glyph glyph-name="ae.sc.ss01" horiz-adv-x="844" 
d="M8 0v44q31 4 46 15t33 44l191 343q14 26 14 40q0 25 -49 25v48h536l12 -159h-70q-18 60 -35 75t-69 15h-80v-173l123 13h39v-92h-39l-123 14v-187h94q53 0 73 20.5t26 89.5h71v-175h-479v45q40 1 53.5 14t13.5 55v60h-174l-40 -71q-10 -20 -10 -31q0 -28 53 -28v-44h-210
zM252 240h137v151q0 60 10 103h-4z" />
    <glyph glyph-name="egrave.sc.ss01" horiz-adv-x="559" 
d="M258 252v-187h94q52 0 72.5 21t26.5 89h71v-175h-486v45q41 1 54.5 14t13.5 55v329q0 42 -13.5 55t-54.5 13v48h462l12 -159h-70q-18 60 -34.5 75t-68.5 15h-79v-173l123 13h38v-92h-38zM406 640l-26 -35l-240 96l78 125z" />
    <glyph glyph-name="eacute.sc.ss01" horiz-adv-x="559" 
d="M258 252v-187h94q52 0 72.5 21t26.5 89h71v-175h-486v45q41 1 54.5 14t13.5 55v329q0 42 -13.5 55t-54.5 13v48h462l12 -159h-70q-18 60 -34.5 75t-68.5 15h-79v-173l123 13h38v-92h-38zM189 605l-26 35l188 186l78 -125z" />
    <glyph glyph-name="ecircumflex.sc.ss01" horiz-adv-x="559" 
d="M444 610l-151 78l-151 -78l-25 37l176 174l176 -174zM258 252v-187h94q52 0 72.5 21t26.5 89h71v-175h-486v45q41 1 54.5 14t13.5 55v329q0 42 -13.5 55t-54.5 13v48h462l12 -159h-70q-18 60 -34.5 75t-68.5 15h-79v-173l123 13h38v-92h-38z" />
    <glyph glyph-name="edieresis.sc.ss01" horiz-adv-x="559" 
d="M264 693q0 -33 -24 -56.5t-58 -23.5t-58 23.5t-24 56.5q0 34 24 58t59 24q34 0 57.5 -23.5t23.5 -58.5zM487 693q0 -33 -24 -56.5t-58 -23.5t-58 23.5t-24 56.5q0 34 24 58t59 24q34 0 57.5 -23.5t23.5 -58.5zM258 252v-187h94q52 0 72.5 21t26.5 89h71v-175h-486v45
q41 1 54.5 14t13.5 55v329q0 42 -13.5 55t-54.5 13v48h462l12 -159h-70q-18 60 -34.5 75t-68.5 15h-79v-173l123 13h38v-92h-38z" />
    <glyph glyph-name="oe.sc.ss01" horiz-adv-x="848" 
d="M353 65h40v424q-4 0 -23.5 0.5t-24.5 0.5q-81 0 -114.5 -45t-33.5 -165q0 -127 34 -171t122 -44zM547 252v-187h94q53 0 73 20.5t26 89.5h71v-175h-464q-149 0 -228.5 65t-79.5 215q0 79 22.5 134.5t65 86.5t94.5 44.5t119 13.5h449l11 -159h-69q-18 60 -35 75t-69 15
h-80v-173l123 13h38v-92h-38z" />
    <glyph glyph-name="arrowleft.ss02" horiz-adv-x="802" 
d="M288 379h477v-70h-477q-30 0 -75 10v-4q32 -18 54 -54l167 -261h-46l-351 344l351 345h46l-167 -262q-25 -40 -54 -54v-4q45 10 75 10z" />
    <glyph glyph-name="arrowup.ss02" horiz-adv-x="802" 
d="M366 -21v476q0 30 10 75h-4q-17 -31 -54 -54l-262 -166v46l345 351l344 -351v-46l-261 166q-37 24 -54 54h-4q10 -45 10 -75v-476h-70z" />
    <glyph glyph-name="arrowright.ss02" horiz-adv-x="802" 
d="M37 379h477q42 0 75 -10v4q-29 14 -54 54l-167 262h46l351 -345l-351 -344h-46l167 261q23 37 54 54v4q-33 -10 -75 -10h-477v70z" />
    <glyph glyph-name="arrowdown.ss02" horiz-adv-x="802" 
d="M366 234v477h70v-477q0 -30 -10 -75h4q19 31 54 54l261 167v-46l-344 -351l-345 351v46l262 -167q36 -22 54 -54h4q-10 37 -10 75z" />
    <glyph glyph-name="arrowboth.ss02" horiz-adv-x="1318" 
d="M288 379h742q30 0 75 -10v4q-29 14 -54 54l-167 262h46l351 -345l-351 -344h-46l167 261q22 36 54 54v4q-45 -10 -75 -10h-742q-30 0 -75 10v-4q32 -18 54 -54l167 -261h-46l-351 344l351 345h46l-167 -262q-25 -40 -54 -54v-4q45 10 75 10z" />
    <glyph glyph-name="arrowupdn.ss02" horiz-adv-x="802" 
d="M366 1v575q0 30 10 75h-4q-14 -29 -54 -54l-262 -167v46l345 351l344 -351v-46l-261 167q-36 22 -54 54h-4q10 -45 10 -75v-575q0 -30 -10 -75h4q18 32 54 54l261 167v-46l-344 -351l-345 351v46l262 -167q40 -25 54 -54h4q-10 45 -10 75z" />
    <glyph glyph-name="uni2196.ss02" horiz-adv-x="802" 
d="M619 55l-336 337q-19 19 -47 59l-3 -2q4 -24 4 -37q0 -20 -4 -39l-67 -304l-33 33v487h487l33 -33l-302 -66q-19 -4 -39 -4q-24 0 -38 4l-3 -3q31 -18 60 -47l337 -336z" />
    <glyph glyph-name="uni2197.ss02" horiz-adv-x="802" 
d="M519 392l-337 -337l-49 49l337 336q28 27 60 47l-3 3q-16 -4 -38 -4q-20 0 -39 4l-302 66l33 33h487v-487l-33 -33l-67 304q-4 19 -4 39q0 25 4 37l-3 2q-19 -33 -46 -59z" />
    <glyph glyph-name="uni2198.ss02" horiz-adv-x="802" 
d="M182 587l337 -337q25 -25 46 -59l3 2q-4 14 -4 37q0 20 4 39l67 304l33 -33v-487h-487l-33 33l302 66q19 4 39 4q14 0 38 -4l3 3q-32 19 -60 47l-337 336z" />
    <glyph glyph-name="uni2199.ss02" horiz-adv-x="802" 
d="M283 250l336 337l49 -49l-337 -336q-31 -31 -60 -47l3 -3q18 4 38 4q22 0 39 -4l302 -66l-33 -33h-487v487l33 33l67 -304q4 -19 4 -39q0 -17 -4 -37l3 -2q16 28 47 59z" />
    <glyph glyph-name="uni306.alt001.comp" 
d="M223 731q-64 0 -109.5 40t-60.5 100l37 22q45 -67 133 -67q87 0 132 67l38 -22q-16 -60 -61 -100t-109 -40z" />
    <glyph glyph-name="uni306.alt001.sc.comp" 
d="M232 612q-65 0 -109.5 40t-59.5 100l38 22q43 -65 130 -65q88 0 131 65l38 -22q-15 -61 -59.5 -100.5t-108.5 -39.5z" />
    <glyph glyph-name="macron.lc" horiz-adv-x="462" 
d="M382 601h-302v78h302v-78z" />
    <glyph glyph-name="acute.lc" horiz-adv-x="426" 
d="M106 558l-26 35l188 186l78 -125z" />
    <glyph glyph-name="grave.uc" horiz-adv-x="512" 
d="M391 765l-24 -38l-246 72l64 130z" />
    <glyph glyph-name="dieresis.uc" horiz-adv-x="605" 
d="M272 817q0 -33 -24 -56.5t-58 -23.5t-58 23.5t-24 56.5q0 34 24 57.5t59 23.5t58 -23t23 -58zM495 817q0 -33 -24 -56.5t-58 -23.5t-58 23.5t-24 56.5q0 34 24 57.5t59 23.5q34 0 57.5 -23t23.5 -58z" />
    <glyph glyph-name="macron.uc" horiz-adv-x="435" 
d="M371 773h-306v78h306v-78z" />
    <glyph glyph-name="acute.uc" horiz-adv-x="512" 
d="M153 727l-24 38l205 164l65 -130z" />
    <glyph glyph-name="circumflex.uc" horiz-adv-x="571" 
d="M436 731l-151 77l-151 -77l-25 37l176 173l176 -173z" />
    <glyph glyph-name="caron.uc" horiz-adv-x="524" 
d="M263 864l151 77l25 -37l-176 -173l-176 173l25 37z" />
    <glyph glyph-name="breve.uc" horiz-adv-x="474" 
d="M237 743q-67 0 -109.5 47.5t-60.5 114.5l37 23q58 -82 133 -82q73 0 133 82l37 -23q-18 -67 -60.5 -114.5t-109.5 -47.5z" />
    <glyph glyph-name="dotaccent.uc" horiz-adv-x="318" 
d="M244 828q0 -35 -25 -59.5t-61 -24.5q-35 0 -60 24.5t-25 59.5t25.5 60t61.5 25q35 0 59.5 -25t24.5 -60z" />
    <glyph glyph-name="ring.uc" horiz-adv-x="381" 
d="M190 736q-51 0 -84 33t-33 83t33 83t84 33q52 0 85 -33t33 -83t-33 -83t-85 -33zM190 914q-25 0 -40.5 -17.5t-15.5 -44.5q0 -25 15.5 -42t40.5 -17q26 0 41 17t15 42q0 27 -15 44.5t-41 17.5z" />
    <glyph glyph-name="tilde.uc" horiz-adv-x="573" 
d="M354 857q51 0 75 46l37 -16q-14 -56 -44 -92.5t-72 -36.5q-33 0 -76 18t-62 18q-46 0 -73 -49l-35 15q9 57 39 96t73 39q31 0 73 -19t65 -19z" />
    <glyph glyph-name="hungarumlaut.uc" horiz-adv-x="516" 
d="M253 928l-128 -192l-49 20l58 218zM432 896l-150 -169l-44 26l83 210z" />
    </font>
</defs>
</svg>
